<?xml version="1.0" encoding="UTF-8"?><svg xmlns="http://www.w3.org/2000/svg" xmlns:xlink="http://www.w3.org/1999/xlink" style="display: none" height="0" width="0"><symbol viewBox="0 0 23 24" id="account-icon" xmlns="http://www.w3.org/2000/svg"><path d="M11.462 1.846c2.621 0 4.754 2.14 4.754 4.77 0 2.63-2.133 4.77-4.754 4.77-2.622 0-4.754-2.14-4.754-4.77 0-2.63 2.132-4.77 4.754-4.77zm6.594 4.77C18.056 2.97 15.098 0 11.462 0S4.868 2.969 4.868 6.617a6.613 6.613 0 0 0 3.047 5.567C3.325 13.687 0 18.016 0 23.114h1.84c0-5.325 4.316-9.655 9.622-9.655s9.622 4.33 9.622 9.655h1.84c0-5.098-3.326-9.427-7.914-10.93a6.614 6.614 0 0 0 3.046-5.567z" fill="#FFF" fill-rule="evenodd" opacity=".7"/></symbol><symbol viewBox="0 0 512 512" id="cafes-icon" xmlns="http://www.w3.org/2000/svg"><path d="M144.8 152.4c-1.4 1.4-3.2 2.1-5 2.1-1.7 0-3.3-.7-4.7-1.9-2.8-2.6-2.8-6.9-.2-9.7 4.6-4.8 3.2-9-1.5-19-4.5-9.7-10.7-23 1.5-35.6 2.6-2.7 6.9-2.8 9.7-.2 2.7 2.6 2.8 6.9.2 9.7-5.2 5.4-3.8 9.8 1.1 20.3 4.3 9.5 10.3 22.4-1.1 34.3zm84.2 0c-1.3 1.4-3.2 2.1-5 2.1-1.7 0-3.3-.7-4.7-1.9-2.8-2.6-2.8-6.9-.2-9.7 4.6-4.8 3.2-9-1.5-19-4.5-9.7-10.7-23 1.5-35.6 2.6-2.7 6.9-2.8 9.7-.2 2.7 2.6 2.8 6.9.2 9.7-5.2 5.4-3.8 9.8 1.1 20.3 4.3 9.5 10.2 22.4-1.1 34.3zm84.1 0c-1.4 1.4-3.2 2.1-5 2.1-1.7 0-3.3-.7-4.7-1.9-2.8-2.6-2.8-6.9-.2-9.7 4.6-4.8 3.2-9-1.5-19-4.5-9.7-10.7-23 1.5-35.6 2.6-2.7 6.9-2.8 9.7-.2 2.7 2.6 2.8 6.9.2 9.7-5.2 5.4-3.8 9.8 1.1 20.3 4.1 9.5 10.2 22.4-1.1 34.3zm103.4 84.1h-23.9V257c0 22.1-4.5 43.2-12.9 62.5l14.8-12.7c5.5-5.6 13.5-8.9 21.9-8.9 16.9 0 30.8-13.8 30.8-30.8 0-16.8-13.7-30.6-30.7-30.6zM379 209.2c0-7.6-6.1-13.7-13.7-13.7H78.4c-7.6 0-13.7 6.1-13.7 13.7V257c0 57.6 34.3 109.5 87.2 132 2.5 1.1 4.2 3.6 4.2 6.3 0 10.3 8.5 18.8 18.8 18.8H276c10.3 0 18.8-8.5 18.8-18.8v-3.4c0-2.6 1.5-5 3.8-6.1 49.5-24.3 80.2-73.6 80.2-128.7l.2-47.9zm37.5 102.4c-4.8 0-9.3 1.9-12.7 5.2l-47.7 40.9c-12.9 15.5-29 28.6-47.6 38.3-.4 17.5-14.8 31.7-32.5 31.7H175c-16.4 0-29.9-12.1-32.1-27.8C87 374.3 51.1 318.7 51.1 257v-47.8c0-15.1 12.3-27.3 27.3-27.3h286.9c15.1 0 27.3 12.3 27.3 27.3v13.6h23.9c24.5 0 44.4 19.9 44.4 44.4s-19.9 44.4-44.4 44.4z"/></symbol><symbol viewBox="0 0 512 512" id="car-icon" xmlns="http://www.w3.org/2000/svg"><path d="M237.1 288.6h52.3v12h-52.3z"/><path d="M444.8 237.2h-84.3l-87.2-78.5c-1.1-1-2.5-1.5-4-1.5H95c-8.7 0-15.8 7.1-15.8 15.8v64.2H66.4c-29.9 0-54.2 24.3-54.2 54.2v11.4c0 29.9 24.3 54.2 54.2 54.2h.7c7.3 18.6 25.5 31.9 46.6 31.9s39.3-13.2 46.6-31.9H345c7.3 18.6 25.5 31.9 46.6 31.9s39.3-13.2 46.6-31.9h6.4c29.9 0 54.2-24.3 54.2-54.2v-11.4c.2-29.9-24.1-54.2-54-54.2zM91.2 172.9c0-2.1 1.7-3.8 3.8-3.8h172l75.6 68H91.2v-64.2zm22.6 204c-17.4 0-32.1-11.7-36.6-27.7-.5-1.6-.8-3.3-1.1-5v-.3c-.1-.7-.2-1.4-.2-2.1v-.6c-.1-.8-.1-1.6-.1-2.4 0-21 17.1-38.1 38.1-38.1s38.1 17.1 38.1 38.1c0 .8 0 1.6-.1 2.4v.6c-.1.7-.1 1.4-.2 2.1v.3c-.2 1.7-.6 3.4-1.1 5-4.7 15.9-19.4 27.7-36.8 27.7zm278 0c-17.4 0-32.1-11.7-36.6-27.7l-.6-2.4c-.2-.8-.3-1.7-.5-2.5v-.3c-.1-.7-.2-1.4-.2-2.1v-.6c-.1-.8-.1-1.6-.1-2.4 0-21 17.1-38.1 38.1-38.1s38.1 17.1 38.1 38.1c0 .8 0 1.6-.1 2.4v.6c-.1.7-.1 1.4-.2 2.1v.3c-.1.8-.3 1.7-.5 2.5l-.6 2.4c-4.7 15.9-19.4 27.7-36.8 27.7zm95.2-74.1c0 23.3-18.9 42.2-42.2 42.2h-3.3v-.3c.1-.7.2-1.5.2-2.2 0-.3 0-.5.1-.8.1-1 .1-1.9.1-2.9 0-27.6-22.5-50.1-50.1-50.1s-50.1 22.5-50.1 50.1c0 1 0 2 .1 2.9 0 .2 0 .5.1.7.1.8.1 1.5.2 2.3v.3H163.5v-.3c.1-.7.2-1.5.2-2.2 0-.2 0-.5.1-.7.1-1 .1-1.9.1-2.9 0-27.6-22.5-50.1-50.1-50.1s-50.1 22.5-50.1 50.1c0 1 0 1.9.1 2.9 0 .2 0 .5.1.7.1.8.1 1.5.2 2.2v.3c-22.2-1.2-39.8-19.6-39.8-42.1v-11.4c0-23.3 18.9-42.2 42.2-42.2h378.4c23.3 0 42.2 18.9 42.2 42.2v11.3z"/></symbol><symbol viewBox="0 0 512 512" id="cycling-icon" xmlns="http://www.w3.org/2000/svg"><path d="M416 221.4c-9.4 0-18.4 1.4-26.9 4l-32.9-86.6c-.9-2.3-3.1-3.9-5.6-3.9H293c-3.3 0-6 2.7-6 6s2.7 6 6 6h53.4l11 29H185.5l-10-28h23c3.3 0 6-2.7 6-6s-2.7-6-6-6H141c-3.3 0-6 2.7-6 6s2.7 6 6 6h21.8l11.8 32.9-33.9 52.2c-13.2-7.4-28.5-11.6-44.7-11.6-50.7 0-92 41.3-92 92s41.3 92 92 92c48.2 0 87.9-37.3 91.7-84.6l11.7.2c3.3 12.5 14.8 21.7 28.3 21.7 16.2 0 29.3-13.1 29.3-29.3 0-4-.8-7.9-2.3-11.4l114.7-94.5 8.4 22.2c-31.7 14.5-53.8 46.6-53.8 83.7 0 50.7 41.3 92 92 92s92-41.3 92-92-41.3-92-92-92zm-236.4-26.3l33.3 93c-7.5 4.4-12.8 12-14.2 20.8l-10.9-.2c-1.4-28.3-15.7-53.3-37.1-69.3l28.9-44.3zm-60.7 112.6c-1-4-2.9-7.6-5.6-10.6l30.9-47.6c18.1 13.7 30.2 34.9 31.6 59l-56.9-.8zM96 393.4c-44.1 0-80-35.9-80-80s35.9-80 80-80c13.8 0 26.8 3.5 38.1 9.7l-30.9 47.6c-2.4-.8-5-1.3-7.6-1.3-13.2 0-24 10.8-24 24s10.8 24 24 24c11 0 20.4-7.5 23.1-17.7l56.9.9c-3.6 40.8-37.9 72.8-79.6 72.8zm151.8-101.3c-5.3-5-12.3-8-20.1-8-1.1 0-2.3.1-3.4.2L189.8 188h171.3l3.5 7.9-116.8 96.2zM416 393.4c-44.1 0-80-35.9-80-80 0-32 18.9-59.7 46.1-72.4l20.1 52.8c-6.2 4.3-10.2 11.5-10.2 19.6 0 13.2 10.8 24 24 24s24-10.8 24-24-10.8-24-24-24c-.9 0-1.7 0-2.5.1l-20.1-52.8c7.2-2.1 14.8-3.3 22.7-3.3 44.1 0 80 35.9 80 80s-36 80-80.1 80z"/></symbol><symbol viewBox="0 0 512 512" id="daycare-icon" xmlns="http://www.w3.org/2000/svg"><path d="M200.4 254.3c0 3.3 2.7 6 6 6s6-2.7 6-6c0-20.1-16.4-36.5-36.5-36.5s-36.5 16.4-36.5 36.5c0 3.3 2.7 6 6 6s6-2.7 6-6c0-13.5 11-24.5 24.5-24.5s24.5 11 24.5 24.5z"/><path d="M459.3 275c0-19.5-15.3-35.4-34.5-36.4-16.2-74.6-80.4-130.7-158-135.5-2.7-11.6 3.4-23.9 14.8-28.5 9.2-3.7 19.6-1.5 26.5 5.5 2.3 2.4 6.1 2.4 8.5.1 2.4-2.3 2.4-6.1 0-8.5-10.3-10.5-25.8-13.7-39.5-8.3-11 4.4-18.7 13.6-21.6 24.2-3.1-6.4-8.5-11.3-15.1-13.9-9.9-3.9-21.1-2.1-29.2 4.8-2.5 2.2-2.8 5.9-.7 8.5 2.2 2.5 5.9 2.8 8.5.7 4.7-4 11.2-5.1 17-2.8 4.1 1.6 7.4 4.7 9.1 8.8 1.3 3 1.7 6.2 1.2 9.3-77.9 4.4-142.8 60.7-159.1 135.6-18.9 1.3-33.9 17.1-33.9 36.4 0 19.2 14.9 35 33.7 36.4 16.7 79.6 87 136.9 169 136.9S408.3 391 425 311.4c19.1-1.1 34.3-17 34.3-36.4zm-36.5 24.5c-.5 0-.9.1-1.4.2-.1 0-.2 0-.3-.1-3.3-.6-6.4 1.6-7 4.8-13.8 76.4-80.4 131.9-158.2 131.9-77.8 0-144.3-55.5-158.2-131.9-.6-3.3-3.7-5.4-7-4.8-.4-.1-.7-.1-1.1-.1-13.5 0-24.5-11-24.5-24.5 0-11.9 8.5-21.8 19.7-24-.6 4.5-1.1 9-1.4 13.7-.2 3.3 2.3 6.2 5.6 6.4 3.3.2 6.2-2.3 6.4-5.6 5.2-84.5 75.7-150.7 160.5-150.7 85.3 0 155.8 66.6 160.5 151.6.2 3.2 2.8 5.7 6 5.7h.3c3.3-.2 5.8-3 5.7-6.3-.3-5-.8-9.9-1.5-14.8 11.5 2 20.3 12.1 20.3 24.1.1 13.4-10.9 24.4-24.4 24.4z"/><path d="M323.9 329.9c-3.1-1.2-6.6.4-7.7 3.5-7.8 20.6-32.4 35-59.9 35s-52.1-14.4-59.9-35c-1.2-3.1-4.6-4.7-7.7-3.5-3.1 1.2-4.7 4.6-3.5 7.7 9.7 25.6 38.2 42.8 71.1 42.8s61.4-17.2 71.1-42.8c1.2-3.1-.4-6.5-3.5-7.7zM336.6 217.8c-20.1 0-36.5 16.4-36.5 36.5 0 3.3 2.7 6 6 6s6-2.7 6-6c0-13.5 11-24.5 24.5-24.5s24.5 11 24.5 24.5c0 3.3 2.7 6 6 6s6-2.7 6-6c0-20.1-16.4-36.5-36.5-36.5z"/></symbol><symbol viewBox="0 0 512 512" id="elementary-schools-icon" xmlns="http://www.w3.org/2000/svg"><path d="M440.1 462H133.3c-36.8 0-66.8-30-66.8-66.8s30-66.8 66.8-66.8h306.8c2.8 0 5.1 2.3 5.1 5.1s-2.3 5.1-5.1 5.1H133.3c-31.2 0-56.5 25.3-56.5 56.5s25.3 56.5 56.5 56.5h306.8c2.8 0 5.1 2.3 5.1 5.1s-2.3 5.3-5.1 5.3z"/><path d="M392.2 411.2H100.3c-1.9 0-3.4-1.5-3.4-3.4s1.5-3.4 3.4-3.4h291.9c1.9 0 3.4 1.5 3.4 3.4s-1.6 3.4-3.4 3.4zM406.9 436.8H117c-1.9 0-3.4-1.5-3.4-3.4s1.5-3.4 3.4-3.4h289.9c1.9 0 3.4 1.5 3.4 3.4 0 1.8-1.5 3.4-3.4 3.4z"/><path class="afst1" d="M392.2 385.7H100.3c-1.9 0-3.4-1.5-3.4-3.4s1.5-3.4 3.4-3.4h291.9c1.9 0 3.4 1.5 3.4 3.4 0 1.8-1.6 3.4-3.4 3.4z"/><path d="M406.9 360.1H117c-1.9 0-3.4-1.5-3.4-3.4s1.5-3.4 3.4-3.4h289.9c1.9 0 3.4 1.5 3.4 3.4s-1.5 3.4-3.4 3.4zM217.2 149.7c-22.9 0-36.2 10.9-40.8 33.3-.4 2.2-2.4 3.8-4.5 3.8-.3 0-.6 0-.9-.1-2.5-.5-4.1-3-3.6-5.6 5.6-26.6 22.9-40.7 50-40.7 2.6 0 4.7 2.1 4.7 4.7s-2.3 4.6-4.9 4.6zm60.4-43.3c12.1-1.2 27-2.6 44.2-9.8 22.4-9.4 27.5-16.6 30.9-24.5-7-6-21.2-11.6-36.7-11.6-8 0-15.5 1.5-22.5 4.4-20 8.4-26 26.9-27 42.7 3.4-.5 7-.9 11.1-1.2zm-32.9 28.2c-9.8-2.4-19-3.7-27.5-3.7-38.9 0-61.2 25.7-61.2 70.4 0 48.4 43.7 115.6 78.1 119.9 7.6.9 10.5-1 13.8-3.4 2.3-1.7 5.2-3.9 9.6-3.9 4.6 0 7.1 2.7 8.6 4.5 1.8 2 3.3 3.8 9.5 3.8.9 0 1.9 0 3-.2 46.2-3.8 93.2-73.4 93.2-120.7 0-44.5-24.4-68-70.4-68-12.3 0-26.3 1.7-41.4 5.1-.9.2-1.7.2-2.5-.1-4.4-1.4-8.6-2.7-12.8-3.7zm56.6-10.6c51.4 0 79.9 27.5 79.9 77.4 0 52-50.3 125.7-101.8 130-1.4.1-2.6.2-3.8.2-9.4 0-13.3-3.3-16.4-6.8-1.3-1.4-1.4-1.4-1.7-1.4-1.2 0-2 .5-4 2.1-3.7 2.7-8.7 6.7-20.5 5.2-41.7-5.2-86.3-80.3-86.3-129.2 0-49.9 26.4-79.7 70.5-79.7 9.2 0 19.2 1.3 29.7 3.9 2.8.7 5.6 1.6 8.6 2.5 6.3-34.2-13.2-62.2-13.4-62.6-1.5-2.1-1-5 1.1-6.5s5-1 6.5 1.1c.5.8 7.3 10.4 12 25.3 5.4-13.5 15-23.5 28.3-29 8.1-3.3 16.9-5 26.1-5 21.1 0 38.4 8.6 45.7 16.7 1.2 1.4 1.5 3.3.9 4.9-4.1 10-8.4 20.4-37.2 32.4-18.4 7.7-34.2 9.2-46.8 10.4-4.6.4-8.8.9-12.4 1.5-.2 3.5-.4 7.1-1 10.8 12.8-2.8 25-4.2 36-4.2z"/></symbol><symbol viewBox="0 0 10 21" id="facebook-icon" xmlns="http://www.w3.org/2000/svg"><path d="M9.758 6.8H6.435V4.62c0-.818.542-1.009.924-1.009h2.346V.013L6.475 0C2.889 0 2.073 2.684 2.073 4.401V6.8H0v3.708h2.073V21h4.362V10.508h2.943l.38-3.708z" fill="#004E9B" fill-rule="nonzero"/></symbol><symbol viewBox="0 0 23 22" id="favorite-icon" xmlns="http://www.w3.org/2000/svg"><path d="M17.57 13.154c-1.905 2.204-4.701 5.303-5.935 6.66-1.263-1.357-4.145-4.456-6.106-6.666-2.816-3.17-3.79-4.379-3.79-6.518 0-1.985 1.608-4.852 4.517-4.852 3.853.005 4.503 3.4 4.53 3.56l.008.024c.007.03.016.06.025.09.008.029.016.052.027.082.01.024.025.047.039.077.013.024.025.047.04.071l.059.077c.015.018.028.036.044.048.026.03.055.053.085.077.013.012.025.023.04.03.032.023.068.04.105.064l.04.018c.035.018.072.03.11.042.018.006.037.006.055.012.014.005.026.011.04.011.022.006.045 0 .068.006h.067c.035 0 .07 0 .104-.006h.046c.01 0 .017-.006.026-.006.033-.005.064-.017.095-.03.024-.005.048-.011.071-.023.028-.012.054-.03.081-.041.023-.012.046-.024.068-.042l.069-.053.06-.053.057-.072c.017-.017.033-.041.048-.059.016-.024.029-.053.043-.077.013-.03.026-.053.037-.077.01-.024.018-.053.026-.077.01-.03.019-.065.025-.095.002-.012.006-.017.007-.03.024-.142.613-3.543 4.386-3.548 2.817 0 4.374 2.867 4.374 4.852 0 2.145-.949 3.354-3.692 6.524zM23 6.63c0 2.927-1.466 4.622-4.128 7.703-2.507 2.903-6.553 7.341-6.593 7.383-.04.041-.05.047-.056.053a.943.943 0 0 1-.254.166.993.993 0 0 1-.325.065c-.101 0-.2-.024-.295-.06a.755.755 0 0 1-.274-.165c-.042-.036-.051-.042-.06-.048-.041-.047-4.196-4.485-6.772-7.388C1.507 11.264 0 9.563 0 6.63 0 3.496 2.57 0 6.257 0c2.785.006 4.462 1.398 5.376 2.85.894-1.452 2.532-2.844 5.254-2.85C20.49 0 23 3.496 23 6.63z" fill="#FFF" fill-rule="evenodd" opacity=".7"/></symbol><symbol viewBox="0 0 82 71" id="gallery-icon" xmlns="http://www.w3.org/2000/svg"><g transform="translate(1.473 1.224)" fill="none" fill-rule="evenodd"><use fill="#000" filter="url(#b)"/><use fill="#FFF"/><path d="M39.7 40.4l7.8-12.9c.2-.3.6-.4.9-.2l.3.3 6.6 15.2c.1.3 0 .7-.4.9-.1 0-.2.1-.3.1H40.9c-.1 0-.2.1-.3.1H28.5c-.4 0-.7-.3-.7-.7 0-.1 0-.2.1-.3L33 32.5c.2-.3.6-.5.9-.3.1.1.2.1.3.2l5.4 8zm-13.5-9.2c-1.6 0-2.8-1.2-2.8-2.8s1.3-2.8 2.8-2.8c1.6 0 2.8 1.2 2.8 2.8s-1.3 2.8-2.8 2.8z" fill="#fff" stroke="#007DC3" stroke-linecap="round" stroke-linejoin="round" stroke-width="1.8"/><rect height="26.5" rx="1.6" stroke="#007DC3" stroke-width="1.8" width="39.7" x="19.7" y="20.8"/><path d="M16.8 44.7c-.9 0-1.6-.7-1.6-1.6V18c0-.9.7-1.6 1.6-1.6h38.3c.9 0 1.6.7 1.6 1.6" stroke="#007DC3" stroke-linecap="round" stroke-linejoin="round" stroke-width="1.8"/></g></symbol><symbol viewBox="0 0 46 46" id="google-icon" xmlns="http://www.w3.org/2000/svg"><g fill="none" fill-rule="evenodd"><path d="M31.64 24.205c0-.639-.057-1.252-.164-1.841H23v3.481h4.844a4.14 4.14 0 0 1-1.796 2.716v2.259h2.908c1.702-1.567 2.684-3.875 2.684-6.615z" fill="#4285F4"/><path d="M23 33c2.43 0 4.467-.806 5.956-2.18l-2.908-2.259c-.806.54-1.837.86-3.048.86-2.344 0-4.328-1.584-5.036-3.711h-3.007v2.332A8.997 8.997 0 0 0 23 33z" fill="#34A853"/><path d="M17.964 25.71a5.41 5.41 0 0 1-.282-1.71c0-.593.102-1.17.282-1.71v-2.332h-3.007A8.996 8.996 0 0 0 14 24c0 1.452.348 2.827.957 4.042l3.007-2.332z" fill="#FBBC05"/><path d="M23 18.58c1.321 0 2.508.454 3.44 1.345l2.582-2.58C27.463 15.891 25.426 15 23 15a8.997 8.997 0 0 0-8.043 4.958l3.007 2.332c.708-2.127 2.692-3.71 5.036-3.71z" fill="#EA4335"/><path d="M14 15h18v18H14V15z"/></g></symbol><symbol viewBox="0 0 512 512" id="greenery-icon" xmlns="http://www.w3.org/2000/svg"><path d="M420.8 85.9c-49.5 5.5-181 20-252.6 93.4-73 74.7-52.3 136.1-22.2 174.4.5.6 1.2 1.4 1.8 2.1 7-9.4 14.8-20.4 23.4-32.5 49.5-69.8 117.3-165.3 201-195.6 3.6-1.3 7.5.6 8.8 4.1 1.3 3.6-.6 7.5-4.1 8.8-79.6 28.8-148.7 126.1-194.5 190.6-9.3 13.1-17.5 24.7-25.1 34.7 2.9 2.9 5.8 5.6 7.8 7.4 14.4 12.8 38.2 28.1 69.7 28.1 33.3 0 67-17.2 100.1-51 72.6-74.3 86.9-215.5 91.6-261.9.1-1.2.2-2.3.4-3.4-1.8.4-3.9.6-6.1.8zm19.5 4.2c-4.8 47.6-19.5 192.4-95.5 270.1-35.7 36.6-72.7 55.2-109.9 55.2-35.9 0-62.7-17.2-78.9-31.6-1.8-1.6-4.2-3.9-6.8-6.4-7 10.3-27.6 36.7-68 63.2-1.2.8-2.5 1.1-3.8 1.1-2.2 0-4.4-1.1-5.8-3.1-2.1-3.2-1.2-7.4 2-9.5 42.4-27.8 61.8-55.7 65.8-61.8-1.6-1.8-3.1-3.5-4.3-5-27.5-34.9-61-106.4 23.1-192.6 75-76.8 210.1-91.8 260.9-97.4 6-.7 10.9-1.2 14.5-1.7 2.1-.3 4.3.4 5.8 1.9s2.3 3.6 2 5.7c-.2 3-.6 6.9-1.1 11.9z"/></symbol><symbol viewBox="0 0 512 512" id="groceries-icon" xmlns="http://www.w3.org/2000/svg"><path d="M410.3 147.9c-.4-.3-.9-.6-1.3-.7-.9-1.2-2.3-1.9-4-1.9l-11.1-.1-11.5-3.6c-.5-.2-1-.2-1.5-.2l-11.5-.2-17.8-4.7c-.4-.1-.9-.2-1.3-.2l-15.1.1-6.1-3.4c-1.1-.6-2.4-.8-3.6-.5l-5.6 1.4c2-10.3 3.4-20.6 3.8-31.2.5-12.3-.6-24.2-6.5-35.4-2.3-2.8-4.4-5.9-7.1-8.4-12-11.5-28.6-11.7-43.3-1.2-13.9 9.8-24.8 22.4-34.6 36-.6.9-1.4 1.9-1.5 2.8-.7 5.4-4.4 8.7-7.8 12.5-2 2.3-4.1 4.5-6.1 6.9a5.03 5.03 0 0 0-6.5-1.5l-6.9 3.9h-11c-.7 0-1.5.2-2.1.5l-10.7 4.9-14.3.6c-.5 0-.9.1-1.4.2l-17.8 5.6-18.1 2.3c-.4.1-.7.2-1.1.2l-11.8 4.4-10.9.7h-.4c-.2 0-.2.1-.4.1h-.2c-.2.1-.4.1-.6.2-.2.1-.3.2-.5.2-.1 0-.1.1-.2.1-.2.1-.2.2-.3.2 0 0-.1 0-.1.1l-.1.1c-.1.1-.2.2-.3.2l-.1.1-.4.4s0 .1-.1.1c-.1.1-.2.2-.3.4 0 .1-.1.1-.1.2-.1.1-.2.2-.2.3s-.1.1-.1.2l-.2.4c0 .1 0 .1-.1.2-.2.3-.2.7-.2 1.1V387.6c0 2.2 1.4 4 3.4 4.8l209.5 71c.1 0 .1 0 .2.1.1 0 .2.1.2.1.1 0 .2.1.3.1h.4c.2 0 .4 0 .6.1H314.8c.1 0 .2 0 .2-.1.1 0 .2-.1.2-.1.1 0 .1 0 .2-.1.1 0 .1 0 .2-.1.1 0 .2-.1.2-.1.1 0 .2-.1.2-.1l91.5-45.2c1.7-.8 2.7-2.5 2.7-4.4 1-1 1.7-2.3 1.7-3.8V152.1c.3-1.8-.4-3.2-1.6-4.2zM319 181.5l7.8-.4c.8 0 1.5-.2 2.3-.6l8-4.6 9.7-.2c.8 0 1.6-.2 2.3-.6l7.1-3.9v221.6L319.1 443l-.1-261.5zm53.9-12.6c.6-.1 1.3-.2 1.9-.6l9.4-5 8.3.2c1 0 2-.2 2.8-.8l6.4-4.2.4-.1v247.9l-36.1-15V169.5l6.9-.6zM331 443.6l31.8-42.9 27.9 11.6-59.7 31.3zm-13.4-298.9l8.4-2.1 5.6 3.1c.7.4 1.6.6 2.4.6l15.7-.1 17.8 4.7c.4.1.8.2 1.2.2l11.5.2 6.9 2.2-3.7-.1c-.9 0-1.7.2-2.4.6l-9.7 5.2-7.8.7c-.6-.2-1.3-.4-2-.4-1 0-2 .3-2.8.9l-2 .2c-.6.1-1.4.2-1.9.6l-9 4.9-9.7.2c-.8 0-1.7.2-2.4.6l-8.1 4.6-11.4.6h-.4l-5 .6c3.5-9.1 6.5-18.3 8.9-27.6-.3-.4-.2-.4-.1-.4zm-44.4-43.4c-11.1-.1-21.8-.2-33.5-.2 9.7-6.7 24.6-6.5 33.5.2zm-27.9 10.1c12.5.2 25 .5 37.5.8 1.2 0 2.4.2 3.6.2 4.6-.2 6.7-3.8 4.8-7.9-3.4-7-9.1-11.8-16.1-14.3-7.3-2.6-15.1-4-22.4-5.8 7.5-8.6 16.3-17.3 27.6-22.7 9.8-4.7 23.3 1.5 28.7 12.8 4.5 9.5 4.8 19.8 4.4 30-1 21.1-5.8 41.5-13.4 61.2-.6 1.5-1.1 3-1.7 4.4l-3.7-1.5c-.7-.3-1.5-.4-2.3-.3l-9.8.9-14.9-5c-.6-.2-1.1-.2-1.8-.2l-12.8.5-10.4-4.2c-.6-.2-1.4-.4-2.1-.4l-12.8.5-10.3-3.6c15.8-3.1 32-4.1 48.1-3.9.6 0 1.5.2 2 0 2-.8 4.8-1.4 5.6-2.9.8-1.5.2-4.5-.9-6.2-4.8-7.4-12.6-10.6-20.8-12.5-10.6-2.5-21.3-2.9-32-.1-.3.1-.8-.1-1.5-.2 6.7-10.3 13.5-19.9 27.4-19.6zm4.1 30.7c-13.1 1.8-25.8 3.6-39.3 5.4 6.8-7.6 28.8-10.3 39.3-5.4zM147.8 140c.3 0 .6-.1 1-.2l17.4-5.7 14.6-.6c.6 0 1.3-.2 1.9-.5l10.5-4.8h11.1c.9 0 1.7-.2 2.5-.6l1-.6c-4 6.1-7.3 12.6-9 20.2-.5 2-2 3.9-3.2 5.6-.2.3-.5.7-.7 1l-6-2.4c-.6-.2-1.3-.4-2-.4l-14 .3-9.8-4.1c-.6-.2-1.4-.4-2.1-.4l-13.5.4-12.4-4.6c-.6-.2-1.2-.3-1.9-.3l-4.3.1.7-.2 18.2-2.2zm-38.3 9.7l7.5 2.7c.6.2 1.2.3 1.8.3l13.7-.3 12.4 4.6c.6.2 1.2.3 1.9.3l13.3-.4 9.8 4.1c.6.2 1.4.4 2 .4l14-.3 10.4 4.2c.6.2 1.4.4 2 .4l13.2-.4 13.2 4.8c.6.2 1.2.3 1.9.3l12.8-.5 10.4 4.2c.6.2 1.4.4 2.1.4l12.9-.5 15.1 5.1c.6.2 1.4.3 2 .2l9.7-.9 10.6 4.2c.8.3 1.6.4 2.4.3l4.2-.5v268.9l-199.2-67.8V149.7h-.1z"/></symbol><symbol viewBox="0 0 512 512" id="high-schools-icon" xmlns="http://www.w3.org/2000/svg"><path d="M462.8 170.2l-204.1-61.6c-1.1-.3-2.3-.3-3.5 0l-204 61.6c-2.5.8-4.3 3.1-4.3 5.8s1.7 5 4.3 5.7l99.6 29.6c-18.4 35.1-20.1 71.6-20.1 73.2-.1 2.6 1.5 5 4 5.9L255 332.1c.6.2 1.3.3 2 .3s1.3-.1 2-.3l120.4-41.7c2.5-.9 4.1-3.3 4-5.9-.1-1.6-1.7-38.1-20.1-73.2l40.3-12v77c-10.5 2.7-18.2 12.2-18.2 23.4 0 9.1 5.1 17 12.5 21.2L385.5 408c-.2 1.7.3 3.5 1.4 4.8 1.1 1.3 2.8 2.1 4.5 2.1h36.4c1.7 0 3.4-.8 4.5-2.1s1.7-3.1 1.4-4.8l-12.4-87.1c7.4-4.1 12.4-12.1 12.4-21.1 0-11.3-7.7-20.8-18.2-23.4v-80.6l47.2-14c2.5-.8 4.3-3.1 4.3-5.7s-1.6-5.2-4.2-5.9zm-53.1 153.7l11.2 78.9h-22.6l11.3-78.9h.1zm12.1-24.2c0 5.4-3.5 9.9-8.3 11.6-.1 0-.2 0-.3.1-1 .3-1.9.5-2.7.5h-1.8c-.8-.1-1.6-.2-2.4-.5-.2-.1-.5-.1-.7-.2-4.7-1.7-8.2-6.2-8.2-11.5 0-6.7 5.5-12.2 12.2-12.2 6.7 0 12.2 5.5 12.2 12.2zM257 320.1l-114.1-39.5c1-10.7 5.1-39.2 19.5-65.7l92.6 27.5.3.1c.8.2 1.7.3 2.6.2.1 0 .2 0 .3-.1.2 0 .4-.1.6-.1l92.8-27.5c14.5 26.5 18.5 55 19.5 65.7L257 320.1zm155.2-135.9c-.7-.3-1.4-.5-2.2-.6l-152.6-10.2c-3.3-.2-6.2 2.3-6.4 5.6-.2 3.3 2.3 6.2 5.6 6.4l123.7 8.3L257 230.3 73.8 175.9 257 120.6l183.2 55.3-28 8.3z"/></symbol><symbol viewBox="0 0 92 85" id="map-icon" xmlns="http://www.w3.org/2000/svg"><g transform="translate(6 12.224)" fill="none" fill-rule="evenodd"><path d="M10.845-3.553h58.171L6.845 66.37V.447a4 4 0 0 1 4-4z" fill="#F2F2F2" filter="url(#c)" opacity=".4" transform="rotate(90 37.93 31.409)"/><use fill="#000" filter="url(#b)"/><use fill="#FFF"/><path d="M24.239 37.793h29.238a2.7 2.7 0 0 1 2.7 2.7v9.49a2.7 2.7 0 0 1-2.7 2.7H24.239a2.7 2.7 0 0 1-2.7-2.7v-9.49a2.7 2.7 0 0 1 2.7-2.7zm-10.065 4.002" fill="#fff"/><path d="M14.174 41.795l5.995-5.983M58.137 40.465l4.942-3.836" stroke="#007DC3" stroke-linecap="round" stroke-linejoin="round" stroke-width="2"/><path stroke="#007DC3" stroke-linecap="square" stroke-width="2" d="M53.515 41.13H33.484l-10.651-6.648"/><path d="M24.239 15.157a1.7 1.7 0 0 0-1.7 1.7v31.162a1.7 1.7 0 0 0 1.7 1.7h29.238a1.7 1.7 0 0 0 1.7-1.7V16.857a1.7 1.7 0 0 0-1.7-1.7H24.239zm33.988-.531h0M58.227 14.626v33.961l5.38-4.475a1.7 1.7 0 0 0 .613-1.307V10.387a.35.35 0 0 0-.573-.269l-5.42 4.507zM19.489 50.253V16.292l-5.38 4.475a1.7 1.7 0 0 0-.613 1.307v32.418a.35.35 0 0 0 .573.269l5.42-4.507z" stroke="#007DC3" stroke-width="2"/><path d="M39.041 46.683c3.957-6.502 5.935-10.843 5.935-13.023 0-3.271-2.657-5.923-5.935-5.923-3.278 0-5.935 2.652-5.935 5.923 0 2.18 1.978 6.522 5.935 13.023z" fill="#fff" stroke="#007DC3" stroke-width="1.701"/><ellipse cx="39.041" cy="33.607" rx="2.391" ry="2.386" stroke="#007DC3" stroke-width="1.701"/></g></symbol><symbol viewBox="0 0 50 51" id="my-account-icon" xmlns="http://www.w3.org/2000/svg"><circle cx="25" cy="25" fill="transparent" r="23.5" stroke="#FFF" stroke-width="3"/><path d="M25.2 9c2.8 0 5.2 2.8 5.2 5 0 3-2.4 5.8-5.2 5.8-2.8 0-5.2-2.9-5.2-5.7 0-2.3 2.4-5.2 5.2-5.2zm0 12.8c4.3 0 7.8-3.4 7.8-7.7 0-4.3-3.5-7-7.8-7s-7.8 2.7-7.8 7 3.5 7.7 7.8 7.7zm12.4 15.4H12.9v-6c0-1.6.6-3 1.8-4 .3-.5 1.1-1.2 2.4-1.1h16.1c3 0 4.4 2.3 4.4 4.6v6.5zm-4.4-13.8H17a5 5 0 0 0-4.4 2.5c-1.5.9-2.4 3-2.4 5.3v7.3c0 .7.6 1.3 2.2 1.3h26.3c1 0 1.3-.6 1.3-1.3v-7.8c0-3.5-2.4-7.3-7-7.3z" fill="#FFF"/></symbol><symbol viewBox="0 0 512 512" id="nightlife-icon" xmlns="http://www.w3.org/2000/svg"><path d="M393.5 234.6c-.2-1.5-.9-2.9-2-3.8-10.3-19-24.3-35.7-41.1-49.1-.8-1.7-2.3-2.9-4.2-3.3-18.8-14.1-40.7-24.1-64.5-28.9-1.6-13.9-12.1-25.2-25.7-27.8V50c0-3.3-2.7-6-6-6s-6 2.7-6 6v71.8c-13.6 2.6-24.1 13.8-25.7 27.8-73.5 14.8-129.1 79.8-129.1 157.7C89.2 395.9 161.3 468 250 468c36 0 69.3-11.9 96.2-32 1.9-.4 3.4-1.6 4.2-3.3 16.7-13.4 30.8-30.1 41.1-49.1 1.1-1 1.8-2.3 2-3.8 11.1-21.8 17.3-46.5 17.3-72.6s-6.3-50.8-17.3-72.6zm-10.1 138.5h-57.2c4.3-18.7 6.7-38.9 7.1-59.9h65.3c-.8 21.4-6.2 41.7-15.2 59.9zm-89.6 51h-37.3v-39h54.2c-3.1 10.4-6.9 20.1-11.3 28.9-1.8 3.6-3.7 6.9-5.6 10.1zM200.6 414c-4.4-8.8-8.2-18.5-11.3-28.9h55.2v39h-38.3c-1.9-3.2-3.8-6.5-5.6-10.1zm-99.3-100.8h65.3c.4 21 2.8 41.2 7.1 59.9h-57.2c-8.9-18.2-14.3-38.5-15.2-59.9zm15.3-71.9h57.2c-4.3 18.7-6.7 38.9-7.1 59.9h-65.3c.8-21.4 6.2-41.7 15.2-59.9zm89.6-51h38.3v39h-55.2c3.1-10.4 6.9-20.1 11.3-28.9 1.8-3.6 3.7-6.9 5.6-10.1zm93.2 10.1c4.4 8.8 8.2 18.5 11.3 28.9h-54.2v-39h37.3c1.9 3.2 3.8 6.5 5.6 10.1zm14.5 40.9c4.5 18.5 7 38.8 7.4 59.9h-64.8v-59.9h57.4zm-57.4-63V159c10.1 2 19.9 8.6 28.8 19.3h-28.8zm31.1-15.1c13 3.4 25.3 8.5 36.7 15.1h-24c-4-5.8-8.2-10.8-12.7-15.1zm-87.9 15.1h-24c11.4-6.6 23.7-11.7 36.7-15.1-4.5 4.3-8.7 9.3-12.7 15.1zm44.8-19.4v19.4h-29.8c9.2-11.1 19.3-17.7 29.8-19.4zm0 82.4v59.9h-65.8c.4-21.1 2.9-41.4 7.4-59.9h58.4zm-65.8 71.9h65.8v59.9h-58.4c-4.5-18.5-7-38.8-7.4-59.9zm65.8 122.9v19.4c-10.5-1.7-20.6-8.4-29.8-19.4h29.8zm12 19.3v-19.3h28.8c-8.9 10.7-18.7 17.3-28.8 19.3zm0-82.3v-59.9h64.8c-.4 21.1-2.9 41.4-7.4 59.9h-57.4zm76.8-71.9c-.4-21-2.8-41.2-7.1-59.9h57.2c9 18.2 14.4 38.5 15.3 59.9h-65.4zm43.4-71.9h-53.6c-3.5-12.4-7.9-23.9-13.1-34.2-.8-1.6-1.6-3.2-2.5-4.8H342c13.7 10.8 25.5 24 34.7 39zM250 133.2c9.2 0 16.8 6 19.1 14.3-6.3-.7-12.7-1.1-19.1-1.1-6.5 0-12.8.4-19.1 1.1 2.4-8.2 10.1-14.3 19.1-14.3zm-92 57.1h34.4c-.8 1.6-1.7 3.1-2.5 4.8-5.2 10.4-9.6 21.9-13.1 34.2h-53.6c9.3-15 21.1-28.2 34.8-39zm-34.7 194.8h53.6c3.5 12.4 7.9 23.9 13.1 34.2.8 1.6 1.6 3.2 2.5 4.8H158c-13.7-10.8-25.5-24-34.7-39zm52.4 51h24c4 5.8 8.2 10.8 12.7 15.1-13-3.4-25.3-8.5-36.7-15.1zm124.6 0h24c-11.4 6.6-23.7 11.7-36.7 15.1 4.5-4.3 8.7-9.3 12.7-15.1zm41.7-12h-34.4c.8-1.6 1.7-3.1 2.5-4.8 5.2-10.4 9.6-21.9 13.1-34.2h53.6c-9.3 15-21.1 28.2-34.8 39zM126.4 149L100 135l-14-26.6L71.8 135l-26.6 14 26.6 14.2L86 189.6l14-26.4 26.4-14.2zm-40.5 15l-5.2-9.8-9.8-5.2 9.8-5.2 5.2-9.8 5.2 9.8 9.8 5.2-9.8 5.2-5.2 9.8zM351.5 137.9l11.2-21.4 21.4-11.2-21.4-11.4-11.2-21.4-11.4 21.4-21.4 11.4 21.4 11.2 11.4 21.4zm-2.5-35.2l2.4-4.6 2.4 4.6 4.6 2.4-4.6 2.4-2.4 4.6-2.4-4.6-4.6-2.4 4.6-2.4zM435.7 174.4L424 152.1l-11.8 22.3-22.4 11.7 22.4 11.7 11.8 22.3 11.6-22.3 22.2-11.7-22.1-11.7zm-9 14.6l-2.8 5.3-2.8-5.3-5.4-2.9 5.4-2.9 2.8-5.3 2.8 5.3 5.4 2.9-5.4 2.9z"/></symbol><symbol viewBox="0 0 512 512" id="parks-icon" xmlns="http://www.w3.org/2000/svg"><path d="M259.4 390.8h-24.1v-11.5h14c3.3 0 6-2.7 6-6s-2.7-6-6-6H63.7c-3.3 0-6 2.7-6 6s2.7 6 6 6h11.9v11.5H52c-3.3 0-6 2.7-6 6v28.4c0 3.3 2.7 6 6 6h20.6v26.6c0 3.3 2.7 6 6 6h18.6c3.3 0 6-2.7 6-6v-26.6h104.5v26.6c0 3.3 2.7 6 6 6h18.6c3.3 0 6-2.7 6-6v-26.6h21.1c3.3 0 6-2.7 6-6v-28.4c0-3.3-2.7-6-6-6zm-36.1 0h-.6v-10.6h.6v10.6zm-12.6-11.5v11.5H100.2v-11.5h110.5zm-123.1.9h.6v10.6h-.6v-10.6zm3.6 71.6h-6.6v-20.6h6.6v20.6zm135.1 0h-6.6v-20.6h6.6v20.6zm27.1-32.6H58v-16.4H253.4v16.4zM63.7 339.2h185.6c3.3 0 6-2.7 6-6s-2.7-6-6-6H63.7c-3.3 0-6 2.7-6 6s2.7 6 6 6zM63.7 359.3h185.6c3.3 0 6-2.7 6-6s-2.7-6-6-6H63.7c-3.3 0-6 2.7-6 6s2.7 6 6 6z"/><path d="M432 175.3c2.4-8.9 3.7-18 3.7-27.4 0-56.8-46.2-103-102.9-103-56.8 0-103 46.2-103 103 0 6.1.6 12.2 1.6 18.2-17.8 12.6-29.5 33.3-29.5 56.7 0 38.2 31.1 69.3 69.3 69.3.5 0 1-.1 1.5-.2 7.4 5.9 16 10.3 25.5 12.8v.2l-3 124.1-6.7 28.4c-.8 3.2 1.2 6.5 4.5 7.2.5.1.9.2 1.4.2 2.7 0 5.2-1.9 5.8-4.6l6.8-29c.1-.4.1-.8.2-1.2l3-123.1c2 .2 4.1.3 6.1.3 12.1 0 23.9-3.2 34.4-9.3l2.9 130.4c0 .4.1.8.1 1.1l6.6 30.6c.6 2.8 3.1 4.7 5.9 4.7.4 0 .8 0 1.3-.1 3.2-.7 5.3-3.9 4.6-7.1l-6.5-30-3-132.1c10.6 6.2 22.6 9.5 35.1 9.5 38.2 0 69.3-31.1 69.3-69.3 0-24.9-13.6-48.1-35-60.3zm-34.3 117.5c-10.8 0-21.2-2.9-30.2-8.5 8.6-9.5 14.4-21.2 16.7-34.1.6-3.3-1.6-6.4-4.8-7-3.3-.6-6.4 1.6-7 4.8-2.3 12.8-8.8 24.2-18.4 32.7-1 .5-1.9 1.2-2.5 2.1-.9.7-1.8 1.4-2.8 2.1-12.6 8.7-27.8 12-42.9 9.2-21.4-3.9-38.5-19.2-44.6-40-.9-3.2-4.3-5-7.4-4.1-3.2.9-5 4.3-4.1 7.4 2.3 7.9 6 15.2 10.7 21.6-26.4-5.1-46.4-28.4-46.4-56.2 0-20.5 10.8-38.5 27-48.6.3-.1.5-.3.8-.5 8.6-5.2 18.7-8.2 29.5-8.2 3.3 0 6-2.7 6-6s-2.7-6-6-6c-10.2 0-19.9 2.2-28.6 6.2-.5-3.9-.8-7.9-.8-11.8 0-50.2 40.8-91 91-91 50.1 0 90.9 40.8 90.9 91 0 18.1-5.3 35.6-15.4 50.7-1.8 2.8-1.1 6.5 1.7 8.3 1 .7 2.2 1 3.3 1 1.9 0 3.8-.9 5-2.7 3.9-5.8 7.1-12 9.8-18.4 16.6 10.4 27 28.9 27 48.6-.2 31.7-25.9 57.4-57.5 57.4z"/><path d="M269.4 193.1c-5.8 1.1-10.5 5-12.6 10.4-1 2.7.3 5.8 3.1 6.9.6.3 1.3.4 1.9.4 2.1 0 4.2-1.3 5-3.4 1.1-2.7 3.3-3.4 4.3-3.6s3.4-.3 5.3 1.9c2 2.3 5.3 2.5 7.6.6s2.5-5.3.7-7.7c-3.8-4.4-9.5-6.6-15.3-5.5zM325.2 123.5c1.8-2.3 1.5-5.8-.8-7.6-4.6-3.7-10.6-4.7-16.1-2.7-5.4 2-9.4 6.6-10.5 12.4-.5 2.9 1.4 5.8 4.3 6.3.4.1.7.1 1.1.1 2.6 0 4.8-1.9 5.3-4.4.6-2.9 2.9-4 3.7-4.3s3.2-.8 5.5 1c2.3 1.9 5.7 1.5 7.5-.8zM344.1 221.5c-3-.2-5.4 2.3-5.5 5.3-.1 2.9-2 4.4-2.9 4.8-.9.5-3.1 1.4-5.6 0-2.7-1.5-5.9-.6-7.4 2-1.5 2.7-.5 5.9 2 7.4 2.6 1.5 5.4 2.2 8.2 2.2 2.7 0 5.6-.8 8.1-2.2 5.1-2.9 8.2-8.1 8.4-14 .1-3-2.3-5.4-5.3-5.5zM382.4 148.3c-5.4-2.3-11.5-1.6-16.2 1.8-2.3 1.8-2.9 5.2-1.1 7.6 1.8 2.3 5.2 2.9 7.6 1.1 2.4-1.7 4.7-1 5.6-.6.9.4 3 1.6 3.4 4.5.5 2.8 2.8 4.7 5.4 4.7.2 0 .4-.1.7-.1 3-.4 5-3.1 4.5-6.1-.9-5.8-4.5-10.6-9.9-12.9z"/></symbol><symbol viewBox="0 0 512 512" id="pedestrian-icon" xmlns="http://www.w3.org/2000/svg"><path d="M333.2 268.8c5.7 3.7 12.2 5.4 18.5 5.4 11.3 0 22.4-5.5 29-15.6 10.2-16 5.6-37.3-10.3-47.5l-87-56.2c-1.7-1.6-3.5-2.9-5.4-4.1 19.1-8 32.6-26.8 32.6-48.8 0-29.1-23.7-52.8-52.8-52.8S205 72.9 205 102c0 22.1 13.7 41.1 33.1 49l-4.7 1.2c-.2 0-.3.1-.5.1l-56.4 20.3c-3.6 1.2-6.9 3.1-9.9 5.5-4.4 2.6-8.1 6.2-10.9 10.6l-23.1 35.8c-5 7.7-6.7 17-4.7 26 1.9 9 7.2 16.6 14.9 21.5 7.7 5 17 6.7 26 4.7 9-1.9 16.6-7.2 21.5-14.9l17.8-27.5 17.5-6.3v56c0 .5 0 1.1-.1 1.6-.1 1.3-.1 2.7.1 4.2 0 6.7.3 13 2.3 18.9-2.4 1.9-4.6 4-6.4 6.4l-65.2 81.3c-12.6 15.8-10.1 39 5.7 51.6 6.8 5.4 14.9 8 22.9 8 10.8 0 21.4-4.7 28.6-13.7l60.8-72.5 34.9 76.2v.1c6.3 13.1 19.5 20.8 33.2 20.8 5.3 0 10.8-1.2 15.9-3.6 18.2-8.8 25.9-30.8 17.1-49.1l-38.8-80.3s0-.1-.1-.1c-1.3-2.5-1.3-2.5-3.8-7-3.7-6.6-4.1-7.3-7.1-10.8L294 280v-36.3l39.2 25.1zM215 102c0-23.6 19.2-42.8 42.8-42.8 23.6 0 42.8 19.2 42.8 42.8s-19.2 42.8-42.8 42.8S215 125.6 215 102zm-9 334c-9.3 11.5-26.1 13.4-37.6 4.2s-13.3-26-4.1-37.6l65.2-81.3.1-.1c1-1.3 2.1-2.5 3.4-3.6.3.4.6.8 1 1.2l34 38.9c.3 1 .8 2 1.3 2.9L206 436zm112.3-113.4c2.3 2.7 2.5 2.9 5.9 9 2.4 4.3 2.4 4.4 3.6 6.7l38.8 80.2c6.4 13.3.8 29.3-12.5 35.7-13.3 6.4-29.3.8-35.7-12.4L282 362.4c-.6-1.3-1.4-2.5-2.2-3.7-.4-.8-.9-1.6-1.4-2.4-.4-.6-1-1.5-1.2-2 0-.1-.1-.2-.1-.3 0-.1 0-.2-.1-.3 0-.1-.1-.2-.1-.3 0-.1-.1-.2-.1-.3-.1-.1-.1-.2-.2-.4 0-.1-.1-.1-.1-.2-.1-.2-.3-.4-.4-.5l-34.8-39.8c-.2-.2-.3-.4-.5-.6-.1-.1-.2-.3-.3-.4-.2-.3-.4-.5-.6-.8-.1-.1-.1-.2-.2-.3-.1-.2-.3-.4-.4-.6-.2-.3-.3-.5-.5-.8 0-.1-.1-.1-.1-.2-2.9-5.3-3.2-11.4-3.2-19.1 0-.3 0-.6-.1-.8-.1-.6-.1-1.5 0-2.5 0-.7.1-1.4.1-2.2v-63.1c0-1.6-.8-3.2-2.1-4.1-1.3-.9-3-1.2-4.6-.6l-25.8 9.3c-1 .4-1.9 1.1-2.5 2l-18.7 28.9c-3.5 5.4-8.9 9.2-15.2 10.5-6.4 1.4-13 .2-18.5-3.4-5.4-3.5-9.2-8.9-10.5-15.2-1.4-6.4-.2-13 3.3-18.5l23.1-35.8c2-3.2 4.7-5.7 7.9-7.6.3-.1.5-.3.7-.5 2.1-1.8 4.5-3.1 7.1-4l56.3-20.2 24.4-6.2c6.2.1 11.8 2.6 16 6.5.1.1.1.2.2.3 4.9 4.7 7.6 11 7.6 17.6v101.9c0 1.2.4 2.4 1.2 3.3l32.9 37.6zM294 174.9c0-.3-.1-.5-.1-.8 0-.2-.1-.5-.1-.7l71.2 46.1c11.3 7.3 14.5 22.4 7.3 33.7-7.3 11.2-22.4 14.4-33.7 7.2l-44.3-28.5V180v-1.7-.6c0-.4 0-.7-.1-1.1 0-.2-.1-.5-.1-.7 0-.3-.1-.6-.1-1z"/></symbol><symbol viewBox="0 0 15 18" id="pinterest-icon" xmlns="http://www.w3.org/2000/svg"><path d="M134.434.538c-4.85 0-7.296 3.478-7.296 6.378 0 1.755.664 3.318 2.09 3.9.234.095.443.003.511-.256.047-.179.159-.63.209-.82.068-.255.042-.345-.147-.568-.411-.485-.674-1.113-.674-2.002 0-2.58 1.93-4.89 5.027-4.89 2.741 0 4.247 1.675 4.247 3.912 0 2.944-1.302 5.429-3.236 5.429-1.068 0-1.868-.884-1.612-1.967.307-1.293.902-2.69.902-3.623 0-.835-.449-1.532-1.377-1.532-1.092 0-1.97 1.13-1.97 2.642 0 .964.327 1.616.327 1.616l-1.314 5.563c-.39 1.65-.058 3.675-.03 3.88.016.12.172.15.242.058.101-.132 1.401-1.737 1.844-3.341.125-.454.718-2.806.718-2.806.354.676 1.391 1.272 2.494 1.272 3.281 0 5.508-2.992 5.508-6.997 0-3.028-2.565-5.848-6.463-5.848z"/></symbol><symbol viewBox="0 0 82 72" id="poi-icon" xmlns="http://www.w3.org/2000/svg"><g transform="translate(2.274 2.224)" fill="none" fill-rule="evenodd"><use fill="#000" filter="url(#b)"/><use fill="#FFF"/><path d="M20.5 15.3c-1.4 0-2.6 1.2-2.6 2.6v22.9c0 1.4 1.2 2.6 2.6 2.6h11l.3.5c1.5 2.8 2.8 4.9 3.8 6.2.9 1.2 1.6 1.7 1.9 1.7.3 0 1-.6 1.9-1.7 1.1-1.4 2.4-3.5 3.9-6.2l.3-.5h10.9c1.4 0 2.6-1.2 2.6-2.6V17.9c0-1.4-1.2-2.6-2.6-2.6H20.4z" stroke="#007DC3" stroke-width="2"/><path d="M31.047 30.766v3.4l6 3.2 6-3.2v-3.4l-6 3.2-6-3.2zm6-8.6l-9.4 5.1 9.4 5.1 7.7-4.2v5.9h1.7v-6.8l-9.4-5.1z" fill="#007DC3"/></g></symbol><symbol viewBox="0 0 512 512" id="quiet-icon" xmlns="http://www.w3.org/2000/svg"><path d="M290.3 201.9c25.5 6.8 43.3 30 43.3 56.5 0 11.5-3.4 22.4-9.4 31.6l8.6 8.7c8.1-11.6 12.8-25.6 12.8-40.3 0-31.9-21.5-59.9-52.2-68.1-3.2-.9-6.5 1.1-7.3 4.3-.9 3.2 1 6.4 4.2 7.3z"/><path d="M305.8 152.6c44.2 16.2 73.8 58.8 73.8 105.8 0 23.3-7.1 45.7-20.4 64.7l-.9 1.2 8.6 8.6c.7-1 1.4-1.9 2.1-2.9 14.8-21 22.6-45.8 22.6-71.6 0-52.1-32.8-99.1-81.7-117.1-3.1-1.1-6.6.5-7.7 3.6-1.1 3.1.5 6.5 3.6 7.7zM320.8 357.4c-4.4 2.4-9 4.6-13.8 6.4-3.1 1.2-4.7 4.6-3.5 7.7.9 2.4 3.2 3.9 5.6 3.9.7 0 1.4-.1 2.1-.4 6.4-2.4 12.5-5.4 18.3-8.8l-8.7-8.8z"/><path d="M319.2 113.4c65.6 17.4 111.4 77.1 111.4 145 0 37.8-14.3 73.1-38.3 100l8.5 8.6c2.8-3.1 5.5-6.3 8-9.6 22.1-28.6 33.7-62.8 33.7-99 0-73.4-49.5-137.8-120.3-156.6-3.2-.8-6.5 1.1-7.3 4.3-.8 3.1 1.1 6.4 4.3 7.3zM353 389.8c-10.1 5.6-21 10.1-32.5 13.3-3.2.9-5.1 4.2-4.2 7.4.7 2.7 3.1 4.4 5.8 4.4.5 0 1.1-.1 1.6-.2 13.3-3.7 26.1-9.1 38-16l-8.7-8.9z"/><g><path d="M266 302.4v122.9l-107-96.7V195l-18.7-18.8h-26.7c-24.2 0-43.9 19.7-43.9 43.9v73.6c0 24.2 19.7 43.9 43.9 43.9H151l117 105.8c1.1 1 2.6 1.5 4 1.5.8 0 1.7-.2 2.4-.5 2.2-1 3.6-3.1 3.6-5.5V314.5l-12-12.1zm-119 23.1h-33.4c-17.6 0-31.9-14.3-31.9-31.9V220c0-17.6 14.3-31.9 31.9-31.9H147v137.4zM191.4 156.6L266 91.5v140l12 12.1V78.3c0-2.4-1.4-4.5-3.5-5.5s-4.7-.6-6.4.9L183 147.9l8.4 8.7z"/></g><path d="M417 428.7c-2.6 0-5.1-1-7.1-2.9L79.8 94.1c-3.9-3.9-3.9-10.2 0-14.1s10.2-3.9 14.1 0L424 411.7c3.9 3.9 3.9 10.2 0 14.1-1.9 2-4.4 2.9-7 2.9z"/></symbol><symbol viewBox="0 0 56 73" id="remax-balloon" xmlns="http://www.w3.org/2000/svg"><defs><path id="ava" d="M28.366.08H0v71.967h56.732V.08H28.366h28.366v71.973H0V.08z"/><path d="M2.16 33.504l.004-.007C.458 29.075-1.058 21.482 1.062 14.284l.09.103.002-.375S7.136 2.363 21.31.003c-1.274 7.263-5.677 37.436 4.487 59.548l-1.74-.006h-.04l-.235-.228a272.579 272.579 0 0 1-3.402-3.383c-3.41-3.427-7.831-8.071-11.504-12.48-3.08-3.676-5.598-7.13-6.551-9.525-.083-.209-.084-.202-.166-.425z" id="avc"/><path d="M4.577.003c14.174 2.36 20.156 14.009 20.156 14.009l.002.375.09-.103c2.12 7.198.603 14.79-1.103 19.213l.005.007c-.081.223-.082.216-.165.425-.953 2.395-3.472 5.85-6.55 9.526-3.674 4.408-8.095 9.052-11.505 12.479a270.237 270.237 0 0 1-3.636 3.61h-.04l-1.741.007C10.254 37.44 5.85 7.266 4.577.003z" id="ave"/><path d="M13.474 30.641c4.056-10.104.476-25.316-.983-30.583 7.006 4.263 10.1 10.285 10.1 10.285l.092.272c2.12 7.198.603 14.79-1.103 19.213-.1.281-.145.366-.144.368-.035.096-.028.083-.014.053l-.075.183-.073.174c-1.047 2.376-3.47 5.676-6.405 9.18a134.09 134.09 0 0 1-2.021 2.366c-4.44 5.04-9.541 10.18-12.806 13.353C1.62 53.125 9.048 41.67 13.474 30.64z" id="avg"/><path d="M2.202 29.835l.005-.007C.5 25.406-1.016 17.813 1.104 10.615l.092-.272S4.29 4.321 11.296.058c-1.458 5.267-5.038 20.48-.983 30.583C14.754 41.707 22.217 53.2 23.76 55.528 20.753 52.605 16.173 48 11.99 43.342a142.568 142.568 0 0 1-3.072-3.556c-3.079-3.677-5.597-7.13-6.55-9.526-.084-.209-.084-.202-.166-.425z" id="avi"/></defs><g fill="none" fill-rule="evenodd"><g><mask id="avb" fill="#fff"><use xlink:href="#ava"/></mask><path d="M25.031 65.206a.877.877 0 0 1-.612-.247l-3.008-2.956a287.99 287.99 0 0 1-3.258-3.303l-.446-.46-.4-.416-.402-.419-.404-.422-.404-.426-.405-.427-.407-.433-.404-.431-.405-.435-.406-.437-.4-.434-.396-.432-.396-.434-.381-.421-.353-.392c-5.312-5.917-8.58-10.346-9.714-13.164l-.052-.129c-.04-.098-.06-.144-.124-.317a1.062 1.062 0 0 1-.013-.039c0-.003-.031-.084-.05-.137a.885.885 0 0 1-.034-.107C1.16 35.77.451 32.685.16 29.705c-.384-3.923-.076-7.618.915-10.982a.721.721 0 0 1 .01-.033l.055-.162c.476-1.66 1.205-3.353 2.165-5.031 1.88-3.229 3.938-5.274 5.333-6.42 1.312-1.078 2.632-1.845 3.531-2.05a.22.22 0 0 0 .1-.052c3.208-2.923 6.923-3.36 8.852-3.36a11.73 11.73 0 0 1 .97.039.22.22 0 0 0 .128-.04C24.176.228 26.945.08 28.045.08a11.03 11.03 0 0 1 .325.004c.079-.002.184-.004.313-.004 1.1 0 3.87.15 5.826 1.533a.22.22 0 0 0 .145.04c.3-.025.621-.037.953-.037 1.93 0 5.65.437 8.858 3.364a.221.221 0 0 0 .098.052c.928.22 2.214.966 3.527 2.045 1.395 1.146 3.452 3.19 5.33 6.414.98 1.714 1.715 3.414 2.184 5.052l.027.095.028.086c.024.08.046.162.069.243l.049.178a13.4 13.4 0 0 1 .138.525l.02.082a20.89 20.89 0 0 1 .119.496l.016.073a25.14 25.14 0 0 1 .241 1.202l.006.034c.233 1.342.37 2.737.405 4.147v.016c.006.228.009.444.01.647.025 5.733-1.526 10.387-2.194 12.122l-.068.185c-.064.172-.083.218-.121.312l-.052.126c-.02.053-.041.1-.062.149l-.065.155a23.453 23.453 0 0 1-.205.443l-.077.159-.107.21-.04.077c-.182.35-.391.722-.62 1.105l-.006.009c-1.54 2.566-4.193 5.976-7.885 10.136l-.017.018-.414.465-.013.015-.411.457-.013.014-.415.46-.016.017-.414.455-.023.025-.408.445-.017.02-.414.448-.026.028c-.135.147-.274.296-.412.444l-.015.016a209.005 209.005 0 0 1-.853.912l-.445.473-.43.453a281.46 281.46 0 0 1-8.167 8.239.876.876 0 0 1-.613.247h-6.663M26.529 72.053a.587.587 0 0 1-.566-.43l-.945-3.384a.602.602 0 0 1-.502-.592v-.421c0-.331.27-.6.601-.6h6.625c.331 0 .6.269.6.6v.42a.602.602 0 0 1-.514.595l-.944 3.382a.587.587 0 0 1-.566.43h-3.79" fill="#FFFFFE" mask="url(#avb)"/></g><path d="M35.527 71.567c-1.292 0-2.305-1.004-2.305-2.287 0-1.256 1.034-2.278 2.305-2.278a2.287 2.287 0 0 1 2.296 2.278 2.267 2.267 0 0 1-2.296 2.287" fill="#FFFFFE"/><g fill="#FFFFFE"><path d="M35.536 67.222c1.152 0 2.067.916 2.067 2.058a2.05 2.05 0 0 1-2.076 2.067 2.064 2.064 0 0 1-2.085-2.067c0-1.142.935-2.058 2.085-2.058h.01M3.077 38.192c.082.223.083.216.166.425.953 2.395 3.472 5.85 6.55 9.526 3.674 4.408 8.095 9.052 11.505 12.479a272.993 272.993 0 0 0 3.405 3.386l.013.013.22.212h.038l3.293.012h.005l3.127.011.206.001c5.352-5.134 16.637-16.481 20.754-23.291a20.716 20.716 0 0 0 .74-1.341 15.147 15.147 0 0 0 .216-.456l.047-.105a10.404 10.404 0 0 0 .144-.344l.066-.165c.038-.113.063-.2.058-.204 1.765-4.489 3.357-12.245 1.129-19.558.004.005-5.35-14.499-26.283-14.499C9.792 3.661 2.072 18.7 2.072 18.7l-.002.376-.09-.104c-2.12 7.198-.603 14.79 1.102 19.213 0 .002-.003.005-.005.007"/></g><g transform="translate(.918 4.688)"><mask id="avd" fill="#fff"><use xlink:href="#avc"/></mask><path mask="url(#avd)" d="M-.918 67.359h56.732V-4.608H-.918z"/></g><g transform="translate(29.886 4.688)"><mask id="avf" fill="#fff"><use xlink:href="#ave"/></mask><path mask="url(#avf)" d="M-29.886 67.359h56.732V-4.608h-56.732z"/></g><g transform="translate(32.13 8.357)"><mask id="avh" fill="#fff"><use xlink:href="#avg"/></mask><path mask="url(#avh)" d="M-32.13 63.69h56.732V-8.277H-32.13z"/></g><g transform="translate(.816 8.357)"><mask id="avj" fill="#fff"><use xlink:href="#avi"/></mask><path mask="url(#avj)" d="M-.816 63.69h56.732V-8.277H-.816z"/></g><path d="M28.364.965c-.65-.02-3.99-.044-5.952 1.611 0 0-5.46-.89-9.79 3.275-1.03-.007-5.231 2.38-8.552 8.083-.901 1.575-1.617 3.204-2.09 4.861.656-.867 3.175-4.311 8.504-3.828.372-.29 3.696-3.901 10.592-2.647.94-.985 4.403-2.037 7.288-2.073 2.885.036 6.347 1.088 7.288 2.073 6.896-1.254 10.22 2.357 10.592 2.647 5.329-.483 7.859 2.958 8.515 3.826-.474-1.658-1.2-3.284-2.1-4.86-3.322-5.702-7.522-8.09-8.553-8.082-4.33-4.164-9.79-3.275-9.79-3.275C32.354.921 29.013.944 28.364.966" fill="#CB2432"/><path d="M22.412 2.576s-5.46-.89-9.79 3.275c-1.03-.007-5.231 2.38-8.552 8.083-.901 1.575-1.617 3.204-2.09 4.861.656-.867 3.175-4.311 8.504-3.828.37-.29 3.684-3.888 10.555-2.653.658-5.531 1.373-9.738 1.373-9.738" fill="#B3222E"/><path d="M10.484 14.967l.01-.008c.993-5.177 2.128-9.108 2.128-9.108-1.03-.007-5.231 2.38-8.552 8.083-.901 1.575-1.617 3.204-2.09 4.861.656-.867 3.175-4.311 8.504-3.828" fill="#901C26"/><path d="M34.316 2.576s5.46-.89 9.79 3.275c1.03-.007 5.231 2.38 8.552 8.083.901 1.575 1.627 3.201 2.1 4.859-.655-.868-3.185-4.31-8.514-3.826-.371-.29-3.684-3.888-10.555-2.653-.658-5.531-1.373-9.738-1.373-9.738" fill="#B3222E"/><path d="M46.244 14.967l-.01-.008c-.993-5.177-2.128-9.108-2.128-9.108 1.03-.007 5.231 2.38 8.552 8.083.901 1.575 1.627 3.201 2.1 4.859-.655-.868-3.185-4.31-8.514-3.826" fill="#901C26"/><path fill="#343534" d="M28.455 67.504h-3.043l.038.097 1.079 3.865h1.926v-3.962"/><path fill="#595A59" d="M28.391 67.504h3.043l-.037.097-1.079 3.865h-1.927v-3.962"/><path d="M31.742 67.655h-6.625a.014.014 0 0 1-.013-.013v-.416c0-.007.006-.014.013-.014h6.625c.007 0 .014.007.014.014v.416a.014.014 0 0 1-.014.013" fill="#595A59"/><path fill="#343534" d="M31.349 67.875l.031-.215h-5.917l.039.215h5.847"/><path d="M46.662 35.319c-.081 0-3.448-3.519-10.162-2.905-.37-.224-2.86-1.54-8.137-1.823-4.859.101-7.767 1.6-8.137 1.823-6.714-.614-10.082 2.905-10.162 2.905-4.033-.111-6.743 2.715-6.983 3.045.082.223.083.217.167.425C5.77 45.063 19.082 58.576 25.03 64.326h6.663c5.95-5.75 19.26-19.263 21.784-25.537.083-.208.084-.202.167-.425-.24-.33-2.95-3.156-6.983-3.045" fill="#0F4584"/><path d="M36.5 32.414c6.714-.614 10.08 2.905 10.162 2.905 4.033-.111 6.743 2.715 6.983 3.045-.083.223-.084.217-.167.425-2.524 6.274-15.834 19.787-21.784 25.537h-1.83c4.628-9.929 6.305-21.51 6.635-31.912" fill="#0E396E"/><path d="M46.661 35.318c4.034-.11 6.744 2.716 6.984 3.046-.083.223-.084.217-.167.425-2.524 6.274-15.834 19.787-21.784 25.537 0 0 8.809-12.895 13.826-25.265.48-1.185.855-2.44 1.141-3.743" fill="#0A2C59"/><path d="M20.226 32.414c-6.714-.614-10.082 2.905-10.162 2.905-4.033-.111-6.743 2.715-6.983 3.045.082.223.083.217.167.425C5.77 45.063 19.082 58.576 25.03 64.326h1.83c-4.628-9.929-6.304-21.51-6.635-31.912" fill="#0E396E"/><path d="M10.064 35.318c-4.033-.11-6.743 2.716-6.983 3.046.082.223.083.217.167.425C5.77 45.063 19.082 58.576 25.03 64.326c0 0-8.808-12.895-13.825-25.265a23.229 23.229 0 0 1-1.142-3.743" fill="#0A2C59"/><path d="M11.972 22.8v.01c.03.68-.407 1.225-1.164 1.48-.453.152-.68.23-1.13.393l-.11-2.179c.44-.159.66-.236 1.103-.385.817-.275 1.27-.03 1.3.68zm1.67-.525c0-.017 0-.025-.002-.042-.029-.727-.282-1.269-.733-1.56-.51-.329-1.258-.358-2.15-.06-.977.324-1.948.678-2.903 1.058l.412 7.483c.64-.254.961-.375 1.607-.608l-.123-2.442c.373-.134.56-.2.934-.328.606.788.908 1.186 1.51 1.991a46.459 46.459 0 0 1 1.877-.549 166.847 166.847 0 0 0-1.752-2.31c.833-.625 1.37-1.572 1.323-2.633zM39.233 23.174c-.647-.123-.971-.18-1.62-.283.348-.872.523-1.307.875-2.173.3.98.45 1.472.745 2.456zm-1.47-4.81a474.985 474.985 0 0 0-2.998 7.21c.68.074 1.02.116 1.697.21.24-.618.362-.926.604-1.543 1.058.16 1.586.252 2.638.462.212.695.317 1.044.527 1.741.689.145 1.033.223 1.718.39a514.267 514.267 0 0 0-2.579-8.188 47.186 47.186 0 0 0-1.607-.282zM47.188 24.488c.782-.959 1.574-1.91 2.377-2.85a47.639 47.639 0 0 0-1.827-.684c-.569.765-.853 1.152-1.419 1.933-.39-.931-.784-1.86-1.184-2.786-.76-.229-1.143-.337-1.909-.539a253.46 253.46 0 0 1 2.056 4.325 180.87 180.87 0 0 0-2.44 3.173c.734.192 1.1.294 1.829.512.596-.844.895-1.261 1.494-2.088.42.991.835 1.985 1.243 2.982.736.261 1.103.4 1.832.688a258.336 258.336 0 0 0-2.052-4.666M17.48 24.931l-.047-1.604a50.919 50.919 0 0 1 3.017-.536l-.032-1.462a51.062 51.062 0 0 0-3.029.537l-.046-1.55a86.577 86.577 0 0 1 3.46-.602c-.013-.585-.019-.877-.03-1.463a72.585 72.585 0 0 0-5.157.977l.259 7.53a50.447 50.447 0 0 1 3.127-.65c.29-.638.436-.957.73-1.592-.903.148-1.354.23-2.251.415M31.72 17.766c-.59.79-1.173 1.585-1.75 2.385a164.702 164.702 0 0 0-1.757-2.46h-.02a267.161 267.161 0 0 0-1.751 3.34l.026 4.265c.658-.027.987-.036 1.646-.044l-.008-4.681c.605.77 1.204 1.546 1.794 2.328l.01.016.071.001c.602-.768 1.212-1.531 1.83-2.287-.014 1.567-.026 3.134-.039 4.702.663.036.994.059 1.655.114l.094-7.556c-.72-.06-1.08-.085-1.8-.123" fill="#0F4584"/><path d="M22.585 25.591a320.074 320.074 0 0 1 3.96-7.91c-.839.032-1.258.056-2.094.12a325.304 325.304 0 0 0-3.907 8.056 46.438 46.438 0 0 1 2.041-.266" fill="#CB2432"/><path d="M35.134 69.206h.27c.31 0 .572-.11.572-.392 0-.202-.15-.403-.571-.403-.121 0-.205.01-.271.018v.777zm0 1.272h-.373v-2.296c.195-.028.382-.055.662-.055.356 0 .59.074.73.174.141.1.216.255.216.474 0 .303-.205.487-.46.56v.018c.208.037.347.218.394.558.056.356.112.494.15.567h-.393c-.056-.073-.112-.284-.16-.586-.056-.293-.204-.402-.504-.402h-.262v.988zm.393-2.935c-.926 0-1.682.779-1.682 1.737 0 .978.756 1.748 1.691 1.748.936.007 1.683-.77 1.683-1.74 0-.966-.747-1.745-1.683-1.745h-.009zm.01-.32c1.15 0 2.066.915 2.066 2.057a2.05 2.05 0 0 1-2.076 2.067 2.064 2.064 0 0 1-2.085-2.067c0-1.142.935-2.058 2.085-2.058h.01z" fill="#595A59"/></g></symbol><symbol viewBox="0 0 167 57" id="remax-collection-logo" xmlns="http://www.w3.org/2000/svg"><defs><path id="awa" d="M0 .15h166.207v56.163H0z"/><path d="M2.401 26.74l.004-.006c-1.331-3.453-2.515-9.384-.86-15.006l.07.081.001-.293S6.285 2.418 17.345.575c-.994 5.672-4.43 29.238 3.502 46.508l-1.36-.006h-.03l-.183-.178c-.763-.745-1.666-1.64-2.655-2.642-2.66-2.677-6.11-6.303-8.977-9.746-2.403-2.87-4.368-5.57-5.111-7.44-.065-.163-.065-.157-.13-.332z" id="awc"/><path d="M3.873.575c11.06 1.843 15.728 10.94 15.728 10.94l.001.294.072-.08c1.653 5.621.47 11.552-.862 15.005l.004.005c-.063.175-.064.17-.128.332-.745 1.87-2.71 4.57-5.112 7.44-2.867 3.443-6.317 7.07-8.978 9.746a200.517 200.517 0 0 1-2.837 2.82H1.73l-1.359.006C8.302 29.813 4.867 6.247 3.873.575" id="awe"/><path d="M10.979 24.194C7.524 32.808 1.729 41.754.498 43.612c2.547-2.477 6.527-6.492 9.992-10.428.54-.618 1.068-1.236 1.577-1.848 2.29-2.736 4.181-5.314 4.998-7.17l.058-.136.057-.143c-.01.023-.016.033.012-.041-.001-.002.034-.068.113-.287 1.33-3.454 2.515-9.384.86-15.006l-.072-.213S15.68 3.637 10.213.308c1.137 4.113 3.93 15.994.766 23.886" id="awg"/><path d="M2.355 23.564c.001-.002.003-.003.003-.005-1.33-3.454-2.514-9.384-.86-15.006l.072-.213S3.984 3.637 9.452.308c-1.139 4.113-3.933 15.994-.768 23.886 3.466 8.643 9.29 17.618 10.493 19.436-2.346-2.283-5.92-5.878-9.185-9.516a114.9 114.9 0 0 1-2.396-2.778c-2.403-2.871-4.368-5.57-5.112-7.44-.064-.163-.065-.157-.129-.332z" id="awi"/></defs><g fill="none" fill-rule="evenodd"><path fill="#002E5C" d="M50.48 56.118h112.906v-1.007H50.481zM50.48 5.72h41.868V4.711H50.481zM121.519 5.72h41.867V4.711H121.52zM99.168 3.478h1.396v4.493h1.078V3.478h1.396V2.461h-3.87v1.017M107.863 4.692h-1.89V2.461h-1.076v5.51h1.077V5.709h1.89v2.262h1.077V2.46h-1.078v2.231M112.188 6.977V5.694h2.193v-.995h-2.193V3.455h2.475v-.994h-3.545v5.51h3.581v-.994h-2.511M62.371 19.928v.052c0 1.816-1.269 2.901-3.394 2.901h-3.005v-5.828h3.057c2.155 0 3.342 1.02 3.342 2.875zm3.53-.053v-.104c0-1.698-.546-3.14-1.579-4.175-1.152-1.153-2.94-1.787-5.033-1.787h-6.82v18.684h3.503v-6.42h2.667c.018 0 .037 0 .06-.002l3.856 6.422h4.057L62.25 25.33c2.356-.938 3.651-2.87 3.651-5.454zM135.076 25.038h-4.505l2.252-6.33 2.253 6.33zm-.574-11.333h-3.253l-6.858 18.788h3.563l1.508-4.29h6.724l1.507 4.29h3.667l-6.8-18.627-.058-.161zM155.639 22.942l5.5-9.133h-3.927l-3.599 6.3-3.55-6.3h-4.004l5.474 9.16-5.709 9.524h3.926l3.809-6.69 3.738 6.565.07.125h4.032l-5.76-9.55M87.415 32.308l-.105.199h3.89l9.732-18.431.104-.198h-3.892l-9.73 18.43M111.025 21.922l-4.368-7.815-.219-.395-3.451 6.537-.03 12.244h3.427V20.35l4.353 7.577.071.12h.358l4.45-7.75v12.196h3.478V13.81h-3.56l-4.51 8.113M72.893 32.493h8.726l1.699-3.218h-6.947v-4.58h7.511v-3.219h-7.51v-4.449h8.473v-3.218H72.893v18.684M52.469 42.946v-.091c0-2.769 1.723-4.661 4.086-4.661 1.28 0 2.127.457 2.872 1.136l-.914 1.16c-.535-.495-1.136-.887-1.958-.887-1.437 0-2.52 1.306-2.52 3.252v.051c0 1.985 1.083 3.277 2.52 3.277.874 0 1.449-.405 2.023-.952l.888 1.07c-.796.823-1.723 1.292-2.99 1.292-2.336 0-4.007-1.853-4.007-4.647M70.692 42.946v-.091c0-1.958-1.044-3.278-2.493-3.278-1.436 0-2.468 1.293-2.468 3.264v.092c0 1.958 1.058 3.276 2.494 3.276 1.436 0 2.467-1.292 2.467-3.263zm-6.528.026v-.13c0-2.716 1.671-4.662 4.06-4.662 2.377 0 4.035 1.933 4.035 4.635v.131c0 2.716-1.671 4.66-4.06 4.66-2.376 0-4.035-1.932-4.035-4.634zM77.818 38.325h1.514v7.742h3.917v1.396h-5.431v-9.138M88.548 38.325h1.514v7.742h3.917v1.396h-5.431v-9.138M99.277 38.325h5.758v1.37h-4.257v2.48h3.773v1.371h-3.773v2.546h4.323v1.37h-5.824v-9.137M110.23 42.946v-.091c0-2.769 1.722-4.661 4.086-4.661 1.279 0 2.128.457 2.872 1.136l-.914 1.16c-.536-.495-1.136-.887-1.958-.887-1.437 0-2.52 1.306-2.52 3.252v.051c0 1.985 1.083 3.277 2.52 3.277.875 0 1.449-.405 2.023-.952l.888 1.07c-.796.823-1.724 1.292-2.99 1.292-2.337 0-4.008-1.853-4.008-4.647M124.366 39.734h-2.402v-1.41h6.32v1.41h-2.403v7.729h-1.515v-7.73M133.699 47.464h1.515v-9.14h-1.515zM147.367 42.946v-.091c0-1.958-1.045-3.278-2.494-3.278-1.436 0-2.467 1.293-2.467 3.264v.092c0 1.958 1.057 3.276 2.493 3.276s2.468-1.292 2.468-3.263zm-6.528.026v-.13c0-2.716 1.672-4.662 4.06-4.662 2.376 0 4.035 1.933 4.035 4.635v.131c0 2.716-1.671 4.66-4.06 4.66-2.377 0-4.035-1.932-4.035-4.634zM154.493 38.325h1.41l4.02 6.096v-6.096h1.476v9.138h-1.28l-4.138-6.28v6.28h-1.488v-9.138"/><g><mask id="awb" fill="#fff"><use xlink:href="#awa"/></mask><path d="M164.287 39.774h.21c.241 0 .444-.086.444-.305 0-.157-.116-.314-.443-.314a1.58 1.58 0 0 0-.21.014v.605zm0 .99h-.29v-1.786c.152-.022.297-.044.515-.044.277 0 .459.058.567.136.11.079.168.198.168.37 0 .235-.159.378-.356.434v.014c.16.029.269.17.305.434.044.278.087.386.117.442h-.307c-.042-.056-.086-.22-.123-.456-.044-.227-.158-.313-.392-.313h-.204v.769zm.306-2.284c-.72 0-1.308.606-1.308 1.352 0 .76.588 1.36 1.315 1.36.728.005 1.308-.6 1.308-1.354 0-.752-.58-1.358-1.308-1.358h-.007zm.007-.25c.895 0 1.607.713 1.607 1.602 0 .903-.712 1.608-1.614 1.608-.895 0-1.621-.705-1.621-1.608 0-.889.726-1.602 1.62-1.602h.008z" fill="#FFF" mask="url(#awb)"/><path d="M19.533 51.013a.683.683 0 0 1-.478-.193l-2.348-2.309c-.854-.853-1.709-1.72-2.54-2.58l-.35-.359-.312-.325-.314-.327-.315-.33-.63-.666-.318-.337-.315-.338-.317-.34-.317-.34-.311-.339-.31-.338a111.623 111.623 0 0 1-.882-.974c-4.145-4.62-6.695-8.08-7.58-10.281l-.04-.101a9.016 9.016 0 0 1-.097-.247l-.01-.03-.04-.107a.693.693 0 0 1-.026-.084C.905 28.023.352 25.614.125 23.286c-.3-3.064-.06-5.95.713-8.576l.009-.027.042-.126c.372-1.297.94-2.619 1.69-3.93C4.045 8.105 5.651 6.51 6.74 5.613c1.024-.841 2.054-1.44 2.756-1.6a.17.17 0 0 0 .077-.042c2.504-2.282 5.404-2.622 6.909-2.622a9.255 9.255 0 0 1 .757.029c.036 0 .07-.011.1-.032C18.864.266 21.025.148 21.883.148c.101 0 .184.002.245.004h.01c.06-.002.143-.004.244-.004.858 0 3.019.117 4.545 1.198.03.02.064.032.1.032h.014c.235-.02.485-.03.743-.03 1.507 0 4.408.342 6.913 2.628.021.02.047.033.075.04.726.172 1.728.755 2.753 1.598 1.088.895 2.694 2.49 4.159 5.009.765 1.338 1.339 2.667 1.704 3.946l.022.073a13.224 13.224 0 0 1 .075.257l.038.14c.014.046.026.092.038.138.025.09.048.181.07.272l.017.063.06.243c.01.049.02.096.032.145l.012.057a15.472 15.472 0 0 1 .189.939l.004.026a22.43 22.43 0 0 1 .316 3.24v.012c.004.178.007.347.007.505.02 4.477-1.19 8.113-1.711 9.468l-.053.144c-.05.134-.065.17-.095.244l-.04.099-.049.115-.051.122-.038.084a7.36 7.36 0 0 1-.069.15l-.052.112-.061.124a6.425 6.425 0 0 1-.083.163l-.031.06a16.22 16.22 0 0 1-.485.864l-.004.007c-1.201 2.004-3.272 4.668-6.153 7.915l-.013.016-.323.362-.01.012-.32.357-.01.01-.325.36-.012.013-.323.356-.018.02c-.103.112-.21.23-.319.346l-.013.016-.323.35-.02.023-.322.346-.011.013-.327.35-.339.361-.348.37-.335.354a221.235 221.235 0 0 1-6.373 6.435.686.686 0 0 1-.478.193h-5.199M20.7 56.36a.459.459 0 0 1-.44-.335l-.738-2.644a.47.47 0 0 1-.391-.462v-.329a.47.47 0 0 1 .469-.468h5.169c.259 0 .47.21.47.468v.329a.47.47 0 0 1-.403.464l-.736 2.642a.459.459 0 0 1-.442.335h-2.957" fill="#FFFFFE" mask="url(#awb)"/></g><path d="M27.723 55.98c-1.008 0-1.8-.784-1.8-1.785 0-.982.808-1.78 1.8-1.78.991 0 1.791.798 1.791 1.78a1.77 1.77 0 0 1-1.79 1.785" fill="#FFFFFE"/><g fill="#FFFFFE"><path d="M27.73 52.587c.898 0 1.613.715 1.613 1.608a1.6 1.6 0 0 1-1.62 1.614 1.611 1.611 0 0 1-1.627-1.614c0-.893.729-1.608 1.627-1.608h.007M2.401 29.914c.065.175.065.17.13.332.743 1.871 2.708 4.57 5.11 7.44 2.868 3.443 6.317 7.07 8.978 9.746.99 1.003 1.894 1.9 2.658 2.645l.01.01.17.165h.03l2.57.01h.005l2.44.009h.16c4.177-4.01 12.982-12.871 16.196-18.19.173-.29.33-.567.468-.835l.044-.082.065-.13a7.199 7.199 0 0 0 .105-.22c.023-.046.043-.092.063-.136l.037-.083c.031-.072.062-.144.09-.215a5.301 5.301 0 0 0 .073-.183c.03-.087.05-.155.047-.159 1.376-3.505 2.619-9.563.88-15.274.003.004-4.174-11.324-20.51-11.324C7.642 2.945 1.617 14.69 1.617 14.69v.295l-.071-.081c-1.655 5.621-.471 11.552.86 15.006l-.004.004"/></g><g transform="translate(0 3.175)"><mask id="awd" fill="#fff"><use xlink:href="#awc"/></mask><path mask="url(#awd)" d="M0 53.138h166.207V-3.026H0z"/></g><g transform="translate(23.02 3.175)"><mask id="awf" fill="#fff"><use xlink:href="#awe"/></mask><path d="M3.873.575c11.06 1.843 15.728 10.94 15.728 10.94l.001.294.072-.08c1.653 5.621.47 11.552-.862 15.005l.004.005c-.063.175-.064.17-.128.332-.745 1.87-2.71 4.57-5.112 7.44-2.867 3.443-6.317 7.07-8.978 9.746a200.517 200.517 0 0 1-2.837 2.82H1.73l-1.359.006C8.302 29.813 4.867 6.247 3.873.575" mask="url(#awf)"/></g><g transform="translate(24.608 6.35)"><mask id="awh" fill="#fff"><use xlink:href="#awg"/></mask><path d="M10.979 24.194C7.524 32.808 1.729 41.754.498 43.612c2.547-2.477 6.527-6.492 9.992-10.428.54-.618 1.068-1.236 1.577-1.848 2.29-2.736 4.181-5.314 4.998-7.17l.058-.136.057-.143c-.01.023-.016.033.012-.041-.001-.002.034-.068.113-.287 1.33-3.454 2.515-9.384.86-15.006l-.072-.213S15.68 3.637 10.213.308c1.137 4.113 3.93 15.994.766 23.886" mask="url(#awh)"/></g><g transform="translate(0 6.35)"><mask id="awj" fill="#fff"><use xlink:href="#awi"/></mask><path mask="url(#awj)" d="M0 49.963h166.207V-6.201H0z"/></g><path d="M22.134.84c-.508-.016-3.114-.034-4.645 1.258 0 0-4.262-.695-7.64 2.558-.804-.006-4.082 1.859-6.673 6.313-.703 1.23-1.261 2.503-1.631 3.796.512-.677 2.478-3.367 6.636-2.99.29-.225 2.884-3.046 8.265-2.067.734-.768 3.436-1.59 5.688-1.618 2.25.027 4.952.85 5.686 1.618 5.381-.98 7.976 1.842 8.265 2.067 4.16-.377 6.133 2.311 6.645 2.989-.37-1.295-.936-2.565-1.64-3.795-2.59-4.454-5.87-6.319-6.672-6.313-3.379-3.253-7.64-2.558-7.64-2.558C25.247.806 22.64.824 22.134.84" fill="#DC1C2E"/><path d="M17.489 2.098s-4.262-.695-7.64 2.558c-.804-.006-4.082 1.859-6.673 6.313-.703 1.23-1.261 2.503-1.631 3.796.512-.677 2.478-3.367 6.636-2.99.29-.225 2.875-3.036 8.236-2.072.514-4.32 1.072-7.605 1.072-7.605" fill="#C61828"/><path d="M8.18 11.775a.056.056 0 0 0 .009-.006 88.801 88.801 0 0 1 1.66-7.113c-.804-.006-4.082 1.859-6.673 6.313-.703 1.23-1.261 2.503-1.631 3.796.512-.677 2.478-3.367 6.636-2.99" fill="#A51220"/><path d="M26.778 2.098s4.261-.695 7.64 2.558c.803-.006 4.081 1.859 6.672 6.313.704 1.23 1.27 2.5 1.64 3.795-.512-.678-2.486-3.366-6.645-2.989-.289-.225-2.874-3.036-8.236-2.072-.513-4.32-1.071-7.605-1.071-7.605" fill="#C61828"/><path d="M36.085 11.775a.056.056 0 0 1-.008-.006c-.774-4.043-1.66-7.113-1.66-7.113.804-.006 4.082 1.859 6.673 6.313.704 1.23 1.27 2.5 1.64 3.795-.512-.678-2.486-3.366-6.645-2.989" fill="#A51220"/><path fill="#414042" d="M22.204 52.808H19.83l.03.074.84 3.019h1.504v-3.093"/><path fill="#636466" d="M22.154 52.808h2.375l-.03.074-.84 3.019h-1.505v-3.093"/><path d="M24.769 52.93h-5.17c-.005 0-.01-.005-.01-.011v-.329a.01.01 0 0 1 .01-.01h5.17c.006 0 .011.004.011.01v.329a.01.01 0 0 1-.011.01" fill="#636466"/><path fill="#414042" d="M24.463 53.016l.024-.086H19.87l.03.086h4.563"/><path d="M36.412 27.67c-.064 0-2.691-2.747-7.93-2.268-.289-.175-2.232-1.202-6.35-1.424-3.79.08-6.06 1.249-6.349 1.424-5.239-.48-7.867 2.268-7.93 2.268-3.147-.086-5.262 2.121-5.449 2.38.065.173.065.168.13.33 1.97 4.901 12.356 15.455 16.999 19.945h5.199c4.643-4.49 15.029-15.044 16.999-19.945.065-.162.065-.157.13-.33-.188-.259-2.303-2.466-5.45-2.38" fill="#003DA5"/><path d="M28.482 25.402c5.239-.48 7.866 2.268 7.93 2.268 3.146-.086 5.26 2.121 5.449 2.38-.065.173-.065.168-.13.33-1.97 4.901-12.356 15.455-17 19.945h-1.427c3.611-7.754 4.92-16.799 5.178-24.923" fill="#004185"/><path d="M36.412 27.67c3.146-.086 5.26 2.121 5.449 2.38-.065.173-.065.168-.13.33-1.97 4.901-12.356 15.455-17 19.945 0 0 6.874-10.071 10.79-19.733.375-.925.667-1.905.89-2.922" fill="#003471"/><path d="M15.783 25.402c-5.239-.48-7.867 2.268-7.93 2.268-3.147-.086-5.262 2.121-5.449 2.38.065.173.065.168.13.33 1.97 4.901 12.356 15.455 16.999 19.945h1.428c-3.612-7.754-4.92-16.799-5.178-24.923" fill="#004185"/><path d="M7.853 27.67c-3.147-.086-5.262 2.121-5.449 2.38.065.173.065.168.13.33 1.97 4.901 12.356 15.455 16.999 19.945 0 0-6.873-10.071-10.79-19.733a18.207 18.207 0 0 1-.89-2.922" fill="#003471"/><path d="M9.342 17.893v.009c.024.53-.317.956-.908 1.155-.354.119-.53.18-.882.307l-.086-1.702c.343-.124.516-.184.862-.3.637-.216.99-.024 1.014.531zm1.303-.41v-.033c-.023-.567-.22-.99-.573-1.218-.399-.257-.982-.279-1.678-.046-.762.252-1.52.529-2.265.826l.32 5.843c.5-.198.752-.292 1.256-.474-.04-.763-.058-1.144-.096-1.907.29-.105.436-.157.728-.256.473.614.708.926 1.178 1.555a34.28 34.28 0 0 1 1.466-.429c-.451-.605-.907-1.207-1.368-1.805.65-.488 1.068-1.228 1.032-2.056zM30.614 18.186c-.504-.097-.757-.14-1.264-.222.272-.68.409-1.02.683-1.697.235.766.351 1.15.581 1.919zm-1.147-3.757a370.408 370.408 0 0 0-2.339 5.631c.531.058.796.09 1.324.164.188-.483.283-.724.472-1.205.825.124 1.237.197 2.058.36.166.544.248.815.411 1.36.538.113.807.175 1.342.305a408.864 408.864 0 0 0-2.013-6.395 37.67 37.67 0 0 0-1.255-.22zM36.822 19.212c.61-.749 1.228-1.491 1.855-2.227-.567-.223-.852-.33-1.426-.533-.444.597-.665.9-1.107 1.51a210.28 210.28 0 0 0-.924-2.176c-.594-.18-.891-.263-1.49-.421.545 1.12 1.081 2.245 1.605 3.377-.644.819-1.278 1.645-1.903 2.479.572.15.858.23 1.426.399.465-.658.698-.985 1.166-1.63.328.774.651 1.55.97 2.328.574.204.86.312 1.43.537a206 206 0 0 0-1.602-3.643M13.64 19.558l-.037-1.253a39.374 39.374 0 0 1 2.355-.418l-.025-1.143c-.79.116-1.582.257-2.364.42l-.036-1.211c.9-.175 1.794-.331 2.7-.47l-.024-1.142a56.305 56.305 0 0 0-4.023.763l.201 5.88a38.807 38.807 0 0 1 2.441-.506c.226-.5.34-.748.569-1.244a35.91 35.91 0 0 0-1.756.324M24.752 13.961c-.46.617-.915 1.239-1.365 1.863-.45-.644-.908-1.285-1.371-1.92H22c-.461.865-.917 1.735-1.367 2.608l.02 3.33c.514-.02.772-.027 1.284-.034l-.005-3.656c.472.602.939 1.208 1.4 1.819l.007.012.056.001c.47-.6.945-1.196 1.427-1.787l-.03 3.673a37 37 0 0 1 1.292.09l.073-5.903a37.83 37.83 0 0 0-1.405-.096" fill="#003DA5"/><path d="M17.624 20.073a253.133 253.133 0 0 1 3.09-6.178 37.51 37.51 0 0 0-1.635.093 256.412 256.412 0 0 0-3.047 6.293c.635-.095.954-.137 1.592-.208" fill="#DC1C2E"/><path d="M27.415 54.137h.212c.242 0 .446-.086.446-.306 0-.158-.117-.315-.446-.315-.094 0-.16.008-.212.014v.607zm0 .993h-.29v-1.793c.152-.022.298-.043.517-.043.278 0 .46.058.57.136.11.08.168.2.168.37 0 .237-.16.38-.359.437v.014c.162.029.27.171.307.436.044.278.088.386.117.443h-.306c-.044-.057-.088-.222-.125-.458-.044-.228-.16-.313-.394-.313h-.205v.771zm.308-2.292c-.723 0-1.313.608-1.313 1.357 0 .764.59 1.365 1.32 1.365.73.004 1.314-.601 1.314-1.359 0-.755-.584-1.363-1.314-1.363h-.007zm.007-.251c.898 0 1.613.715 1.613 1.608a1.6 1.6 0 0 1-1.62 1.614 1.611 1.611 0 0 1-1.627-1.614c0-.893.729-1.608 1.627-1.608h.007z" fill="#414042"/></g></symbol><symbol viewBox="0 0 100 30" id="remax-commercial-logo" xmlns="http://www.w3.org/2000/svg"><path fill="#7D868C" d="M0 29.16h96.44v-8.731H0z"/><path d="M3.051 24.808v-.013c0-1.34 1.036-2.437 2.52-2.437.912 0 1.458.296 1.906.727l-.677.76c-.372-.33-.752-.531-1.235-.531-.815 0-1.402.66-1.402 1.467v.014c0 .807.573 1.48 1.402 1.48.552 0 .89-.215 1.27-.551l.677.666c-.497.518-1.05.842-1.982.842-1.422 0-2.478-1.07-2.478-2.424M16.499 24.808v-.013c0-.808-.608-1.481-1.464-1.481s-1.45.66-1.45 1.467v.014c0 .807.608 1.48 1.464 1.48s1.45-.66 1.45-1.467zm-4.025 0v-.013c0-1.34 1.084-2.437 2.575-2.437s2.562 1.083 2.562 2.423v.014c0 1.339-1.085 2.437-2.576 2.437s-2.561-1.084-2.561-2.424zM22.778 22.438h1.146l1.271 1.993 1.27-1.993h1.146v4.712h-1.056v-3.076l-1.36 2.013h-.028l-1.346-1.993v3.056h-1.043v-4.712M34.109 22.438h1.146l1.271 1.993 1.27-1.993h1.146v4.712h-1.056v-3.076l-1.36 2.013h-.028l-1.346-1.993v3.056h-1.043v-4.712M44.984 22.438h3.645v.922H46.04v.956h2.279v.922H46.04v.99h2.624v.922h-3.68v-4.712M56.652 24.727c.518 0 .815-.27.815-.667v-.013c0-.444-.318-.673-.836-.673h-1.056v1.353h1.077zm-2.14-2.29h2.209c.614 0 1.09.17 1.409.479.269.262.414.633.414 1.077v.013c0 .761-.421 1.239-1.036 1.461l1.18 1.683h-1.242l-1.036-1.508h-.835v1.508h-1.063v-4.712zM63.61 24.808v-.013c0-1.34 1.035-2.437 2.52-2.437.911 0 1.457.296 1.906.727l-.677.76c-.373-.33-.753-.531-1.236-.531-.815 0-1.401.66-1.401 1.467v.014c0 .807.573 1.48 1.4 1.48.553 0 .892-.215 1.271-.551l.677.666c-.497.518-1.05.842-1.982.842-1.422 0-2.478-1.07-2.478-2.424M73.72 27.15h1.064v-4.712H73.72zM83.366 25.178l-.642-1.528-.642 1.528h1.284zm-1.118-2.774h.98l2.071 4.746h-1.111l-.442-1.057h-2.044l-.441 1.057h-1.084l2.07-4.746zM89.916 22.438h1.063v3.77h2.41v.942h-3.473v-4.712" fill="#FFFFFE"/><path d="M55.386.205l-3.978 5.553-4.03-5.553-4.09 7.469v9.667h3.834V6.73l4.142 5.26.188.035 4.19-5.343v10.66h3.86V.204h-4.116zM21.634 14.02v-3.648h7.053V7.052h-7.053V3.525h8.019V.205H17.722v17.137h7.402l1.798-3.321h-5.288zm69.313-5.442L96.215.205h-4.382l-3.115 5.431L85.655.205H81.17l5.216 8.422-5.451 8.714h4.381l3.324-5.749 3.299 5.75h4.486l-5.477-8.763zM72.81 10.403h-3.787l1.906-5.246 1.881 5.246zM69.126.108l-6.61 17.234h3.975l1.332-3.691h6.187l1.358 3.69h4.08L72.837.109h-3.712zM9.562 6.005v.024c0 1.553-1.085 2.48-2.902 2.48H3.94V3.526h2.642c1.95 0 2.98.857 2.98 2.48zm3.965-.17c0-1.655-.54-3.032-1.563-3.983C10.803.774 9.07.205 6.946.205H.002v17.137H3.94v-5.585h2.258l3.37 5.585h4.51l-3.916-6.351c1.554-.658 3.365-2.068 3.365-5.058v-.098z" fill="#DC1C2E"/><path fill="#004E9B" d="M38.441.205L29.162 17.34h4.783L43.226.205h-4.785"/><path d="M98.069 21.644h.17c.194 0 .359-.067.359-.24 0-.124-.094-.247-.359-.247-.076 0-.128.006-.17.011v.476zm0 .78h-.234v-1.407c.122-.018.24-.034.416-.034.223 0 .37.046.458.107.089.061.135.156.135.29 0 .186-.128.298-.288.342v.012c.13.023.217.133.247.342.036.218.07.303.094.347h-.247c-.035-.044-.07-.174-.1-.359-.035-.179-.128-.246-.317-.246h-.164v.605zm.247-1.799c-.582 0-1.056.477-1.056 1.064 0 .6.474 1.071 1.062 1.071a1.052 1.052 0 0 0 1.056-1.065c0-.593-.469-1.07-1.056-1.07h-.006zm.006-.196c.723 0 1.297.56 1.297 1.26 0 .711-.574 1.266-1.303 1.266-.722 0-1.309-.555-1.309-1.266 0-.7.587-1.26 1.309-1.26h.006z" fill="#778081"/></symbol><symbol viewBox="0 0 123 23" id="remax-logo" xmlns="http://www.w3.org/2000/svg"><path d="M67.314 1.12l-4.835 6.778-4.898-6.778h-.055l-4.916 9.116v11.8h4.66V9.084l5.036 6.419.026.043h.201l5.094-6.52v13.011h4.691V1.121h-5.003zM26.292 17.983v-4.452h8.572V9.478h-8.572V5.174h9.746V1.121H21.537v20.916h8.996l2.185-4.053h-6.426zm84.243-6.642l6.403-10.221h-5.326l-3.786 6.63-3.723-6.63h-5.452l6.339 10.28-6.625 10.636h5.325l4.04-7.017 4.009 7.017h5.452l-6.656-10.695zm-22.044 2.226h-4.603l2.316-6.403 2.286 6.403zM84.014 1.002L75.98 22.036h4.831l1.619-4.505h7.52l1.651 4.505h4.957L88.524 1.002h-4.51zM11.62 8.2v.03c0 1.895-1.319 3.026-3.527 3.026H4.788V5.174h3.21c2.37 0 3.623 1.047 3.623 3.026zm4.818-.089v-.119c0-2.02-.657-3.701-1.9-4.861-1.409-1.315-3.517-2.01-6.097-2.01H0v20.916h4.787v-6.816h2.744l4.095 6.816h5.482l-4.759-7.751c1.888-.804 4.089-2.523 4.089-6.174z" fill="#DC1C2E"/><path fill="#004E9B" d="M47.293 1.002L36.059 22.036h5.791L53.087 1.002h-5.794"/><path d="M119.82 1.927h.261c.298 0 .55-.107.55-.381 0-.196-.144-.391-.55-.391-.117 0-.197.01-.261.018v.755zm0 1.235h-.359V.932a3.91 3.91 0 0 1 .638-.053c.343 0 .568.072.703.169.136.098.207.248.207.461 0 .294-.197.472-.442.543v.018c.199.036.333.212.378.542.055.347.108.481.145.551h-.379c-.054-.07-.108-.276-.153-.569-.054-.284-.197-.391-.486-.391h-.252v.96zm.379-2.851c-.892 0-1.62.757-1.62 1.688 0 .95.728 1.697 1.629 1.697.901.007 1.621-.748 1.621-1.689 0-.939-.72-1.696-1.621-1.696h-.009zm.009-.311c1.109 0 1.99.889 1.99 1.999a1.983 1.983 0 0 1-1.999 2.007 1.996 1.996 0 0 1-2.008-2.007A2 2 0 0 1 120.199 0h.009z" fill="#C62A31"/></symbol><symbol viewBox="0 0 512 512" id="restaurants-icon" xmlns="http://www.w3.org/2000/svg"><path d="M241.1 50.2c-2.7 0-5 2.2-5 5v146.3c0 8.7-7 15.7-15.7 15.7h-44.6c-8.7 0-15.7-7-15.7-15.7V55.2c0-2.7-2.2-5-5-5s-5 2.2-5 5v146.3c0 14.1 11.5 25.6 25.6 25.6h2.5v55.1l-11.5 137.6c-.6 2.8-3.6 20.5 6 32.4 5 6.2 12.3 9.7 21.7 10.4.3.1.7.2 1.2.2h2.5c.4 0 .7-.1 1.2-.2 9.5-.7 16.8-4.2 21.7-10.4 9.6-11.9 6.5-29.5 6-32.4l-11.5-137.6v-55.1h5c14.1 0 25.6-11.5 25.6-25.6V55.2c0-2.7-2.2-5-5-5zM205.6 283l11.6 138c0 .2.1.4.1.7 0 .2 3.2 15.5-4 24.4-3.4 4.2-8.9 6.5-16.4 6.8-7.4-.2-13-2.5-16.4-6.8-7.2-8.9-4-24.2-4-24.4.1-.2.1-.4.1-.7l11.6-138v-55.8h17.4V283z"/><path d="M183.3 201.5c2.7 0 5-2.2 5-5V55.2c0-2.7-2.2-5-5-5s-5 2.2-5 5v141.4c0 2.7 2.2 4.9 5 4.9zM211.4 201.5c2.7 0 5-2.2 5-5V55.2c0-2.7-2.2-5-5-5-2.7 0-5 2.2-5 5v141.4c0 2.7 2.2 4.9 5 4.9zM283.5 51c-1.5-1-3.5-1.1-5-.2-1.6.9-2.6 2.6-2.6 4.4v376.1c0 .3 0 7.8 3.6 15.3 3.5 7.4 10.7 16.1 26.2 16.1 23.4 0 30.3-19.3 30.6-29.6 0-.4 0-.8-.1-1.2L311 317.4c-.1-3.1 0-26 25.5-42.2 16.2-10.3 25.5-34.9 25.5-67.2-.1-51.5-24.6-122.5-78.5-157zm47.6 215.8c-16.6 10.6-23.9 24-27 33.2-3.5 10.3-3 18.1-3 18.4 0 .2.1.5.1.7l25.1 114.4c-.2 3.3-2.5 19.4-20.7 19.4-8.2 0-13.8-3.3-17.1-10.1-2.6-5.5-2.7-11.3-2.7-11.4V64.7c45.5 34.1 66.2 97 66.2 143.3 0 28.4-7.9 50.4-20.9 58.8z"/></symbol><symbol viewBox="0 0 22 22" id="search-icon" xmlns="http://www.w3.org/2000/svg"><path d="M8.952 15.886c1.87 0 3.566-.77 4.806-2.02.002 0 .002-.006.004-.006.003 0 .007-.006.01-.006a7.123 7.123 0 0 0 2.05-5.013c0-3.891-3.083-7.052-6.87-7.052S2.082 4.95 2.082 8.84c0 3.884 3.083 7.045 6.87 7.045zm0-15.834c4.72 0 8.561 3.943 8.561 8.789 0 2.13-.745 4.087-1.98 5.61l5.84 5.992c.33.341.33.885 0 1.227a.84.84 0 0 1-.6.255.839.839 0 0 1-.597-.255l-5.85-6.004a8.383 8.383 0 0 1-5.374 1.957c-4.72 0-8.561-3.942-8.561-8.782C.39 3.995 4.23.052 8.952.052z" fill="#004E9B" fill-rule="nonzero"/></symbol><symbol viewBox="0 0 512 512" id="shopping-icon" xmlns="http://www.w3.org/2000/svg"><path d="M436 454.6l-20-287c0-.2-.1-.5-.1-.7v-.2c-.1-.2-.1-.5-.2-.7v-.1c-.1-.2-.2-.5-.3-.7 0 0 0-.1-.1-.1-.3-.5-.6-.9-1-1.3l-.1-.1-30-30c-1.1-1.1-2.7-1.8-4.2-1.8h-62.3v-22c0-30.9-25.1-56-56-56H252c-30.9 0-56 25.1-56 56v22h-69c-1.6 0-3.1.6-4.2 1.8l-30 30-.1.1c-.2.2-.4.4-.5.6-.2.2-.3.4-.4.7 0 0 0 .1-.1.1-.1.2-.2.5-.3.7v.1c-.1.2-.1.4-.2.7v.2c0 .2-.1.5-.1.7l-20 287c-.1 1.7.5 3.3 1.6 4.5s2.7 1.9 4.4 1.9h353c1.7 0 3.3-.7 4.4-1.9s1.6-2.9 1.5-4.5zM208 110c0-24.3 19.7-44 44-44h9.7c24.3 0 44 19.7 44 44v22H208v-22zm-78.5 34h248l18 18h-284l18-18zM83.4 449l19.2-275h301.8l19.2 275H83.4z"/><path d="M311.7 188.5c-11.3 0-20.5 9.2-20.5 20.5 0 9.2 6.1 17 14.5 19.6V283c0 24.3-19.7 44-44 44H252c-24.3 0-44-19.7-44-44v-54.4c8.4-2.6 14.5-10.4 14.5-19.6 0-11.3-9.2-20.5-20.5-20.5s-20.5 9.2-20.5 20.5c0 9.2 6.1 17 14.5 19.6V283c0 30.9 25.1 56 56 56h9.7c30.9 0 56-25.1 56-56v-54.4c8.4-2.6 14.5-10.4 14.5-19.6 0-11.3-9.2-20.5-20.5-20.5zM193.5 209c0-4.7 3.8-8.5 8.5-8.5s8.5 3.8 8.5 8.5-3.8 8.5-8.5 8.5-8.5-3.8-8.5-8.5zm118.2 8.5c-4.7 0-8.5-3.8-8.5-8.5s3.8-8.5 8.5-8.5 8.5 3.8 8.5 8.5-3.9 8.5-8.5 8.5z"/></symbol><symbol viewBox="0 0 83 72" id="tour-icon" xmlns="http://www.w3.org/2000/svg"><g transform="translate(1.937 2.224)" fill="none" fill-rule="evenodd"><use fill="#000" filter="url(#b)"/><use fill="#FFF"/><path d="M56.973 34.346c0 9.17-7.448 16.603-16.636 16.603-9.188 0-16.636-7.433-16.636-16.603 0-9.17 7.448-16.603 16.636-16.603 9.188 0 16.636 7.433 16.636 16.603zm-2.96-1.97"/><path d="M54.013 32.376c0 9.17-7.448 16.603-16.636 16.603-9.188 0-16.636-7.433-16.636-16.603 0-9.17 7.448-16.603 16.636-16.603 9.188 0 16.636 7.433 16.636 16.603z" stroke="#2E2F2E" stroke-width="1.5"/><path d="M54.013 32.376c0 9.17-7.448 16.603-16.636 16.603-9.188 0-16.636-7.433-16.636-16.603 0-9.17 7.448-16.603 16.636-16.603 9.188 0 16.636 7.433 16.636 16.603z" stroke="#007DC3" stroke-width="2"/><path d="M58.751 32.024c0 11.423-9.503 20.682-21.225 20.682-11.722 0-21.225-9.259-21.225-20.682 0-11.422 9.503-20.682 21.225-20.682 11.722 0 21.225 9.26 21.225 20.682z" stroke="#007DC3" stroke-dasharray="3,3,3" stroke-width="1.5"/><path d="M54.013 32.376c0 5.331-7.448 9.653-16.636 9.653-9.188 0-16.636-4.322-16.636-9.653 0-5.33 7.448-9.653 16.636-9.653 9.188 0 16.636 4.322 16.636 9.653z" stroke="#007DC3" stroke-width="1.5"/><path d="M54.013 32.376c0 5.331-7.448 9.653-16.636 9.653-9.188 0-16.636-4.322-16.636-9.653 0-5.33 7.448-9.653 16.636-9.653 9.188 0 16.636 4.322 16.636 9.653z" stroke="#007DC3" stroke-width="1.5"/><path d="M37.377 15.774c5.341 0 9.672 7.433 9.672 16.603 0 9.17-4.33 16.603-9.672 16.603s-9.672-7.433-9.672-16.603c0-9.17 4.33-16.603 9.672-16.603z" stroke="#007DC3" stroke-width="1.5"/><path d="M37.377 15.774c5.341 0 9.672 7.433 9.672 16.603 0 9.17-4.33 16.603-9.672 16.603s-9.672-7.433-9.672-16.603c0-9.17 4.33-16.603 9.672-16.603z" stroke="#007DC3" stroke-width="1.5"/><text fill="#007DC3" font-family="Roboto-Medium, Roboto" font-size="7.5" font-weight="400" letter-spacing="-.375" transform="translate(16.018 11.062)"><tspan x="15.33" y="26.806"> 360</tspan></text></g></symbol><symbol viewBox="0 0 512 512" id="transit-icon" xmlns="http://www.w3.org/2000/svg"><path d="M351.9 106.2h-90.7v-45h64.7c27.3 0 43.5 10.5 49.4 32.1.6 2.3 2.6 3.7 4.9 3.7.4 0 .9-.1 1.3-.2 2.7-.8 4.3-3.5 3.5-6.2-7-25.9-27.5-39.6-59.1-39.6H186.4c-31.6 0-52.1 13.7-59.2 39.6-.8 2.7.8 5.5 3.5 6.2 2.7.8 5.5-.8 6.2-3.5 5.9-21.6 22.1-32.1 49.4-32.1H251v45h-90.7c-26.1 0-47.2 21.2-47.2 47.2v225.2c0 7.4 6.1 13.5 13.5 13.5h40.6l-36.8 61.2c-1.4 2.4-.7 5.5 1.8 6.9.8.5 1.7.8 2.6.8 1.7 0 3.4-.8 4.4-2.4l12.6-21h206.1l12.6 21c.9 1.6 2.6 2.4 4.4 2.4.9 0 1.8-.3 2.6-.8 2.4-1.4 3.2-4.6 1.8-6.9l-36.8-61.2h43.3c7.4 0 13.5-6.1 13.5-13.5V153.4c-.2-26.1-21.4-47.2-47.4-47.2zm-.2 321.2H157.8l21.3-35.3h151.4l21.2 35.3zm37.3-48.8c0 1.9-1.5 3.4-3.4 3.4H126.7c-1.9 0-3.4-1.5-3.4-3.4V153.4c0-20.5 16.6-37.1 37.1-37.1h191.4c20.5 0 37.1 16.6 37.1 37.1l.1 225.2z"/><path d="M162.5 263.8h187.4c5.1 0 9.3-4.1 9.3-9.3V168c0-12.1-9.9-21.9-21.9-21.9H175.1c-12.1 0-21.9 9.9-21.9 21.9v86.5c0 5.1 4.1 9.3 9.3 9.3zm.8-95.7c0-6.5 5.3-11.8 11.8-11.8h162.1c6.5 0 11.8 5.3 11.8 11.8v85.6H163.3v-85.6zM181.7 299.2c-16.5 0-29.9 13.4-29.9 29.9s13.4 29.9 29.9 29.9 29.9-13.4 29.9-29.9-13.4-29.9-29.9-29.9zm0 49.6c-10.9 0-19.7-8.9-19.7-19.7s8.9-19.7 19.7-19.7c10.9 0 19.7 8.9 19.7 19.7s-8.8 19.7-19.7 19.7zM336.1 299.2c-16.5 0-29.9 13.4-29.9 29.9s13.4 29.9 29.9 29.9 29.9-13.4 29.9-29.9-13.4-29.9-29.9-29.9zm0 49.6c-10.9 0-19.7-8.9-19.7-19.7s8.9-19.7 19.7-19.7 19.7 8.9 19.7 19.7-8.7 19.7-19.7 19.7z"/></symbol><symbol viewBox="0 0 23 18" id="twitter-icon" xmlns="http://www.w3.org/2000/svg"><path d="M22.11 2.143a9.058 9.058 0 0 1-2.604.715A4.555 4.555 0 0 0 21.499.35a9.144 9.144 0 0 1-2.882 1.101 4.536 4.536 0 0 0-7.729 4.135A12.877 12.877 0 0 1 1.54.849a4.501 4.501 0 0 0-.613 2.28c0 1.573.801 2.962 2.017 3.774a4.536 4.536 0 0 1-2.055-.57v.057a4.54 4.54 0 0 0 3.638 4.448c-.38.102-.78.159-1.195.159-.293 0-.576-.03-.854-.085a4.538 4.538 0 0 0 4.236 3.15A9.1 9.1 0 0 1 1.081 16c-.366 0-.726-.022-1.081-.062a12.82 12.82 0 0 0 6.952 2.04c8.344 0 12.905-6.91 12.905-12.904l-.015-.588a9.057 9.057 0 0 0 2.268-2.343z" fill="#004E9B" fill-rule="nonzero"/></symbol><symbol viewBox="0 0 512 512" id="vibrant-icon" xmlns="http://www.w3.org/2000/svg"><path d="M262.8 427h-.8c-3.5-.4-6.4-3-7.1-6.5l-54-286.2-46.7 212.9c-.8 3.4-3.7 6-7.2 6.3s-6.8-1.7-8.1-5L99.7 252l-19.8 41.7c-1.3 2.8-4.2 4.6-7.3 4.6H12.5c-4.4 0-8-3.6-8-8s3.6-8 8-8h55.1l25.5-53.6c1.4-2.9 4.3-4.7 7.5-4.6 3.2.1 6 2.1 7.2 5l36.2 89.4 49.6-226c.8-3.7 4.2-6.3 8-6.3 3.8.1 7.1 2.8 7.8 6.6L265.6 391l66.3-161.8c1.2-3 4.2-5 7.4-5s6.2 2 7.4 4.9l40.8 97.9 31.4-38.6c1.5-1.9 3.8-3 6.2-3h74.3c4.4 0 8 3.6 8 8s-3.6 8-8 8h-70.5l-37.5 46.1c-1.8 2.2-4.6 3.3-7.4 2.9s-5.2-2.3-6.3-4.9l-38.5-92.3-69 168.8c-1.2 3-4.2 5-7.4 5z"/></symbol><symbol viewBox="0 0 82 72" id="video-icon" xmlns="http://www.w3.org/2000/svg"><g transform="translate(1.549 1.224)" fill="none" fill-rule="evenodd"><use fill="#000" filter="url(#b)"/><use fill="#FFF"/><g transform="translate(13.996 19.656)"><rect height="22.4" rx="3" stroke="#007DC3" stroke-width="2" width="31.4" x="1.3" y="1.7"/><path d="M33.2 11.2l11-6.2c.7-.4 1.6-.2 2 .6.1.2.2.5.2.7v12.8c0 .8-.7 1.5-1.5 1.5-.2 0-.4 0-.6-.1l-10.9-4.9-.2-4.4z" stroke="#007DC3" stroke-width="2"/><path fill="#007DC3" d="M21.2 12.7L15 17.3V8.1z"/></g></g></symbol></svg>
