<?xml version="1.0" encoding="UTF-8"?>
<svg width="23px" height="24px" viewBox="0 0 23 24" version="1.1" xmlns="http://www.w3.org/2000/svg" xmlns:xlink="http://www.w3.org/1999/xlink">
    <g id="Desktop-Headers-(Resi,-Lux,-Comm)" stroke="none" stroke-width="1" fill="none" fill-rule="evenodd" opacity="0.7">
        <g id="Resi-Homepage-with-added-content" transform="translate(-1467.000000, -159.000000)" fill="#FFFFFF">
            <g id="Header-Resi">
                <g id="Resi-Account-Info---not-signed-NEW" transform="translate(1381.000000, 140.000000)">
                    <g id="Group-3" transform="translate(86.000000, 19.000000)">
                        <path d="M11.46228,1.84606154 C14.08336,1.84606154 16.21592,3.98575385 16.21592,6.61652308 C16.21592,9.24636923 14.08336,11.3860615 11.46228,11.3860615 C8.84028,11.3860615 6.70772,9.24636923 6.70772,6.61652308 C6.70772,3.98575385 8.84028,1.84606154 11.46228,1.84606154 Z M18.05592,6.61652308 C18.05592,2.96852308 15.09812,-9.23076923e-05 11.46228,-9.23076923e-05 C7.82644,-9.23076923e-05 4.86772,2.96852308 4.86772,6.61652308 C4.86772,8.95375385 6.08488,11.0066769 7.91476,12.1836 C3.3258,13.6872923 0,18.0156 0,23.1137538 L1.84,23.1137538 C1.84,17.7894462 6.15572,13.4592923 11.46228,13.4592923 C16.76792,13.4592923 21.08364,17.7894462 21.08364,23.1137538 L22.92364,23.1137538 C22.92364,18.0156 19.59784,13.6872923 15.0098,12.1836 C16.83876,11.0066769 18.05592,8.95375385 18.05592,6.61652308 Z" id="icon/account"></path>
                    </g>
                </g>
            </g>
        </g>
    </g>
</svg>