<svg version="1.1" xmlns="http://www.w3.org/2000/svg" xmlns:xlink="http://www.w3.org/1999/xlink" x="0px" y="0px" viewBox="0 0 512 512" xml:space="preserve"><g><path d="M144.8,152.4c-1.4,1.4-3.2,2.1-5,2.1c-1.7,0-3.3-0.7-4.7-1.9c-2.8-2.6-2.8-6.9-0.2-9.7c4.6-4.8,3.2-9-1.5-19c-4.5-9.7-10.7-23,1.5-35.6c2.6-2.7,6.9-2.8,9.7-0.2c2.7,2.6,2.8,6.9,0.2,9.7c-5.2,5.4-3.8,9.8,1.1,20.3C150.2,127.6,156.2,140.5,144.8,152.4z M229,152.4c-1.3,1.4-3.2,2.1-5,2.1c-1.7,0-3.3-0.7-4.7-1.9c-2.8-2.6-2.8-6.9-0.2-9.7c4.6-4.8,3.2-9-1.5-19c-4.5-9.7-10.7-23,1.5-35.6c2.6-2.7,6.9-2.8,9.7-0.2c2.7,2.6,2.8,6.9,0.2,9.7c-5.2,5.4-3.8,9.8,1.1,20.3C234.4,127.6,240.3,140.5,229,152.4z M313.1,152.4c-1.4,1.4-3.2,2.1-5,2.1c-1.7,0-3.3-0.7-4.7-1.9c-2.8-2.6-2.8-6.9-0.2-9.7c4.6-4.8,3.2-9-1.5-19c-4.5-9.7-10.7-23,1.5-35.6c2.6-2.7,6.9-2.8,9.7-0.2c2.7,2.6,2.8,6.9,0.2,9.7c-5.2,5.4-3.8,9.8,1.1,20.3C318.3,127.6,324.4,140.5,313.1,152.4z M416.5,236.5h-23.9V257c0,22.1-4.5,43.2-12.9,62.5l14.8-12.7c5.5-5.6,13.5-8.9,21.9-8.9c16.9,0,30.8-13.8,30.8-30.8C447.2,250.3,433.5,236.5,416.5,236.5z M379,209.2c0-7.6-6.1-13.7-13.7-13.7H78.4c-7.6,0-13.7,6.1-13.7,13.7V257c0,57.6,34.3,109.5,87.2,132c2.5,1.1,4.2,3.6,4.2,6.3c0,10.3,8.5,18.8,18.8,18.8H276c10.3,0,18.8-8.5,18.8-18.8v-3.4c0-2.6,1.5-5,3.8-6.1c49.5-24.3,80.2-73.6,80.2-128.7L379,209.2L379,209.2z M416.5,311.6c-4.8,0-9.3,1.9-12.7,5.2l-47.7,40.9c-12.9,15.5-29,28.6-47.6,38.3c-0.4,17.5-14.8,31.7-32.5,31.7H175c-16.4,0-29.9-12.1-32.1-27.8C87,374.3,51.1,318.7,51.1,257v-47.8c0-15.1,12.3-27.3,27.3-27.3h286.9c15.1,0,27.3,12.3,27.3,27.3v13.6h23.9c24.5,0,44.4,19.9,44.4,44.4C460.9,291.7,441,311.6,416.5,311.6z"></path></g></svg>
