<svg version="1.1" xmlns="http://www.w3.org/2000/svg" xmlns:xlink="http://www.w3.org/1999/xlink" x="0px" y="0px" viewBox="0 0 512 512" xml:space="preserve"><rect x="237.1" y="288.6" width="52.3" height="12"></rect><path d="M444.8,237.2h-84.3l-87.2-78.5c-1.1-1-2.5-1.5-4-1.5H95c-8.7,0-15.8,7.1-15.8,15.8v64.2H66.4c-29.9,0-54.2,24.3-54.2,54.2v11.4c0,29.9,24.3,54.2,54.2,54.2h0.7c7.3,18.6,25.5,31.9,46.6,31.9s39.3-13.2,46.6-31.9h184.7c7.3,18.6,25.5,31.9,46.6,31.9s39.3-13.2,46.6-31.9h6.4c29.9,0,54.2-24.3,54.2-54.2v-11.4C499,261.5,474.7,237.2,444.8,237.2z M91.2,172.9c0-2.1,1.7-3.8,3.8-3.8h172l75.6,68H91.2V172.9z M113.8,376.9c-17.4,0-32.1-11.7-36.6-27.7c-0.5-1.6-0.8-3.3-1.1-5c0-0.1,0-0.2,0-0.3c-0.1-0.7-0.2-1.4-0.2-2.1c0-0.2,0-0.4,0-0.6c-0.1-0.8-0.1-1.6-0.1-2.4c0-21,17.1-38.1,38.1-38.1c21,0,38.1,17.1,38.1,38.1c0,0.8,0,1.6-0.1,2.4c0,0.2,0,0.4,0,0.6c-0.1,0.7-0.1,1.4-0.2,2.1c0,0.1,0,0.2,0,0.3c-0.2,1.7-0.6,3.4-1.1,5C145.9,365.1,131.2,376.9,113.8,376.9z M391.8,376.9c-17.4,0-32.1-11.7-36.6-27.7c-0.2-0.8-0.4-1.6-0.6-2.4c0,0,0,0,0,0c-0.2-0.8-0.3-1.7-0.5-2.5c0-0.1,0-0.2,0-0.3c-0.1-0.7-0.2-1.4-0.2-2.1c0-0.2,0-0.4,0-0.6c-0.1-0.8-0.1-1.6-0.1-2.4c0-21,17.1-38.1,38.1-38.1s38.1,17.1,38.1,38.1c0,0.8,0,1.6-0.1,2.4c0,0.2,0,0.4,0,0.6c-0.1,0.7-0.1,1.4-0.2,2.1c0,0.1,0,0.2,0,0.3c-0.1,0.8-0.3,1.7-0.5,2.5c0,0,0,0,0,0c-0.2,0.8-0.4,1.6-0.6,2.4C423.9,365.1,409.2,376.9,391.8,376.9z M487,302.8c0,23.3-18.9,42.2-42.2,42.2h-3.3c0-0.1,0-0.2,0-0.3c0.1-0.7,0.2-1.5,0.2-2.2c0-0.3,0-0.5,0.1-0.8c0.1-1,0.1-1.9,0.1-2.9c0-27.6-22.5-50.1-50.1-50.1s-50.1,22.5-50.1,50.1c0,1,0,2,0.1,2.9c0,0.2,0,0.5,0.1,0.7c0.1,0.8,0.1,1.5,0.2,2.3c0,0.1,0,0.2,0,0.3H163.5c0-0.1,0-0.2,0-0.3c0.1-0.7,0.2-1.5,0.2-2.2c0-0.2,0-0.5,0.1-0.7c0.1-1,0.1-1.9,0.1-2.9c0-27.6-22.5-50.1-50.1-50.1s-50.1,22.5-50.1,50.1c0,1,0,1.9,0.1,2.9c0,0.2,0,0.5,0.1,0.7c0.1,0.8,0.1,1.5,0.2,2.2c0,0.1,0,0.2,0,0.3c-22.2-1.2-39.8-19.6-39.8-42.1v-11.4c0-23.3,18.9-42.2,42.2-42.2h18.8h273h86.6c23.3,0,42.2,18.9,42.2,42.2V302.8z"></path></g></svg>
