<svg version="1.1" xmlns="http://www.w3.org/2000/svg" xmlns:xlink="http://www.w3.org/1999/xlink" x="0px" y="0px" viewBox="0 0 512 512" xml:space="preserve"><path d="M416,221.4c-9.4,0-18.4,1.4-26.9,4l-32.9-86.6c-0.9-2.3-3.1-3.9-5.6-3.9H293c-3.3,0-6,2.7-6,6s2.7,6,6,6h53.4l11,29H185.5l-10-28h23c3.3,0,6-2.7,6-6s-2.7-6-6-6H141c-3.3,0-6,2.7-6,6s2.7,6,6,6h21.8l11.8,32.9L140.7,233c-13.2-7.4-28.5-11.6-44.7-11.6c-50.7,0-92,41.3-92,92s41.3,92,92,92c48.2,0,87.9-37.3,91.7-84.6l11.7,0.2c3.3,12.5,14.8,21.7,28.3,21.7c16.2,0,29.3-13.1,29.3-29.3c0-4-0.8-7.9-2.3-11.4l114.7-94.5l8.4,22.2c-31.7,14.5-53.8,46.6-53.8,83.7c0,50.7,41.3,92,92,92s92-41.3,92-92S466.7,221.4,416,221.4z M179.6,195.1l33.3,93c-7.5,4.4-12.8,12-14.2,20.8l-10.9-0.2c-1.4-28.3-15.7-53.3-37.1-69.3L179.6,195.1z M118.9,307.7c-1-4-2.9-7.6-5.6-10.6l30.9-47.6c18.1,13.7,30.2,34.9,31.6,59L118.9,307.7z M96,393.4c-44.1,0-80-35.9-80-80s35.9-80,80-80c13.8,0,26.8,3.5,38.1,9.7l-30.9,47.6c-2.4-0.8-5-1.3-7.6-1.3c-13.2,0-24,10.8-24,24s10.8,24,24,24c11,0,20.4-7.5,23.1-17.7l56.9,0.9C172,361.4,137.7,393.4,96,393.4z M247.8,292.1c-5.3-5-12.3-8-20.1-8c-1.1,0-2.3,0.1-3.4,0.2L189.8,188h171.3l3.5,7.9L247.8,292.1z M416,393.4c-44.1,0-80-35.9-80-80c0-32,18.9-59.7,46.1-72.4l20.1,52.8c-6.2,4.3-10.2,11.5-10.2,19.6c0,13.2,10.8,24,24,24s24-10.8,24-24s-10.8-24-24-24c-0.9,0-1.7,0-2.5,0.1l-20.1-52.8c7.2-2.1,14.8-3.3,22.7-3.3c44.1,0,80,35.9,80,80S460.1,393.4,416,393.4z"></path></svg>
