<svg xmlns="http://www.w3.org/2000/svg" viewBox="0 0 512 512"><g><path d="M200.4,254.3c0,3.3,2.7,6,6,6s6-2.7,6-6c0-20.1-16.4-36.5-36.5-36.5s-36.5,16.4-36.5,36.5c0,3.3,2.7,6,6,6s6-2.7,6-6c0-13.5,11-24.5,24.5-24.5S200.4,240.8,200.4,254.3z"></path><path d="M459.3,275c0-19.5-15.3-35.4-34.5-36.4c-16.2-74.6-80.4-130.7-158-135.5c-2.7-11.6,3.4-23.9,14.8-28.5c9.2-3.7,19.6-1.5,26.5,5.5c2.3,2.4,6.1,2.4,8.5,0.1c2.4-2.3,2.4-6.1,0-8.5c-10.3-10.5-25.8-13.7-39.5-8.3c-11,4.4-18.7,13.6-21.6,24.2c-3.1-6.4-8.5-11.3-15.1-13.9c-9.9-3.9-21.1-2.1-29.2,4.8c-2.5,2.2-2.8,5.9-0.7,8.5c2.2,2.5,5.9,2.8,8.5,0.7c4.7-4,11.2-5.1,17-2.8c4.1,1.6,7.4,4.7,9.1,8.8c1.3,3,1.7,6.2,1.2,9.3c-77.9,4.4-142.8,60.7-159.1,135.6c-18.9,1.3-33.9,17.1-33.9,36.4c0,19.2,14.9,35,33.7,36.4C103.7,391,174,448.3,256,448.3c82,0,152.3-57.3,169-136.9C444.1,310.3,459.3,294.4,459.3,275z M422.8,299.5c-0.5,0-0.9,0.1-1.4,0.2c-0.1,0-0.2,0-0.3-0.1c-3.3-0.6-6.4,1.6-7,4.8c-13.8,76.4-80.4,131.9-158.2,131.9c-77.8,0-144.3-55.5-158.2-131.9c-0.6-3.3-3.7-5.4-7-4.8c0,0,0,0,0,0c-0.4-0.1-0.7-0.1-1.1-0.1c-13.5,0-24.5-11-24.5-24.5c0-11.9,8.5-21.8,19.7-24c-0.6,4.5-1.1,9-1.4,13.7c-0.2,3.3,2.3,6.2,5.6,6.4c3.3,0.2,6.2-2.3,6.4-5.6c5.2-84.5,75.7-150.7,160.5-150.7c85.3,0,155.8,66.6,160.5,151.6c0.2,3.2,2.8,5.7,6,5.7c0.1,0,0.2,0,0.3,0c3.3-0.2,5.8-3,5.7-6.3c-0.3-5-0.8-9.9-1.5-14.8c11.5,2,20.3,12.1,20.3,24.1C447.3,288.5,436.3,299.5,422.8,299.5z"></path><path d="M323.9,329.9c-3.1-1.2-6.6,0.4-7.7,3.5c-7.8,20.6-32.4,35-59.9,35c-27.5,0-52.1-14.4-59.9-35c-1.2-3.1-4.6-4.7-7.7-3.5c-3.1,1.2-4.7,4.6-3.5,7.7c9.7,25.6,38.2,42.8,71.1,42.8s61.4-17.2,71.1-42.8C328.6,334.5,327,331.1,323.9,329.9z"></path><path d="M336.6,217.8c-20.1,0-36.5,16.4-36.5,36.5c0,3.3,2.7,6,6,6s6-2.7,6-6c0-13.5,11-24.5,24.5-24.5s24.5,11,24.5,24.5c0,3.3,2.7,6,6,6s6-2.7,6-6C373.1,234.2,356.7,217.8,336.6,217.8z"></path></g></svg>
