<svg version="1.1" xmlns="http://www.w3.org/2000/svg" xmlns:xlink="http://www.w3.org/1999/xlink" x="0px" y="0px" viewBox="0 0 512 512" xml:space="preserve"><g><path d="M440.1,462H133.3c-36.8,0-66.8-30-66.8-66.8s30-66.8,66.8-66.8h306.8c2.8,0,5.1,2.3,5.1,5.1c0,2.8-2.3,5.1-5.1,5.1H133.3c-31.2,0-56.5,25.3-56.5,56.5s25.3,56.5,56.5,56.5h306.8c2.8,0,5.1,2.3,5.1,5.1S442.9,462,440.1,462z"></path><path d="M392.2,411.2H100.3c-1.9,0-3.4-1.5-3.4-3.4s1.5-3.4,3.4-3.4h291.9c1.9,0,3.4,1.5,3.4,3.4S394,411.2,392.2,411.2z"></path><path d="M406.9,436.8H117c-1.9,0-3.4-1.5-3.4-3.4s1.5-3.4,3.4-3.4h289.9c1.9,0,3.4,1.5,3.4,3.4C410.3,435.2,408.8,436.8,406.9,436.8z"></path><path class="st1" d="M392.2,385.7H100.3c-1.9,0-3.4-1.5-3.4-3.4s1.5-3.4,3.4-3.4h291.9c1.9,0,3.4,1.5,3.4,3.4C395.6,384.1,394,385.7,392.2,385.7z"></path><path d="M406.9,360.1H117c-1.9,0-3.4-1.5-3.4-3.4s1.5-3.4,3.4-3.4h289.9c1.9,0,3.4,1.5,3.4,3.4S408.8,360.1,406.9,360.1z"></path><g><path d="M217.2,149.7c-22.9,0-36.2,10.9-40.8,33.3c-0.4,2.2-2.4,3.8-4.5,3.8c-0.3,0-0.6,0-0.9-0.1c-2.5-0.5-4.1-3-3.6-5.6c5.6-26.6,22.9-40.7,50-40.7c2.6,0,4.7,2.1,4.7,4.7S219.8,149.7,217.2,149.7z M277.6,106.4c12.1-1.2,27-2.6,44.2-9.8c22.4-9.4,27.5-16.6,30.9-24.5c-7-6-21.2-11.6-36.7-11.6c-8,0-15.5,1.5-22.5,4.4c-20,8.4-26,26.9-27,42.7C269.9,107.1,273.5,106.7,277.6,106.4z M244.7,134.6c-9.8-2.4-19-3.7-27.5-3.7c-38.9,0-61.2,25.7-61.2,70.4c0,48.4,43.7,115.6,78.1,119.9c7.6,0.9,10.5-1,13.8-3.4c2.3-1.7,5.2-3.9,9.6-3.9c4.6,0,7.1,2.7,8.6,4.5c1.8,2,3.3,3.8,9.5,3.8c0.9,0,1.9,0,3-0.2c46.2-3.8,93.2-73.4,93.2-120.7c0-44.5-24.4-68-70.4-68c-12.3,0-26.3,1.7-41.4,5.1c-0.9,0.2-1.7,0.2-2.5-0.1C253.1,136.9,248.9,135.6,244.7,134.6z M301.3,124c51.4,0,79.9,27.5,79.9,77.4c0,52-50.3,125.7-101.8,130c-1.4,0.1-2.6,0.2-3.8,0.2c-9.4,0-13.3-3.3-16.4-6.8c-1.3-1.4-1.4-1.4-1.7-1.4c-1.2,0-2,0.5-4,2.1c-3.7,2.7-8.7,6.7-20.5,5.2c-41.7-5.2-86.3-80.3-86.3-129.2c0-49.9,26.4-79.7,70.5-79.7c9.2,0,19.2,1.3,29.7,3.9c2.8,0.7,5.6,1.6,8.6,2.5c6.3-34.2-13.2-62.2-13.4-62.6c-1.5-2.1-1-5,1.1-6.5s5-1,6.5,1.1c0.5,0.8,7.3,10.4,12,25.3c5.4-13.5,15-23.5,28.3-29c8.1-3.3,16.9-5,26.1-5c21.1,0,38.4,8.6,45.7,16.7c1.2,1.4,1.5,3.3,0.9,4.9c-4.1,10-8.4,20.4-37.2,32.4c-18.4,7.7-34.2,9.2-46.8,10.4c-4.6,0.4-8.8,0.9-12.4,1.5c-0.2,3.5-0.4,7.1-1,10.8C278.1,125.4,290.3,124,301.3,124z"></path></g></g></svg>
