<svg _ngcontent-c47="" xmlns:xlink="http://www.w3.org/1999/xlink" height="13px" version="1.1" viewBox="0 0 16 13" width="16px" xmlns="http://www.w3.org/2000/svg"><g _ngcontent-c47="" fill="#007dc3" fill-rule="evenodd" stroke="none" stroke-width="1" transform="translate(-177.000000, -59.000000)"><path _ngcontent-c47="" d="M191.701208,69.8846054 L178.298792,69.8846054 C178.198228,69.8846054 178.11325,69.7963792 178.11325,69.6911269 L178.11325,61.4419791 L184.695155,65.9341621 C184.787926,65.9972361 184.893685,66.0293535 184.999814,66.0293535 C185.1078,66.0293535 185.215414,65.9968491 185.308927,65.9318404 L191.88675,61.3545269 L191.88675,69.6911269 C191.88675,69.7963792 191.801772,69.8846054 191.701208,69.8846054 Z M190.52339,60.9072047 L184.997217,64.7531696 L179.362688,60.9072047 L190.52339,60.9072047 Z M192.591437,60.1197473 C192.523529,60.0280385 192.434469,59.9622559 192.33539,59.9262689 C192.146879,59.8152122 191.932764,59.7463339 191.701208,59.7463339 L178.298792,59.7463339 C177.582972,59.7463339 177,60.3538563 177,61.1006831 L177,69.6911269 C177,70.4379538 177.582972,71.0454762 178.298792,71.0454762 L191.701208,71.0454762 C192.417028,71.0454762 193,70.4379538 193,69.6911269 L193,61.1006831 C193,60.7141132 192.841547,60.3670128 192.591437,60.1197473 Z" fill="#007DC3" id="email-icon"></path></g></svg>
