<?xml version="1.0" encoding="UTF-8"?>
<svg width="23px" height="22px" viewBox="0 0 23 22" version="1.1" xmlns="http://www.w3.org/2000/svg" xmlns:xlink="http://www.w3.org/1999/xlink">
    <g id="Desktop-Headers-(Resi,-Lux,-Comm)" stroke="none" stroke-width="1" fill="none" fill-rule="evenodd" opacity="0.7">
        <g id="Resi-Homepage-with-added-content" transform="translate(-1412.000000, -159.000000)" fill="#FFFFFF">
            <g id="Header-Resi">
                <g id="Resi-Account-Info---not-signed-NEW" transform="translate(1381.000000, 140.000000)">
                    <path d="M48.5693157,32.153784 C46.6650121,34.3579316 43.8688268,37.4567735 42.6350282,38.8136278 C41.3716741,37.4567735 38.4902993,34.3579316 36.5292028,32.1478589 C33.7127343,28.9779154 32.7385608,27.7691893 32.7385608,25.6302182 C32.7385608,23.6453003 34.347309,20.7775384 37.2559212,20.7775384 C41.1091514,20.7834635 41.7587936,24.1785618 41.7866106,24.3385403 C41.7883491,24.3444654 41.7924058,24.3563156 41.7941443,24.3622408 C41.800519,24.3918664 41.8097914,24.4214921 41.8190637,24.4511177 C41.827177,24.4807433 41.8347107,24.5044438 41.8457216,24.5340695 C41.8567325,24.55777 41.870641,24.5814705 41.8845495,24.6110961 C41.8978785,24.6347967 41.9100484,24.6584972 41.9251159,24.6821977 C41.943081,24.7058982 41.9633642,24.7295987 41.9836475,24.7592243 C41.998715,24.7769997 42.0120439,24.7947751 42.027691,24.8066254 C42.0543489,24.836251 42.0833249,24.8599515 42.1128805,24.883652 C42.1262094,24.8955023 42.1383794,24.9073525 42.1522878,24.9132777 C42.1853205,24.9369782 42.2206712,24.9547536 42.2577605,24.9784541 C42.2710895,24.9843792 42.2838389,24.9903043 42.298327,24.9962295 C42.3330982,25.0140048 42.3701875,25.0258551 42.4078563,25.0377054 C42.4264009,25.0436305 42.4449456,25.0436305 42.4634902,25.0495556 C42.4768192,25.0554807 42.4889891,25.0614059 42.5023181,25.0614059 C42.5254989,25.067331 42.5481002,25.0614059 42.571281,25.067331 C42.5938823,25.067331 42.6153245,25.067331 42.6379258,25.067331 C42.6732766,25.067331 42.7074683,25.067331 42.7422395,25.0614059 C42.757307,25.0614059 42.772954,25.0614059 42.7880216,25.0614059 C42.7972939,25.0614059 42.8054072,25.0554807 42.8141,25.0554807 C42.8471326,25.0495556 42.8778472,25.0377054 42.9091413,25.0258551 C42.9329016,25.01993 42.9572415,25.0140048 42.9804223,25.0021546 C43.0082393,24.9903043 43.0343177,24.972529 43.0609756,24.9606787 C43.0841564,24.9488284 43.1073372,24.9369782 43.1287795,24.9192028 C43.1531193,24.9014274 43.1751411,24.883652 43.1977424,24.8658766 C43.2180256,24.8481013 43.2383088,24.8303259 43.257433,24.8125505 C43.2782957,24.78885 43.2962608,24.7651495 43.315385,24.741449 C43.3316116,24.7236736 43.3484177,24.6999731 43.3629057,24.6821977 C43.3791322,24.6584972 43.3918817,24.6288715 43.4057902,24.605171 C43.4191191,24.5755454 43.4324481,24.5518449 43.443459,24.5281444 C43.4533108,24.5044438 43.4608446,24.4748182 43.4689579,24.4511177 C43.4782302,24.4214921 43.4875025,24.3859413 43.4938772,24.3563156 C43.4956158,24.3444654 43.4996724,24.3385403 43.5008315,24.32669 C43.5245918,24.1844869 44.1139639,20.7834635 47.8866408,20.7775384 C50.7036888,20.7775384 52.2614392,23.6453003 52.2614392,25.6302182 C52.2614392,27.7751145 51.312185,28.9838406 48.5693157,32.153784 Z M54,25.6302182 C54,28.5572313 52.5338137,30.2518179 49.8720772,33.3328845 C47.3650726,36.2361971 43.3194416,40.674118 43.2794547,40.7155939 C43.2383088,40.7570698 43.229616,40.7629949 43.2226618,40.76892 C43.1455856,40.8400215 43.0603961,40.8933477 42.9688319,40.9348236 C42.8477122,40.9762995 42.7462961,41 42.643721,41 C42.5428845,41 42.4437865,40.9762995 42.3487452,40.9407487 C42.2334207,40.8992728 42.1505493,40.8459467 42.0746321,40.7748451 C42.0329067,40.7392944 42.0236343,40.7333692 42.0155211,40.7274441 C41.9737956,40.6800431 37.8186354,36.2421223 35.2426678,33.3388096 C32.5067527,30.2636682 31,28.5631565 31,25.6302182 C31,22.4958255 33.5695928,19 37.2565007,19 C40.0416751,19.0059251 41.7188067,20.3983302 42.6332897,21.8499865 C43.5269099,20.3983302 45.1652137,19.0059251 47.8866408,19 C51.4895182,19 54,22.4958255 54,25.6302182 Z" id="icon/heart"></path>
                </g>
            </g>
        </g>
    </g>
</svg>