<svg version="1.1" viewBox="0 0 82 71" xmlns="http://www.w3.org/2000/svg">
<defs>
<rect height="63.1" rx="4" width="74" x="0.8" y="1">
</rect>
<filter height="122.2" width="118.9" x="-6.8" y="-7.9">
<feOffset dx="2" dy="2" in="SourceAlpha" result="shadowOffsetOuter1">
</feOffset>
<feGaussianBlur in="shadowOffsetOuter1" result="shadowBlurOuter1" stdDeviation="2">
</feGaussianBlur>
<feColorMatrix in="shadowBlurOuter1" values="0">
</feColorMatrix>
</filter>
</defs>
<g fill="none" fill-rule="evenodd">
<g transform="translate(1.4727 1.2238)">
<use fill="black" filter="url(#b)">
</use>
<use fill="#FFFFFF" fill-rule="evenodd">
</use>
<path d="m39.7 40.4l7.8-12.9c0.2-0.3 0.6-0.4 0.9-0.2 0.1 0.1 0.2 0.2 0.3 0.3l6.6 15.2c0.1 0.3 0 0.7-0.4 0.9-0.1 0-0.2 0.1-0.3 0.1h-13.7c-0.1 0-0.2 0.1-0.3 0.1h-12.1c-0.4 0-0.7-0.3-0.7-0.7 0-0.1 0-0.2 0.1-0.3l5.1-10.4c0.2-0.3 0.6-0.5 0.9-0.3 0.1 0.1 0.2 0.1 0.3 0.2l5.4 8zm-13.5-9.2c-1.6 0-2.8-1.2-2.8-2.8s1.3-2.8 2.8-2.8c1.6 0 2.8 1.2 2.8 2.8s-1.3 2.8-2.8 2.8z" fill="#fff" stroke="#007DC3" stroke-linecap="round" stroke-linejoin="round" stroke-width="1.8">
</path>
<rect height="26.5" rx="1.6" stroke="#007DC3" stroke-width="1.8" width="39.7" x="19.7" y="20.8">
</rect>
<path d="m16.8 44.7c-0.9 0-1.6-0.7-1.6-1.6v-25.1c0-0.9 0.7-1.6 1.6-1.6h38.3c0.9 0 1.6 0.7 1.6 1.6" stroke="#007DC3" stroke-linecap="round" stroke-linejoin="round" stroke-width="1.8">
</path>
</g>
</g>
</svg>

