<svg xmlns="http://www.w3.org/2000/svg" viewBox="0 0 512 512"><g><path d="M420.8,85.9c-49.5,5.5-181,20-252.6,93.4c-73,74.7-52.3,136.1-22.2,174.4c0.5,0.6,1.2,1.4,1.8,2.1c7-9.4,14.8-20.4,23.4-32.5c49.5-69.8,117.3-165.3,201-195.6c3.6-1.3,7.5,0.6,8.8,4.1c1.3,3.6-0.6,7.5-4.1,8.8c-79.6,28.8-148.7,126.1-194.5,190.6c-9.3,13.1-17.5,24.7-25.1,34.7c2.9,2.9,5.8,5.6,7.8,7.4c14.4,12.8,38.2,28.1,69.7,28.1c33.3,0,67-17.2,100.1-51c72.6-74.3,86.9-215.5,91.6-261.9c0.1-1.2,0.2-2.3,0.4-3.4C425.1,85.5,423,85.7,420.8,85.9z M440.3,90.1c-4.8,47.6-19.5,192.4-95.5,270.1c-35.7,36.6-72.7,55.2-109.9,55.2c-35.9,0-62.7-17.2-78.9-31.6c-1.8-1.6-4.2-3.9-6.8-6.4c-7,10.3-27.6,36.7-68,63.2c-1.2,0.8-2.5,1.1-3.8,1.1c-2.2,0-4.4-1.1-5.8-3.1c-2.1-3.2-1.2-7.4,2-9.5c42.4-27.8,61.8-55.7,65.8-61.8c-1.6-1.8-3.1-3.5-4.3-5c-27.5-34.9-61-106.4,23.1-192.6c75-76.8,210.1-91.8,260.9-97.4c6-0.7,10.9-1.2,14.5-1.7c2.1-0.3,4.3,0.4,5.8,1.9s2.3,3.6,2,5.7C441.2,81.2,440.8,85.1,440.3,90.1z"></path></g></svg>
