<svg version="1.1" xmlns="http://www.w3.org/2000/svg" xmlns:xlink="http://www.w3.org/1999/xlink" x="0px" y="0px" viewBox="0 0 512 512" xml:space="preserve"><path d="M410.3,147.9c-0.4-0.3-0.9-0.6-1.3-0.7c-0.9-1.2-2.3-1.9-4-1.9l-11.1-0.1l-11.5-3.6c-0.5-0.2-1-0.2-1.5-0.2l-11.5-0.2l-17.8-4.7c-0.4-0.1-0.9-0.2-1.3-0.2l-15.1,0.1l-6.1-3.4c-1.1-0.6-2.4-0.8-3.6-0.5l-5.6,1.4c2-10.3,3.4-20.6,3.8-31.2c0.5-12.3-0.6-24.2-6.5-35.4c-2.3-2.8-4.4-5.9-7.1-8.4c-12-11.5-28.6-11.7-43.3-1.2c-13.9,9.8-24.8,22.4-34.6,36c-0.6,0.9-1.4,1.9-1.5,2.8c-0.7,5.4-4.4,8.7-7.8,12.5c-2,2.3-4.1,4.5-6.1,6.9c-1.5-2.1-4.3-2.7-6.5-1.5l-6.9,3.9h-11c-0.7,0-1.5,0.2-2.1,0.5l-10.7,4.9l-14.3,0.6c-0.5,0-0.9,0.1-1.4,0.2l-17.8,5.6l-18.1,2.3c-0.4,0.1-0.7,0.2-1.1,0.2l-11.8,4.4l-10.9,0.7c-0.1,0-0.2,0-0.2,0h-0.2c-0.2,0-0.2,0.1-0.4,0.1c-0.1,0-0.1,0-0.2,0c-0.2,0.1-0.4,0.1-0.6,0.2l0,0c-0.2,0.1-0.3,0.2-0.5,0.2c-0.1,0-0.1,0.1-0.2,0.1c-0.2,0.1-0.2,0.2-0.3,0.2c0,0-0.1,0-0.1,0.1c0,0,0,0-0.1,0.1s-0.2,0.2-0.3,0.2L101,139c-0.2,0.2-0.2,0.2-0.4,0.4c0,0,0,0.1-0.1,0.1c-0.1,0.1-0.2,0.2-0.3,0.4c0,0.1-0.1,0.1-0.1,0.2c-0.1,0.1-0.2,0.2-0.2,0.3s-0.1,0.1-0.1,0.2c-0.1,0.2-0.1,0.2-0.2,0.4c0,0.1,0,0.1-0.1,0.2c-0.2,0.3-0.2,0.7-0.2,1.1c0,0.1,0,0.1,0,0.2c0,0.2,0,0.2,0,0.4v0.1v244.6c0,2.2,1.4,4,3.4,4.8l209.5,71l0,0c0.1,0,0.1,0,0.2,0.1c0.1,0,0.2,0.1,0.2,0.1c0.1,0,0.2,0.1,0.3,0.1c0.1,0,0.1,0,0.2,0s0.1,0,0.2,0c0.2,0,0.4,0,0.6,0.1l0,0l0,0l0,0c0.2,0,0.4,0,0.6,0h0.1c0.1,0,0.2,0,0.2,0c0.1,0,0.2,0,0.2-0.1c0.1,0,0.2-0.1,0.2-0.1l0,0c0.1,0,0.1,0,0.2-0.1c0.1,0,0.1,0,0.2-0.1c0.1,0,0.2-0.1,0.2-0.1c0.1,0,0.2-0.1,0.2-0.1l91.5-45.2c1.7-0.8,2.7-2.5,2.7-4.4c1-1,1.7-2.3,1.7-3.8V152.1C412.2,150.3,411.5,148.9,410.3,147.9z M319,181.5l7.8-0.4c0.8,0,1.5-0.2,2.3-0.6l8-4.6l9.7-0.2c0.8,0,1.6-0.2,2.3-0.6l7.1-3.9v221.6L319.1,443L319,181.5L319,181.5z M372.9,168.9c0.6-0.1,1.3-0.2,1.9-0.6l9.4-5l8.3,0.2c1,0,2-0.2,2.8-0.8l6.4-4.2l0.4-0.1v247.9l-36.1-15V169.5L372.9,168.9z M331,443.6l31.8-42.9l27.9,11.6L331,443.6z M317.6,144.7l8.4-2.1l5.6,3.1c0.7,0.4,1.6,0.6,2.4,0.6l15.7-0.1l17.8,4.7c0.4,0.1,0.8,0.2,1.2,0.2l11.5,0.2l6.9,2.2l-3.7-0.1c-0.9,0-1.7,0.2-2.4,0.6l-9.7,5.2l-7.8,0.7c-0.6-0.2-1.3-0.4-2-0.4c-1,0-2,0.3-2.8,0.9l-2,0.2c-0.6,0.1-1.4,0.2-1.9,0.6l-9,4.9l-9.7,0.2c-0.8,0-1.7,0.2-2.4,0.6l-8.1,4.6l-11.4,0.6c-0.1,0-0.2,0-0.2,0c-0.1,0-0.1,0-0.2,0l-5,0.6c3.5-9.1,6.5-18.3,8.9-27.6C317.4,144.7,317.5,144.7,317.6,144.7z M273.2,101.3c-11.1-0.1-21.8-0.2-33.5-0.2C249.4,94.4,264.3,94.6,273.2,101.3z M245.3,111.4c12.5,0.2,25,0.5,37.5,0.8c1.2,0,2.4,0.2,3.6,0.2c4.6-0.2,6.7-3.8,4.8-7.9c-3.4-7-9.1-11.8-16.1-14.3c-7.3-2.6-15.1-4-22.4-5.8c7.5-8.6,16.3-17.3,27.6-22.7c9.8-4.7,23.3,1.5,28.7,12.8c4.5,9.5,4.8,19.8,4.4,30c-1,21.1-5.8,41.5-13.4,61.2c-0.6,1.5-1.1,3-1.7,4.4l-3.7-1.5c-0.7-0.3-1.5-0.4-2.3-0.3l-9.8,0.9l-14.9-5c-0.6-0.2-1.1-0.2-1.8-0.2l-12.8,0.5l-10.4-4.2c-0.6-0.2-1.4-0.4-2.1-0.4l-12.8,0.5l-10.3-3.6c15.8-3.1,32-4.1,48.1-3.9c0.6,0,1.5,0.2,2,0c2-0.8,4.8-1.4,5.6-2.9c0.8-1.5,0.2-4.5-0.9-6.2c-4.8-7.4-12.6-10.6-20.8-12.5c-10.6-2.5-21.3-2.9-32-0.1c-0.3,0.1-0.8-0.1-1.5-0.2C224.6,120.7,231.4,111.1,245.3,111.4z M249.4,142.1c-13.1,1.8-25.8,3.6-39.3,5.4C216.9,139.9,238.9,137.2,249.4,142.1z M147.8,140c0.3,0,0.6-0.1,1-0.2l17.4-5.7l14.6-0.6c0.6,0,1.3-0.2,1.9-0.5l10.5-4.8h11.1c0.9,0,1.7-0.2,2.5-0.6l1-0.6c-4,6.1-7.3,12.6-9,20.2c-0.5,2-2,3.9-3.2,5.6c-0.2,0.3-0.5,0.7-0.7,1l-6-2.4c-0.6-0.2-1.3-0.4-2-0.4l-14,0.3l-9.8-4.1c-0.6-0.2-1.4-0.4-2.1-0.4l-13.5,0.4l-12.4-4.6c-0.6-0.2-1.2-0.3-1.9-0.3l-4.3,0.1l0.7-0.2L147.8,140z M109.5,149.7l7.5,2.7c0.6,0.2,1.2,0.3,1.8,0.3l13.7-0.3l12.4,4.6c0.6,0.2,1.2,0.3,1.9,0.3l13.3-0.4l9.8,4.1c0.6,0.2,1.4,0.4,2,0.4l14-0.3l10.4,4.2c0.6,0.2,1.4,0.4,2,0.4l13.2-0.4l13.2,4.8c0.6,0.2,1.2,0.3,1.9,0.3l12.8-0.5l10.4,4.2c0.6,0.2,1.4,0.4,2.1,0.4l12.9-0.5l15.1,5.1c0.6,0.2,1.4,0.3,2,0.2l9.7-0.9l10.6,4.2c0.8,0.3,1.6,0.4,2.4,0.3l4.2-0.5v268.9l-199.2-67.8V149.7H109.5z"></path></svg>
