<svg version="1.1" xmlns="http://www.w3.org/2000/svg" xmlns:xlink="http://www.w3.org/1999/xlink" x="0px" y="0px" viewBox="0 0 512 512" xml:space="preserve"><path d="M462.8,170.2l-204.1-61.6c-1.1-0.3-2.3-0.3-3.5,0L51.2,170.2c-2.5,0.8-4.3,3.1-4.3,5.8s1.7,5,4.3,5.7l99.6,29.6c-18.4,35.1-20.1,71.6-20.1,73.2c-0.1,2.6,1.5,5,4,5.9L255,332.1c0.6,0.2,1.3,0.3,2,0.3s1.3-0.1,2-0.3l120.4-41.7c2.5-0.9,4.1-3.3,4-5.9c-0.1-1.6-1.7-38.1-20.1-73.2l40.3-12v77c-10.5,2.7-18.2,12.2-18.2,23.4c0,9.1,5.1,17,12.5,21.2L385.5,408c-0.2,1.7,0.3,3.5,1.4,4.8c1.1,1.3,2.8,2.1,4.5,2.1h36.4c1.7,0,3.4-0.8,4.5-2.1s1.7-3.1,1.4-4.8l-12.4-87.1c7.4-4.1,12.4-12.1,12.4-21.1c0-11.3-7.7-20.8-18.2-23.4v-80.6l47.2-14c2.5-0.8,4.3-3.1,4.3-5.7S465.4,170.9,462.8,170.2z M409.7,323.9l11.2,78.9h-22.6l11.3-78.9C409.6,323.9,409.7,323.9,409.7,323.9z M421.8,299.7c0,5.4-3.5,9.9-8.3,11.6c-0.1,0-0.2,0-0.3,0.1c-1,0.3-1.9,0.5-2.7,0.5c-0.3,0-0.6,0-0.9,0c-0.3,0-0.6,0-0.9,0c-0.8-0.1-1.6-0.2-2.4-0.5c-0.2-0.1-0.5-0.1-0.7-0.2c-4.7-1.7-8.2-6.2-8.2-11.5c0-6.7,5.5-12.2,12.2-12.2C416.3,287.5,421.8,293,421.8,299.7z M257,320.1l-114.1-39.5c1-10.7,5.1-39.2,19.5-65.7l92.6,27.5l0.3,0.1c0,0,0,0,0,0l0,0c0.8,0.2,1.7,0.3,2.6,0.2c0.1,0,0.2,0,0.3-0.1c0.2,0,0.4-0.1,0.6-0.1l92.8-27.5c14.5,26.5,18.5,55,19.5,65.7L257,320.1z M412.2,184.2c-0.7-0.3-1.4-0.5-2.2-0.6l-152.6-10.2c-3.3-0.2-6.2,2.3-6.4,5.6c-0.2,3.3,2.3,6.2,5.6,6.4l123.7,8.3L257,230.3L73.8,175.9L257,120.6l183.2,55.3L412.2,184.2z"></path></svg>
