<svg height="50" version="1.1" viewBox="0 0 50 51" width="50" xmlns="http://www.w3.org/2000/svg">
  <circle cx="25" cy="25" fill="transparent" id="Oval" r="23.5" stroke="#FFF" stroke-width="3"/>
  <path d="M25.2 9c2.8 0 5.2 2.8 5.2 5 0 3-2.4 5.8-5.2 5.8-2.8 0-5.2-2.9-5.2-5.7 0-2.3 2.4-5.2 5.2-5.2zm0 12.8c4.3 0 7.8-3.4 7.8-7.7 0-4.3-3.5-7-7.8-7s-7.8 2.7-7.8 7 3.5 7.7 7.8 7.7zm12.4 15.4H12.9v-6c0-1.6.6-3 1.8-4 .3-.5 1.1-1.2 2.4-1.1h16.1c3 0 4.4 2.3 4.4 4.6v6.5zm-4.4-13.8H17a5 5 0 0 0-4.4 2.5c-1.5.9-2.4 3-2.4 5.3v7.3c0 .7.6 1.3 2.2 1.3h26.3c1 0 1.3-.6 1.3-1.3v-7.8c0-3.5-2.4-7.3-7-7.3z" fill="#FFF"/>
</svg>
