<svg version="1.1" xmlns="http://www.w3.org/2000/svg" xmlns:xlink="http://www.w3.org/1999/xlink" x="0px" y="0px" viewBox="0 0 512 512" xml:space="preserve"><g><path d="M393.5,234.6c-0.2-1.5-0.9-2.9-2-3.8c-10.3-19-24.3-35.7-41.1-49.1c-0.8-1.7-2.3-2.9-4.2-3.3c-18.8-14.1-40.7-24.1-64.5-28.9c-1.6-13.9-12.1-25.2-25.7-27.8V50c0-3.3-2.7-6-6-6s-6,2.7-6,6v71.8c-13.6,2.6-24.1,13.8-25.7,27.8c-73.5,14.8-129.1,79.8-129.1,157.7C89.2,395.9,161.3,468,250,468c36,0,69.3-11.9,96.2-32c1.9-0.4,3.4-1.6,4.2-3.3c16.7-13.4,30.8-30.1,41.1-49.1c1.1-1,1.8-2.3,2-3.8c11.1-21.8,17.3-46.5,17.3-72.6S404.5,256.4,393.5,234.6z M383.4,373.1h-57.2c4.3-18.7,6.7-38.9,7.1-59.9h65.3C397.8,334.6,392.4,354.9,383.4,373.1z M293.8,424.1h-37.3v-39h54.2c-3.1,10.4-6.9,20.1-11.3,28.9C297.6,417.6,295.7,420.9,293.8,424.1z M200.6,414c-4.4-8.8-8.2-18.5-11.3-28.9h55.2v39h-38.3C204.3,420.9,202.4,417.6,200.6,414z M101.3,313.2h65.3c0.4,21,2.8,41.2,7.1,59.9h-57.2C107.6,354.9,102.2,334.6,101.3,313.2z M116.6,241.3h57.2c-4.3,18.7-6.7,38.9-7.1,59.9h-65.3C102.2,279.8,107.6,259.5,116.6,241.3z M206.2,190.3h38.3v39h-55.2c3.1-10.4,6.9-20.1,11.3-28.9C202.4,196.8,204.3,193.5,206.2,190.3z M299.4,200.4c4.4,8.8,8.2,18.5,11.3,28.9h-54.2v-39h37.3C295.7,193.5,297.6,196.8,299.4,200.4z M313.9,241.3c4.5,18.5,7,38.8,7.4,59.9h-64.8v-59.9H313.9z M256.5,178.3V159c10.1,2,19.9,8.6,28.8,19.3H256.5z M287.6,163.2c13,3.4,25.3,8.5,36.7,15.1h-24C296.3,172.5,292.1,167.5,287.6,163.2z M199.7,178.3h-24c11.4-6.6,23.7-11.7,36.7-15.1C207.9,167.5,203.7,172.5,199.7,178.3z M244.5,158.9v19.4h-29.8C223.9,167.2,234,160.6,244.5,158.9z M244.5,241.3v59.9h-65.8c0.4-21.1,2.9-41.4,7.4-59.9H244.5z M178.7,313.2h65.8v59.9h-58.4C181.6,354.6,179.1,334.3,178.7,313.2z M244.5,436.1v19.4c-10.5-1.7-20.6-8.4-29.8-19.4H244.5z M256.5,455.4v-19.3h28.8C276.4,446.8,266.6,453.4,256.5,455.4z M256.5,373.1v-59.9h64.8c-0.4,21.1-2.9,41.4-7.4,59.9H256.5z M333.3,301.2c-0.4-21-2.8-41.2-7.1-59.9h57.2c9,18.2,14.4,38.5,15.3,59.9H333.3z M376.7,229.3h-53.6c-3.5-12.4-7.9-23.9-13.1-34.2c-0.8-1.6-1.6-3.2-2.5-4.8H342C355.7,201.1,367.5,214.3,376.7,229.3z M250,133.2c9.2,0,16.8,6,19.1,14.3c-6.3-0.7-12.7-1.1-19.1-1.1c-6.5,0-12.8,0.4-19.1,1.1C233.3,139.3,241,133.2,250,133.2z M158,190.3h34.4c-0.8,1.6-1.7,3.1-2.5,4.8c-5.2,10.4-9.6,21.9-13.1,34.2h-53.6C132.5,214.3,144.3,201.1,158,190.3z M123.3,385.1h53.6c3.5,12.4,7.9,23.9,13.1,34.2c0.8,1.6,1.6,3.2,2.5,4.8H158C144.3,413.3,132.5,400.1,123.3,385.1z M175.7,436.1h24c4,5.8,8.2,10.8,12.7,15.1C199.4,447.8,187.1,442.7,175.7,436.1z M300.3,436.1h24c-11.4,6.6-23.7,11.7-36.7,15.1C292.1,446.9,296.3,441.9,300.3,436.1z M342,424.1h-34.4c0.8-1.6,1.7-3.1,2.5-4.8c5.2-10.4,9.6-21.9,13.1-34.2h53.6C367.5,400.1,355.7,413.3,342,424.1z"></path><path d="M126.4,149l-26.4-14l-14-26.6L71.8,135l-26.6,14l26.6,14.2l14.2,26.4l14-26.4L126.4,149z M85.9,164l-5.2-9.8l-9.8-5.2l9.8-5.2l5.2-9.8l5.2,9.8l9.8,5.2l-9.8,5.2L85.9,164z"></path><path d="M351.5,137.9l11.2-21.4l21.4-11.2l-21.4-11.4l-11.2-21.4l-11.4,21.4l-21.4,11.4l21.4,11.2L351.5,137.9z M349,102.7l2.4-4.6l2.4,4.6l4.6,2.4l-4.6,2.4l-2.4,4.6l-2.4-4.6l-4.6-2.4L349,102.7z"></path><path d="M435.7,174.4L424,152.1l-11.8,22.3l-22.4,11.7l22.4,11.7l11.8,22.3l11.6-22.3l22.2-11.7L435.7,174.4z M426.7,189l-2.8,5.3l-2.8-5.3l-5.4-2.9l5.4-2.9l2.8-5.3l2.8,5.3l5.4,2.9L426.7,189z"></path></g></svg>
