<svg version="1.1" xmlns="http://www.w3.org/2000/svg" xmlns:xlink="http://www.w3.org/1999/xlink" x="0px" y="0px" viewBox="0 0 512 512" xml:space="preserve"><g><path d="M259.4,390.8h-24.1v-11.5h14c3.3,0,6-2.7,6-6s-2.7-6-6-6H63.7c-3.3,0-6,2.7-6,6s2.7,6,6,6h11.9v11.5H52c-3.3,0-6,2.7-6,6v28.4c0,3.3,2.7,6,6,6h20.6v26.6c0,3.3,2.7,6,6,6h18.6c3.3,0,6-2.7,6-6v-26.6h104.5v26.6c0,3.3,2.7,6,6,6h18.6c3.3,0,6-2.7,6-6v-26.6h21.1c3.3,0,6-2.7,6-6v-28.4C265.4,393.5,262.7,390.8,259.4,390.8z M223.3,390.8h-0.6v-10.6h0.6V390.8z M210.7,379.3v11.5H100.2v-11.5H210.7z M87.6,380.2h0.6v10.6h-0.6V380.2z M91.2,451.8h-6.6v-20.6h6.6V451.8z M226.3,451.8h-6.6v-20.6h6.6V451.8z M253.4,419.2h-21.1h-18.6H97.2H78.6H58v-16.4h23.6h12.6h122.5h12.6h24.1V419.2z"></path><path d="M63.7,339.2h185.6c3.3,0,6-2.7,6-6s-2.7-6-6-6H63.7c-3.3,0-6,2.7-6,6S60.4,339.2,63.7,339.2z"></path><path d="M63.7,359.3h185.6c3.3,0,6-2.7,6-6s-2.7-6-6-6H63.7c-3.3,0-6,2.7-6,6S60.4,359.3,63.7,359.3z"></path><path d="M432,175.3c2.4-8.9,3.7-18,3.7-27.4c0-56.8-46.2-103-102.9-103c-56.8,0-103,46.2-103,103c0,6.1,0.6,12.2,1.6,18.2c-17.8,12.6-29.5,33.3-29.5,56.7c0,38.2,31.1,69.3,69.3,69.3c0.5,0,1-0.1,1.5-0.2c7.4,5.9,16,10.3,25.5,12.8c0,0.1,0,0.1,0,0.2l-3,124.1l-6.7,28.4c-0.8,3.2,1.2,6.5,4.5,7.2c0.5,0.1,0.9,0.2,1.4,0.2c2.7,0,5.2-1.9,5.8-4.6l6.8-29c0.1-0.4,0.1-0.8,0.2-1.2l3-123.1c2,0.2,4.1,0.3,6.1,0.3c12.1,0,23.9-3.2,34.4-9.3l2.9,130.4c0,0.4,0.1,0.8,0.1,1.1l6.6,30.6c0.6,2.8,3.1,4.7,5.9,4.7c0.4,0,0.8,0,1.3-0.1c3.2-0.7,5.3-3.9,4.6-7.1l-6.5-30l-3-132.1c10.6,6.2,22.6,9.5,35.1,9.5c38.2,0,69.3-31.1,69.3-69.3C467,210.7,453.4,187.5,432,175.3z M397.7,292.8c-10.8,0-21.2-2.9-30.2-8.5c8.6-9.5,14.4-21.2,16.7-34.1c0.6-3.3-1.6-6.4-4.8-7c-3.3-0.6-6.4,1.6-7,4.8c-2.3,12.8-8.8,24.2-18.4,32.7c-1,0.5-1.9,1.2-2.5,2.1c-0.9,0.7-1.8,1.4-2.8,2.1c-12.6,8.7-27.8,12-42.9,9.2c-21.4-3.9-38.5-19.2-44.6-40c-0.9-3.2-4.3-5-7.4-4.1c-3.2,0.9-5,4.3-4.1,7.4c2.3,7.9,6,15.2,10.7,21.6c-26.4-5.1-46.4-28.4-46.4-56.2c0-20.5,10.8-38.5,27-48.6c0.3-0.1,0.5-0.3,0.8-0.5c8.6-5.2,18.7-8.2,29.5-8.2c3.3,0,6-2.7,6-6s-2.7-6-6-6c-10.2,0-19.9,2.2-28.6,6.2c-0.5-3.9-0.8-7.9-0.8-11.8c0-50.2,40.8-91,91-91c50.1,0,90.9,40.8,90.9,91c0,18.1-5.3,35.6-15.4,50.7c-1.8,2.8-1.1,6.5,1.7,8.3c1,0.7,2.2,1,3.3,1c1.9,0,3.8-0.9,5-2.7c3.9-5.8,7.1-12,9.8-18.4c16.6,10.4,27,28.9,27,48.6C455,267.1,429.3,292.8,397.7,292.8z"></path><path d="M269.4,193.1c-5.8,1.1-10.5,5-12.6,10.4c-1,2.7,0.3,5.8,3.1,6.9c0.6,0.3,1.3,0.4,1.9,0.4c2.1,0,4.2-1.3,5-3.4c1.1-2.7,3.3-3.4,4.3-3.6s3.4-0.3,5.3,1.9c2,2.3,5.3,2.5,7.6,0.6s2.5-5.3,0.7-7.7C280.9,194.2,275.2,192,269.4,193.1z"></path><path d="M325.2,123.5c1.8-2.3,1.5-5.8-0.8-7.6c-4.6-3.7-10.6-4.7-16.1-2.7c-5.4,2-9.4,6.6-10.5,12.4c-0.5,2.9,1.4,5.8,4.3,6.3c0.4,0.1,0.7,0.1,1.1,0.1c2.6,0,4.8-1.9,5.3-4.4c0.6-2.9,2.9-4,3.7-4.3s3.2-0.8,5.5,1C320,126.2,323.4,125.8,325.2,123.5z"></path><path d="M344.1,221.5c-3-0.2-5.4,2.3-5.5,5.3c-0.1,2.9-2,4.4-2.9,4.8c-0.9,0.5-3.1,1.4-5.6,0c-2.7-1.5-5.9-0.6-7.4,2c-1.5,2.7-0.5,5.9,2,7.4c2.6,1.5,5.4,2.2,8.2,2.2c2.7,0,5.6-0.8,8.1-2.2c5.1-2.9,8.2-8.1,8.4-14C349.5,224,347.1,221.6,344.1,221.5z"></path><path d="M382.4,148.3c-5.4-2.3-11.5-1.6-16.2,1.8c-2.3,1.8-2.9,5.2-1.1,7.6c1.8,2.3,5.2,2.9,7.6,1.1c2.4-1.7,4.7-1,5.6-0.6c0.9,0.4,3,1.6,3.4,4.5c0.5,2.8,2.8,4.7,5.4,4.7c0.2,0,0.4-0.1,0.7-0.1c3-0.4,5-3.1,4.5-6.1C391.4,155.4,387.8,150.6,382.4,148.3z"></path></g></svg>
