<svg version="1.1" xmlns="http://www.w3.org/2000/svg" xmlns:xlink="http://www.w3.org/1999/xlink" x="0px" y="0px" viewBox="0 0 512 512" xml:space="preserve"><path d="M333.2,268.8c5.7,3.7,12.2,5.4,18.5,5.4c11.3,0,22.4-5.5,29-15.6c10.2-16,5.6-37.3-10.3-47.5l-87-56.2c-1.7-1.6-3.5-2.9-5.4-4.1c19.1-8,32.6-26.8,32.6-48.8c0-29.1-23.7-52.8-52.8-52.8S205,72.9,205,102c0,22.1,13.7,41.1,33.1,49l-4.7,1.2c-0.2,0-0.3,0.1-0.5,0.1l-56.4,20.3c-3.6,1.2-6.9,3.1-9.9,5.5c-4.4,2.6-8.1,6.2-10.9,10.6l-23.1,35.8c-5,7.7-6.7,17-4.7,26c1.9,9,7.2,16.6,14.9,21.5c7.7,5,17,6.7,26,4.7c9-1.9,16.6-7.2,21.5-14.9l17.8-27.5l17.5-6.3v56c0,0.5,0,1.1-0.1,1.6c-0.1,1.3-0.1,2.7,0.1,4.2c0,6.7,0.3,13,2.3,18.9c-2.4,1.9-4.6,4-6.4,6.4l-65.2,81.3c-12.6,15.8-10.1,39,5.7,51.6c6.8,5.4,14.9,8,22.9,8c10.8,0,21.4-4.7,28.6-13.7l60.8-72.5l34.9,76.2v0.1c6.3,13.1,19.5,20.8,33.2,20.8c5.3,0,10.8-1.2,15.9-3.6c18.2-8.8,25.9-30.8,17.1-49.1l-38.8-80.3c0,0,0-0.1-0.1-0.1c-1.3-2.5-1.3-2.5-3.8-7c-3.7-6.6-4.1-7.3-7.1-10.8L294,280v-36.3L333.2,268.8z M215,102c0-23.6,19.2-42.8,42.8-42.8c23.6,0,42.8,19.2,42.8,42.8s-19.2,42.8-42.8,42.8S215,125.6,215,102z M206,436c-9.3,11.5-26.1,13.4-37.6,4.2c-11.5-9.2-13.3-26-4.1-37.6l65.2-81.3l0.1-0.1c1-1.3,2.1-2.5,3.4-3.6c0.3,0.4,0.6,0.8,1,1.2l34,38.9c0.3,1,0.8,2,1.3,2.9L206,436z M318.3,322.6c2.3,2.7,2.5,2.9,5.9,9c2.4,4.3,2.4,4.4,3.6,6.7l38.8,80.2c6.4,13.3,0.8,29.3-12.5,35.7c-13.3,6.4-29.3,0.8-35.7-12.4L282,362.4c-0.6-1.3-1.4-2.5-2.2-3.7c-0.4-0.8-0.9-1.6-1.4-2.4c-0.4-0.6-1-1.5-1.2-2c0-0.1-0.1-0.2-0.1-0.3c0-0.1,0-0.2-0.1-0.3c0-0.1-0.1-0.2-0.1-0.3c0-0.1-0.1-0.2-0.1-0.3c-0.1-0.1-0.1-0.2-0.2-0.4c0-0.1-0.1-0.1-0.1-0.2c-0.1-0.2-0.3-0.4-0.4-0.5l-34.8-39.8c-0.2-0.2-0.3-0.4-0.5-0.6c-0.1-0.1-0.2-0.3-0.3-0.4c-0.2-0.3-0.4-0.5-0.6-0.8c-0.1-0.1-0.1-0.2-0.2-0.3c-0.1-0.2-0.3-0.4-0.4-0.6c-0.2-0.3-0.3-0.5-0.5-0.8c0-0.1-0.1-0.1-0.1-0.2c-2.9-5.3-3.2-11.4-3.2-19.1c0-0.3,0-0.6-0.1-0.8c-0.1-0.6-0.1-1.5,0-2.5c0-0.7,0.1-1.4,0.1-2.2v-63.1c0-1.6-0.8-3.2-2.1-4.1c-1.3-0.9-3-1.2-4.6-0.6l-25.8,9.3c-1,0.4-1.9,1.1-2.5,2l-18.7,28.9c-3.5,5.4-8.9,9.2-15.2,10.5c-6.4,1.4-13,0.2-18.5-3.4c-5.4-3.5-9.2-8.9-10.5-15.2c-1.4-6.4-0.2-13,3.3-18.5l23.1-35.8c2-3.2,4.7-5.7,7.9-7.6c0.3-0.1,0.5-0.3,0.7-0.5c2.1-1.8,4.5-3.1,7.1-4l56.3-20.2l24.4-6.2c6.2,0.1,11.8,2.6,16,6.5c0.1,0.1,0.1,0.2,0.2,0.3c4.9,4.7,7.6,11,7.6,17.6v54.6v47.3c0,1.2,0.4,2.4,1.2,3.3L318.3,322.6z M294,174.9c0-0.3-0.1-0.5-0.1-0.8c0-0.2-0.1-0.5-0.1-0.7l71.2,46.1c11.3,7.3,14.5,22.4,7.3,33.7c-7.3,11.2-22.4,14.4-33.7,7.2l-44.3-28.5V180c0-0.6,0-1.1,0-1.7c0-0.2,0-0.4,0-0.6c0-0.4,0-0.7-0.1-1.1c0-0.2-0.1-0.5-0.1-0.7C294.1,175.6,294,175.3,294,174.9z"></path></svg>
