<svg xmlns:xlink="http://www.w3.org/1999/xlink" height="18px" version="1.1" viewBox="0 0 15 18" width="15px" xmlns="http://www.w3.org/2000/svg">
	<title>Pinterest</title>
	<path d="M134.433705,0.537913223 C129.583175,0.537913223 127.1375,4.01553643 127.1375,6.91555897 C127.1375,8.67149222 127.802296,10.2336447 129.228156,10.8157809 C129.461963,10.9113673 129.671391,10.8190691 129.739198,10.5602033 C129.786367,10.3810496 129.897941,9.92908332 129.947719,9.74085853 C130.016092,9.48482745 129.989559,9.39502381 129.800881,9.17187537 C129.389734,8.68691305 129.127013,8.0590813 129.127013,7.16977583 C129.127013,4.58973545 131.057338,2.28001309 134.153523,2.28001309 C136.895142,2.28001309 138.401393,3.95521379 138.401393,6.19248094 C138.401393,9.13615802 137.098674,11.620612 135.164721,11.620612 C134.096602,11.620612 133.2971,10.7373161 133.553471,9.65400299 C133.8603,8.36069453 134.454796,6.96488294 134.454796,6.03135597 C134.454796,5.19568323 134.006231,4.49868454 133.077807,4.49868454 C131.985989,4.49868454 131.10893,5.62814671 131.10893,7.14120195 C131.10893,8.10489023 131.434581,8.75664694 131.434581,8.75664694 C131.434581,8.75664694 130.317252,13.4907274 130.12143,14.3197102 C129.731374,15.9708725 130.062808,17.9949694 130.090815,18.1994088 C130.107256,18.3205076 130.262939,18.3493083 130.333466,18.2578038 C130.434155,18.1263866 131.734494,16.5210332 132.176595,14.9169271 C132.301663,14.462693 132.894684,12.1106768 132.894684,12.1106768 C133.249363,12.7872655 134.286074,13.3832351 135.388549,13.3832351 C138.670464,13.3832351 140.897073,10.3912546 140.897073,6.38637516 C140.897073,3.35822369 138.332113,0.537913223 134.433705,0.537913223 L134.433705,0.537913223 Z"></path>
</svg>
