<svg version="1.1" viewBox="0 0 82 72" xmlns="http://www.w3.org/2000/svg">
<defs>
<rect height="64" rx="4" width="74" x="0" y="0">
</rect>
<filter height="121.9" width="118.9" x="-6.8" y="-7.8">
<feOffset dx="2" dy="2" in="SourceAlpha" result="shadowOffsetOuter1">
</feOffset>
<feGaussianBlur in="shadowOffsetOuter1" result="shadowBlurOuter1" stdDeviation="2">
</feGaussianBlur>
<feColorMatrix in="shadowBlurOuter1" values="0">
</feColorMatrix>
</filter>
</defs>
<g fill="none" fill-rule="evenodd">
<g transform="translate(2.2744 2.2238)">
<use fill="black" filter="url(#b)">
</use>
<use fill="#FFFFFF" fill-rule="evenodd">
</use>
<path d="m20.5 15.3c-1.4 0-2.6 1.2-2.6 2.6v22.9c0 1.4 1.2 2.6 2.6 2.6h10.4 0.6l0.3 0.5c1.5 2.8 2.8 4.9 3.8 6.2 0.9 1.2 1.6 1.7 1.9 1.7 0.3 0 1-0.6 1.9-1.7 1.1-1.4 2.4-3.5 3.9-6.2l0.3-0.5h10.9c1.4 0 2.6-1.2 2.6-2.6v-22.9c0-1.4-1.2-2.6-2.6-2.6h-34.1z" stroke="#007DC3" stroke-width="2">
</path>
<g fill="#007DC3" id="hat-g" transform="translate(27.647 22.166)">
<path d="m3.4 8.6v3.4l6 3.2 6-3.2v-3.4l-6 3.2-6-3.2zm6-8.6l-9.4 5.1 9.4 5.1 7.7-4.2v5.9h1.7v-6.8l-9.4-5.1z">
</path>
</g>
</g>
</g>
</svg>

