<svg version="1.1" xmlns="http://www.w3.org/2000/svg" xmlns:xlink="http://www.w3.org/1999/xlink" x="0px" y="0px" viewBox="0 0 512 512" xml:space="preserve"><path d="M290.3,201.9c25.5,6.8,43.3,30,43.3,56.5c0,11.5-3.4,22.4-9.4,31.6l8.6,8.7c8.1-11.6,12.8-25.6,12.8-40.3c0-31.9-21.5-59.9-52.2-68.1c-3.2-0.9-6.5,1.1-7.3,4.3C285.2,197.8,287.1,201,290.3,201.9z"></path><g><path d="M305.8,152.6c44.2,16.2,73.8,58.8,73.8,105.8c0,23.3-7.1,45.7-20.4,64.7c-0.3,0.4-0.6,0.8-0.9,1.2l8.6,8.6c0.7-1,1.4-1.9,2.1-2.9c14.8-21,22.6-45.8,22.6-71.6c0-52.1-32.8-99.1-81.7-117.1c-3.1-1.1-6.6,0.5-7.7,3.6C301.1,148,302.7,151.4,305.8,152.6z"></path><path d="M320.8,357.4c-4.4,2.4-9,4.6-13.8,6.4c-3.1,1.2-4.7,4.6-3.5,7.7c0.9,2.4,3.2,3.9,5.6,3.9c0.7,0,1.4-0.1,2.1-0.4c6.4-2.4,12.5-5.4,18.3-8.8L320.8,357.4z"></path></g><g><path d="M319.2,113.4c65.6,17.4,111.4,77.1,111.4,145c0,37.8-14.3,73.1-38.3,100l8.5,8.6c2.8-3.1,5.5-6.3,8-9.6c22.1-28.6,33.7-62.8,33.7-99c0-73.4-49.5-137.8-120.3-156.6c-3.2-0.8-6.5,1.1-7.3,4.3C314.1,109.2,316,112.5,319.2,113.4z"></path><path d="M353,389.8c-10.1,5.6-21,10.1-32.5,13.3c-3.2,0.9-5.1,4.2-4.2,7.4c0.7,2.7,3.1,4.4,5.8,4.4c0.5,0,1.1-0.1,1.6-0.2c13.3-3.7,26.1-9.1,38-16L353,389.8z"></path></g><g><path d="M266,302.4v122.9l-107-96.7V195l-18.7-18.8h-26.7c-24.2,0-43.9,19.7-43.9,43.9v73.6c0,24.2,19.7,43.9,43.9,43.9H151l117,105.8c1.1,1,2.6,1.5,4,1.5c0.8,0,1.7-0.2,2.4-0.5c2.2-1,3.6-3.1,3.6-5.5V314.5L266,302.4z M147,325.5h-33.4c-17.6,0-31.9-14.3-31.9-31.9V220c0-17.6,14.3-31.9,31.9-31.9H147V325.5z"></path><path d="M191.4,156.6L266,91.5v140l12,12.1V78.3c0-2.4-1.4-4.5-3.5-5.5s-4.7-0.6-6.4,0.9L183,147.9L191.4,156.6z"></path></g><path d="M417,428.7c-2.6,0-5.1-1-7.1-2.9L79.8,94.1c-3.9-3.9-3.9-10.2,0-14.1s10.2-3.9,14.1,0L424,411.7c3.9,3.9,3.9,10.2,0,14.1C422.1,427.8,419.6,428.7,417,428.7z"></path></svg>
