<?xml version="1.0" encoding="UTF-8"?>
<svg width="56px" height="73px" viewBox="0 0 56 73" version="1.1" xmlns="http://www.w3.org/2000/svg" xmlns:xlink="http://www.w3.org/1999/xlink">
    <!-- Generator: Sketch 46.2 (44496) - http://www.bohemiancoding.com/sketch -->
    <title>REMAX_mastrBalloon_CMYK_R</title>
    <desc>Created with Sketch.</desc>
    <defs>
        <polygon id="path-1" points="28.3659956 0.0800018611 0 0.0800018611 0 72.0465168 56.7319896 72.0465168 56.7319896 0.0800018611 28.3659956 0.0800018611 56.7319992 0.0800018611 56.7319992 72.0526316 1.51752441e-06 72.0526316 1.51752441e-06 0.0800018611"></polygon>
        <path d="M2.15937097,33.5036584 C2.16059499,33.5019259 2.16304302,33.4992761 2.16447104,33.4973398 C0.458496576,29.0748165 -1.05836718,21.4822832 1.06163123,14.284052 L1.15220852,14.3874939 L1.15353454,14.0119438 C1.15353454,14.0119438 7.13602234,2.36316325 21.3095336,0.00295548277 C20.0362494,7.26620725 15.6330502,37.4393423 25.797088,59.5512452 L24.056127,59.5449266 L24.0171624,59.5448247 C23.9398453,59.4700204 23.8618142,59.3944008 23.7821511,59.3170487 C22.804161,58.3624278 21.6468525,57.2157004 20.3795863,55.9339381 C16.9698814,52.5068011 12.548934,47.8630243 8.87555529,43.454565 C5.79653913,39.7781483 3.27822501,36.32431 2.32471534,33.9285345 C2.24178815,33.7203258 2.24127814,33.7266445 2.15937097,33.5036584 Z" id="path-3"></path>
        <path d="M4.57731565,0.00295548277 C18.7507249,2.36326517 24.7333147,14.0119438 24.7333147,14.0119438 L24.7346407,14.3874939 L24.825218,14.284052 C26.9451144,21.4822832 25.4282507,29.0748165 23.7223782,33.4973398 C23.7237042,33.4992761 23.7263563,33.5019259 23.7274783,33.5036584 C23.6455711,33.7266445 23.6450611,33.7203258 23.5621339,33.9285345 C22.6086242,36.32431 20.0903101,39.7781483 17.011294,43.454565 C13.3378133,47.8630243 8.91686588,52.5068011 5.50726298,55.9339381 C4.13881136,57.3182251 2.89551553,58.5478079 1.87131884,59.5448247 L1.83082426,59.5449266 L0.0896592859,59.5512452 C10.2539011,37.4393423 5.85049791,7.26620725 4.57731565,0.00295548277 Z" id="path-5"></path>
        <path d="M13.4744952,30.6413243 C17.5297674,20.5372421 13.9496181,5.32527038 12.4913031,0.0583962629 C19.4974776,4.32061006 22.591284,10.3430686 22.591284,10.3430686 L22.6831873,10.6151769 C24.8030837,17.813408 23.28622,25.4059413 21.5803475,29.8284646 C21.4804881,30.1093374 21.4347914,30.194333 21.4360154,30.1960655 C21.4008249,30.2915582 21.408169,30.2785133 21.4215312,30.2488565 C21.403273,30.2940041 21.3827707,30.3435339 21.3473762,30.4316888 C21.3244258,30.4887602 21.2987215,30.547666 21.2740371,30.6058585 C20.2270941,32.9819647 17.8032333,36.2824237 14.8692632,39.7856899 C14.2157399,40.5699119 13.5384502,41.3614717 12.8475943,42.1523182 C8.40787858,47.1927412 3.30678542,52.331918 0.0424326086,55.5048836 C1.61927322,53.1240893 9.04773376,41.6708802 13.4744952,30.6413243 Z" id="path-7"></path>
        <path d="M2.20180358,29.8347832 C2.20302759,29.8330507 2.20557763,29.830401 2.20690365,29.8284646 C0.501031186,25.4059413 -1.01583257,17.813408 1.10406383,10.6151769 L1.19606915,10.3430686 C1.19606915,10.3430686 4.28987552,4.32061006 11.295948,0.0583962629 C9.83773509,5.32527038 6.25758574,20.5372421 10.3128579,30.6413243 C14.7543076,41.7074671 22.2170406,53.1998108 23.7600168,55.5276102 C20.7526056,52.6053512 16.1729439,48.0012186 11.9895579,43.3422567 C10.9347608,42.158433 9.89964998,40.9637045 8.9180899,39.7856899 C5.83897174,36.1092731 3.32075962,32.6554348 2.36714795,30.2596593 C2.28432276,30.0514507 2.28381275,30.0577693 2.20180358,29.8347832 Z" id="path-9"></path>
    </defs>
    <g id="Page-1" stroke="none" stroke-width="1" fill="none" fill-rule="evenodd">
        <g id="Form" transform="translate(-132.000000, 0.000000)">
            <g id="Lead-Gen-Form" transform="translate(10.000000, 0.000000)">
                <g id="Gallery-Fixed-Buttons">
                    <g id="REMAX_mastrBalloon_CMYK_R" transform="translate(122.000000, 0.000000)">
                        <g id="Group-4">
                            <mask id="mask-2" fill="white">
                                <use xlink:href="#path-1"></use>
                            </mask>
                            <g id="Clip-2"></g>
                            <path d="M25.031363,65.2064086 C24.8018597,65.2064086 24.5844946,65.1187633 24.4194562,64.9594729 L21.4107191,62.0028691 C20.3162434,60.9109711 19.2199316,59.7993019 18.1533023,58.7001681 L17.70725,58.2396223 L17.3070982,57.8242241 L16.9051104,57.4051571 L16.5011847,56.982625 L16.0969529,56.5574431 L15.6924151,56.1298153 L15.2850212,55.6971938 L14.8809934,55.265999 L14.4757416,54.8313392 L14.0701838,54.393724 L13.6705421,53.960389 L13.2739604,53.5277675 C13.1685929,53.4125037 12.8781947,53.0935154 12.8781947,53.0935154 C12.7700731,52.9746846 12.4968112,52.6726139 12.4968112,52.6726139 C12.3830796,52.5467511 12.1501083,52.2876877 12.1441922,52.2811653 C6.83195598,46.3644926 3.56362511,41.9354469 2.42987885,39.1169355 L2.3776541,38.9882191 C2.33766953,38.8899748 2.31890126,38.8442157 2.25443633,38.6707595 C2.24984627,38.6580203 2.2453582,38.6452812 2.24127814,38.6324401 C2.24015613,38.6289751 2.20975969,38.5475464 2.19037941,38.4948573 C2.18038327,38.4675446 2.17171315,38.4396203 2.16447104,38.4114923 C2.16243101,38.403645 2.15998298,38.3958996 2.15702494,38.388358 C1.16026664,35.7691888 0.450948467,32.6854992 0.159734291,29.7051496 C-0.22379121,25.7816953 0.0841512069,22.0869342 1.07468741,18.7234929 C1.07795146,18.7120786 1.08152151,18.7008682 1.08529556,18.6897596 C1.08529556,18.6897596 1.13864233,18.5316923 1.13966234,18.5283291 C1.61641718,16.8679593 2.34480963,15.1749772 3.30454139,13.4966707 C5.18483636,10.2681624 7.24291987,8.22317219 8.63819789,7.07654679 C9.94963069,5.9987128 11.2697336,5.23242745 12.1693865,5.02666471 C12.2064131,5.01820591 12.2405835,5.0003711 12.268634,4.97479089 C15.476682,2.052328 19.1919832,1.61593568 21.1211369,1.61593568 C21.4525397,1.61593568 21.7731303,1.62836909 22.0739326,1.65303209 C22.0799507,1.65354165 22.0858667,1.65374548 22.0918848,1.65374548 C22.1373775,1.65374548 22.1818501,1.63968146 22.2191827,1.61328594 C24.1756727,0.229406611 26.9449104,0.0800018611 28.0446902,0.0800018611 C28.1736201,0.0800018611 28.2794976,0.0819382119 28.3577327,0.0841803022 C28.3598747,0.0842822154 28.3682388,0.0842822154 28.3702789,0.0841803022 C28.448616,0.0819382119 28.5541875,0.0800018611 28.6833214,0.0800018611 C29.7831011,0.0800018611 32.5522369,0.229406611 34.5087269,1.61328594 C34.5460594,1.63968146 34.5905321,1.65374548 34.6360247,1.65374548 C34.6419408,1.65374548 34.6479589,1.65354165 34.654079,1.65303209 C34.9546773,1.62836909 35.2751659,1.61593568 35.6067727,1.61593568 C37.5376603,1.61593568 41.2561237,2.05304139 44.4651917,4.98009037 C44.4928341,5.00526293 44.5263926,5.02299583 44.5627051,5.03165845 C45.4913264,5.25219862 46.7768509,5.99759175 48.0898137,7.0766487 C49.4850917,8.22337601 51.5424612,10.2669395 53.4197981,13.4906578 C54.4000322,15.204634 55.1352587,16.9051576 55.6040575,18.5434123 C55.6120136,18.5699097 55.6312918,18.6378858 55.6313938,18.6380896 C55.6324139,18.6416566 55.6558742,18.7125882 55.6593422,18.7241044 C55.6830066,18.804412 55.7053449,18.8859425 55.7275812,18.9674731 L55.7767459,19.1448021 C55.7935762,19.2043194 55.8099984,19.2629195 55.8257066,19.3215195 C55.8570211,19.4383121 55.8860915,19.5542893 55.9150599,19.6703684 L55.9355622,19.7517971 C55.9616746,19.8555447 55.987685,19.9590885 56.0120633,20.0626323 C56.0266495,20.1244936 56.0403177,20.1859473 56.0537819,20.2475029 L56.0701021,20.3207785 C56.1057006,20.4790497 56.1408911,20.6373209 56.1733276,20.7957959 C56.1798557,20.827389 56.201888,20.9415318 56.201888,20.9415318 C56.2464627,21.1660465 56.2812452,21.3504075 56.3114376,21.5228446 L56.3170477,21.5569856 C56.550223,22.8986728 56.686395,24.2936607 56.7218915,25.7043432 L56.7220955,25.7203436 C56.7278076,25.9481196 56.7309696,26.1639717 56.7316836,26.3674924 C56.757388,32.0997022 55.2062517,36.753976 54.5381422,38.4890482 C54.5108058,38.5650755 54.4888755,38.6241851 54.4698012,38.673613 C54.4058463,38.8458463 54.38718,38.8916054 54.3485214,38.9863846 L54.2974187,39.1124513 C54.2764064,39.1647327 54.2558021,39.2128358 54.2351978,39.2609388 C54.2351978,39.2609388 54.180423,39.3912858 54.1695089,39.4163564 C54.1594107,39.4390831 54.1309523,39.5023712 54.1209562,39.5243844 C54.0899477,39.5934816 54.0621013,39.6547314 54.0330309,39.7170004 C54.0093666,39.7672436 53.9874363,39.8131045 53.9651999,39.8591693 C53.9594879,39.8708893 53.8911469,40.0107142 53.8877808,40.0175424 C53.8534063,40.0865376 53.8177058,40.1568577 53.7812913,40.2275855 L53.7413067,40.3047338 C53.5588261,40.6547037 53.3499271,41.026585 53.1202198,41.4095748 L53.1149158,41.4185431 C51.5745917,43.9851251 48.9218396,47.3952427 45.2297947,51.5545242 C45.2269386,51.5574796 45.2130664,51.57348 45.2130664,51.57348 C45.0753645,51.7283881 44.9375605,51.8831942 44.7991445,52.0378985 L44.7860883,52.052574 C44.6512424,52.2030998 44.5132344,52.3566829 44.3748184,52.51047 L44.3624762,52.5242282 C44.2226322,52.679544 44.0851343,52.8313946 43.9473303,52.9833472 L43.931418,53.0008763 C43.7923901,53.153848 43.6548921,53.3051891 43.5168841,53.4561225 L43.4941378,53.4809894 C43.3616379,53.6262157 43.2240379,53.7763338 43.0862339,53.9260443 L43.0686897,53.9454078 C42.9287437,54.0976661 42.7920617,54.2460517 42.6551757,54.3939278 L42.6290634,54.4221577 C42.4935034,54.5689128 42.3553934,54.7176041 42.2173855,54.8659897 L42.2022892,54.8821939 C42.0625472,55.0325159 41.9231112,55.1819206 41.7838792,55.3308158 C41.7839812,55.3307139 41.488483,55.6460334 41.349353,55.7941132 L40.9035046,56.2666847 C40.7634566,56.4149684 40.4736705,56.7204023 40.4736705,56.7204023 C36.9609441,60.4164883 33.8488794,63.4684828 32.3066173,64.9587595 C32.141477,65.1185594 31.9239078,65.2064086 31.6939965,65.2064086 L25.031363,65.2064086" id="Fill-1" fill="#FFFFFE" mask="url(#mask-2)"></path>
                            <path d="M26.5286425,72.0526316 C26.2649687,72.0526316 26.0336294,71.8771371 25.9627383,71.6233732 L25.0180008,68.2393454 C24.7337227,68.1918539 24.5163576,67.9442048 24.5163576,67.6468221 L24.5163576,67.2260225 C24.5163576,66.8948046 24.7859475,66.625448 25.1174522,66.625448 L31.7418352,66.625448 C32.07334,66.625448 32.3429298,66.8948046 32.3429298,67.2260225 L32.3429298,67.6468221 C32.3429298,67.9487909 32.1188326,68.1993954 31.8280265,68.2412818 L30.8839009,71.6233732 C30.8130099,71.8771371 30.5816706,72.0526316 30.3179968,72.0526316 L26.5286425,72.0526316" id="Fill-3" fill="#FFFFFE" mask="url(#mask-2)"></path>
                        </g>
                        <path d="M35.5272115,71.5669133 C34.234547,71.5669133 33.2219785,70.5625587 33.2219785,69.2803887 C33.2219785,68.0241047 34.2560693,67.0021192 35.5272115,67.0021192 C36.7971297,67.0021192 37.8231624,68.0241047 37.8231624,69.2803887 C37.8231624,70.5625587 36.814674,71.5669133 35.5272115,71.5669133" id="Fill-5" fill="#FFFFFE"></path>
                        <g id="Group-9" transform="translate(0.918013, 4.178441)" fill="#FFFFFE">
                            <path d="M34.6180725,63.0438105 C35.769669,63.0438105 36.6848261,63.9591949 36.6848261,65.1019476 C36.6848261,66.2622294 35.769669,67.1683396 34.6091984,67.1683396 C33.4585198,67.1683396 32.5242885,66.2622294 32.5242885,65.1019476 C32.5242885,63.9591949 33.4585198,63.0438105 34.6091984,63.0438105 L34.6180725,63.0438105" id="Fill-6"></path>
                            <path d="M2.15937097,34.0132244 C2.24127814,34.2362105 2.24178815,34.2298918 2.32471534,34.4381005 C3.27822501,36.833876 5.79653913,40.2877143 8.87555529,43.964131 C12.548934,48.3725903 16.9698814,53.0163671 20.3795863,56.4435041 C21.6482805,57.7266932 22.8067111,58.8744397 23.7853131,59.8296721 C23.7895972,59.8339524 23.7940852,59.8382328 23.7984713,59.8425131 C23.8726264,59.9144639 23.9449454,59.9844782 24.0171624,60.0543907 L24.056127,60.0544926 L27.3486322,60.0664164 L27.3542423,60.0664164 L30.4805871,60.0778307 L30.6874461,60.078646 C36.0388509,54.9446667 47.3235787,43.5971416 51.4411737,36.7871997 L51.4411737,36.7870978 C51.6632309,36.4169491 51.8636638,36.0605586 52.0420644,35.7187418 C52.0605266,35.6834798 52.0791929,35.6478102 52.0970432,35.6128539 C52.1258076,35.5568017 52.15345,35.5015647 52.1808884,35.4464297 C52.2045527,35.3986324 52.228013,35.350937 52.2507594,35.3037512 C52.2731997,35.2571769 52.295436,35.2109083 52.3169583,35.1650473 C52.3443967,35.1062434 52.3706111,35.0484586 52.3965194,34.9908777 C52.4123297,34.9556157 52.4286499,34.920048 52.4439501,34.8852956 C52.4845467,34.792147 52.5236133,34.7002212 52.5598238,34.61013 C52.5703299,34.5840402 52.5793061,34.5618231 52.5875682,34.5415424 L52.5875682,34.5414405 C52.6173526,34.4679611 52.6345909,34.4265843 52.6540731,34.3769526 C52.6923237,34.2640328 52.716702,34.1773046 52.712316,34.172107 C54.4772473,29.683544 56.0688781,21.9278477 53.8408602,14.6144546 C53.8449402,14.6199579 48.4913934,0.11597722 27.5583472,0.11597722 C8.87382126,-0.51771905 1.15353454,14.5215098 1.15353454,14.5215098 L1.15220852,14.8970599 L1.06163123,14.793618 C-1.05836718,21.9918492 0.458496576,29.5843825 2.16447104,34.0069058 C2.16304302,34.0088421 2.16059499,34.0114918 2.15937097,34.0132244" id="Fill-8"></path>
                        </g>
                        <g id="Group-12" transform="translate(0.918013, 4.688007)">
                            <mask id="mask-4" fill="white">
                                <use xlink:href="#path-3"></use>
                            </mask>
                            <g id="Clip-11"></g>
                            <polygon id="Fill-10" mask="url(#mask-4)" points="-0.918013166 67.3585096 55.8139765 67.3585096 55.8139765 -4.60800529 -0.918013166 -4.60800529"></polygon>
                        </g>
                        <g id="Group-15" transform="translate(29.886429, 4.688007)">
                            <mask id="mask-6" fill="white">
                                <use xlink:href="#path-5"></use>
                            </mask>
                            <g id="Clip-14"></g>
                            <polygon id="Fill-13" mask="url(#mask-6)" points="-29.8864286 67.3585096 26.845561 67.3585096 26.845561 -4.60800529 -29.8864286 -4.60800529"></polygon>
                        </g>
                        <g id="Group-18" transform="translate(32.130461, 8.356882)">
                            <mask id="mask-8" fill="white">
                                <use xlink:href="#path-7"></use>
                            </mask>
                            <g id="Clip-17"></g>
                            <polygon id="Fill-16" mask="url(#mask-8)" points="-32.1304608 63.6896345 24.6015288 63.6896345 24.6015288 -8.27688044 -32.1304608 -8.27688044"></polygon>
                        </g>
                        <g id="Group-21" transform="translate(0.816012, 8.356882)">
                            <mask id="mask-10" fill="white">
                                <use xlink:href="#path-9"></use>
                            </mask>
                            <g id="Clip-20"></g>
                            <polygon id="Fill-19" mask="url(#mask-10)" points="-0.816011703 63.6896345 55.9159779 63.6896345 55.9159779 -8.27688044 -0.816011703 -8.27688044"></polygon>
                        </g>
                        <path d="M28.3639548,0.965321819 C27.7147155,0.944123874 24.3741676,0.920887665 22.4120674,2.57626375 C22.4120674,2.57626375 16.9511131,1.68686727 12.621865,5.85063292 C11.5913442,5.84390665 7.390924,8.23071376 4.06975637,13.9335725 C3.16887945,15.5089468 2.45323718,17.1378254 1.97974639,18.7954436 C2.6358198,17.9279585 5.15505193,14.4835981 10.4841184,14.9666666 C10.8556077,14.677437 14.1795294,11.0656332 21.0759503,12.3202866 C22.0169138,11.3353975 25.4793534,10.2833475 28.3639548,10.2470664 C31.2486582,10.2833475 34.7109958,11.3353975 35.6520613,12.3202866 C42.5483802,11.0656332 45.8724039,14.677437 46.2437912,14.9666666 C51.5729596,14.4835981 54.1026979,17.9254106 54.7588733,18.7928958 C54.2852805,17.1352776 53.5590301,15.5089468 52.6580512,13.9335725 C49.3369856,8.23071376 45.1365653,5.84390665 44.1061466,5.85063292 C39.7767965,1.68686727 34.3158421,2.57626375 34.3158421,2.57626375 C32.353742,0.920887665 29.0131941,0.944123874 28.3639548,0.965321819" id="Fill-22" fill="#CB2432"></path>
                        <path d="M22.4120674,2.57626375 C22.4120674,2.57626375 16.9511131,1.68686727 12.621865,5.85063292 C11.5913442,5.84390665 7.390924,8.23071376 4.06975637,13.9335725 C3.16887945,15.5089468 2.45323718,17.1378254 1.97974639,18.7954436 C2.6358198,17.9279585 5.15505193,14.4835981 10.4841184,14.9666666 C10.8548937,14.6779465 14.1679012,11.0789838 21.0389237,12.3138661 C21.6969352,6.78262912 22.4120674,2.57626375 22.4120674,2.57626375" id="Fill-23" fill="#B3222E"></path>
                        <path d="M10.4841184,14.9666666 C10.4871784,14.9643226 10.4908505,14.9612652 10.4942165,14.9585136 C11.4866907,9.78213839 12.621865,5.85063292 12.621865,5.85063292 C11.5913442,5.84390665 7.390924,8.23071376 4.06975637,13.9335725 C3.16887945,15.5089468 2.45323718,17.1378254 1.97974639,18.7954436 C2.6358198,17.9279585 5.15505193,14.4835981 10.4841184,14.9666666" id="Fill-24" fill="#901C26"></path>
                        <path d="M34.3158421,2.57626375 C34.3158421,2.57626375 39.7767965,1.68686727 44.1061466,5.85063292 C45.1365653,5.84390665 49.3369856,8.23071376 52.6580512,13.9335725 C53.5590301,15.5089468 54.2852805,17.1352776 54.7588733,18.7928958 C54.1026979,17.9254106 51.5729596,14.4835981 46.2437912,14.9666666 C45.8730159,14.6779465 42.5600084,11.0789838 35.6889858,12.3138661 C35.0310764,6.78262912 34.3158421,2.57626375 34.3158421,2.57626375" id="Fill-25" fill="#B3222E"></path>
                        <path d="M46.2437912,14.9666666 C46.2407312,14.9643226 46.2370591,14.9612652 46.2336931,14.9585136 C45.2412188,9.78213839 44.1061466,5.85063292 44.1061466,5.85063292 C45.1365653,5.84390665 49.3369856,8.23071376 52.6580512,13.9335725 C53.5590301,15.5089468 54.2852805,17.1352776 54.7588733,18.7928958 C54.1026979,17.9254106 51.5729596,14.4835981 46.2437912,14.9666666" id="Fill-26" fill="#901C26"></path>
                        <polyline id="Fill-27" fill="#343534" points="28.4554501 67.5037359 25.4123385 67.5037359 25.449773 67.6006554 26.5286425 71.4656116 28.4554501 71.4656116 28.4554501 67.5037359"></polyline>
                        <polyline id="Fill-28" fill="#595A59" points="28.3911892 67.5037359 31.4343008 67.5037359 31.3969683 67.6006554 30.3179968 71.4656116 28.3911892 71.4656116 28.3911892 67.5037359"></polyline>
                        <path d="M31.7418352,67.6553324 L25.1174522,67.6553324 C25.1100061,67.6553324 25.103886,67.6492878 25.103886,67.6418329 L25.103886,67.2258668 C25.103886,67.2185126 25.1100061,67.212468 25.1174522,67.212468 L31.7418352,67.212468 C31.7493833,67.212468 31.7555034,67.2185126 31.7555034,67.2258668 L31.7555034,67.6418329 C31.7555034,67.6492878 31.7493833,67.6553324 31.7418352,67.6553324" id="Fill-29" fill="#595A59"></path>
                        <polyline id="Fill-30" fill="#343534" points="31.3490276 67.874689 31.380342 67.6604784 25.4634412 67.6604784 25.5016917 67.874689 31.3490276 67.874689"></polyline>
                        <path d="M46.6617932,35.3185286 C46.580906,35.3185286 43.2135318,31.8003831 36.4997955,32.4142063 C36.1296322,32.1902011 33.6397764,30.8742978 28.3627308,30.5914887 C23.5044011,30.6923828 20.5957274,32.1902011 20.2255641,32.4142063 C13.5119298,31.8003831 10.1444535,35.3185286 10.0636683,35.3185286 C6.03073449,35.2076471 3.32065762,38.0340058 3.08075018,38.3642046 C3.16347337,38.5869868 3.16398338,38.5806682 3.24762458,38.7885711 C5.77134477,45.063061 19.0815157,58.5760378 25.031363,64.3258786 L31.6939965,64.3258786 C37.6439459,58.5760378 50.9540148,45.063061 53.477837,38.7885711 C53.5614782,38.5806682 53.5619882,38.5869868 53.6447114,38.3642046 C53.4048039,38.0340058 50.694625,35.2076471 46.6617932,35.3185286" id="Fill-31" fill="#0F4584"></path>
                        <path d="M36.4997955,32.4142063 C43.2135318,31.8003831 46.580906,35.3185286 46.6617932,35.3185286 C50.694625,35.2076471 53.4048039,38.0340058 53.6447114,38.3642046 C53.5619882,38.5869868 53.5614782,38.5806682 53.477837,38.7885711 C50.9540148,45.063061 37.6439459,58.5760378 31.6939965,64.3258786 L29.8642943,64.3258786 C34.4922027,54.3969852 36.1688007,42.815875 36.4994895,32.4140025 L36.4997955,32.4142063" id="Fill-32" fill="#0E396E"></path>
                        <path d="M46.6614872,35.3184267 L46.6617932,35.3185286 C50.694625,35.2076471 53.4048039,38.0340058 53.6447114,38.3642046 C53.5619882,38.5869868 53.5614782,38.5806682 53.477837,38.7885711 C50.9540148,45.063061 37.6439459,58.5760378 31.6939965,64.3258786 C31.6939965,64.3258786 40.5025369,51.4309034 45.5196828,39.0605775 C46.0002117,37.8758365 46.3753731,36.6202659 46.6614872,35.3184267" id="Fill-33" fill="#0A2C59"></path>
                        <path d="M20.2255641,32.4142063 C13.5119298,31.8003831 10.1444535,35.3185286 10.0636683,35.3185286 C6.03073449,35.2076471 3.32065762,38.0340058 3.08075018,38.3642046 C3.16347337,38.5869868 3.16398338,38.5806682 3.24762458,38.7885711 C5.77134477,45.063061 19.0815157,58.5760378 25.031363,64.3258786 L26.8611672,64.3258786 C22.2332589,54.3969852 20.5565588,42.815875 20.2258701,32.4140025 L20.2255641,32.4142063" id="Fill-34" fill="#0E396E"></path>
                        <path d="M10.0639743,35.3184267 L10.0636683,35.3185286 C6.03073449,35.2076471 3.32065762,38.0340058 3.08075018,38.3642046 C3.16347337,38.5869868 3.16398338,38.5806682 3.24762458,38.7885711 C5.77134477,45.063061 19.0815157,58.5760378 25.031363,64.3258786 C25.031363,64.3258786 16.2228227,51.4309034 11.2056767,39.0605775 C10.7252498,37.8758365 10.3500884,36.6202659 10.0639743,35.3184267" id="Fill-35" fill="#0A2C59"></path>
                        <path d="M11.9719117,22.7997151 C11.9721157,22.8038935 11.9722177,22.8060337 11.9724217,22.8103141 C12.0025121,23.4906866 11.5651299,24.0349031 10.807973,24.2896861 C10.3547805,24.4421482 10.1287453,24.5209271 9.6781028,24.6832748 C9.63403817,23.8116113 9.61200585,23.3757285 9.56794122,22.503963 C10.0081795,22.3453861 10.2289107,22.2684416 10.671495,22.1191388 C11.4884248,21.8437693 11.9404952,22.0888705 11.9719117,22.7997151 Z M13.6419816,22.2753717 C13.6413696,22.2583522 13.6410636,22.2497915 13.6403496,22.2326701 C13.6114832,21.5064366 13.3581116,20.9644622 12.9071631,20.673602 C12.3961358,20.3440147 11.6493831,20.315479 10.7561563,20.6137789 C9.78041027,20.936538 8.80894833,21.2906864 7.85441864,21.6714341 C7.99150861,24.1654539 8.12849658,26.6595756 8.26558654,29.1535954 C8.90584972,28.9003411 9.22746034,28.7788606 9.8734356,28.5460908 C9.82396489,27.5691509 9.79938254,27.0806809 9.74991183,26.103741 C10.1226252,25.9695213 10.3093899,25.9039911 10.6838372,25.7764977 C11.2896239,26.563981 11.5917522,26.9621559 12.1938669,27.7670663 C12.9419456,27.5340928 13.317515,27.4244342 14.0714078,27.2183657 C13.4941815,26.44301 12.9100192,25.6722405 12.3194307,24.9070762 C13.1515586,24.2830617 13.6883923,23.3355747 13.6419816,22.2753717 L13.6419816,22.2753717 Z" id="Fill-36" fill="#0F4584"></path>
                        <path d="M39.2329247,23.1739404 C38.5859294,23.0510331 38.2617687,22.9943693 37.6122234,22.8906217 C37.9606604,22.0188562 38.1356949,21.5842983 38.4876,20.7179342 C38.7880963,21.6983392 38.9371204,22.1895608 39.2329247,23.1739404 Z M37.7627776,18.364147 C36.743681,20.7594129 35.7448826,23.1624242 34.7652606,25.5742 C35.4451003,25.6479852 35.7846632,25.6900753 36.4623609,25.7848546 C36.7028804,25.1661396 36.8235481,24.8575464 37.0656996,24.2414811 C38.1241688,24.4005676 38.6520263,24.4926972 39.7036614,24.7026384 C39.9158245,25.3981959 40.021192,25.7465352 40.230805,26.4441311 C40.9200289,26.5892555 41.2637738,26.667321 41.9492236,26.8344586 C41.1121996,24.0976816 40.2526333,21.3683442 39.3700146,18.645835 C38.7284254,18.5238449 38.4069168,18.4674869 37.7627776,18.364147 L37.7627776,18.364147 Z" id="Fill-37" fill="#0F4584"></path>
                        <path d="M47.1877127,24.4883149 C47.969554,23.5292098 48.7617993,22.5787673 49.5648568,21.6372932 C48.8377904,21.3511209 48.4723192,21.2144553 47.7382146,20.9540671 C47.1690465,21.7194352 46.8851764,22.1060939 46.3192723,22.886749 C45.9297287,21.9559757 45.534881,21.0272408 45.1346273,20.1010536 C44.3741044,19.8719527 43.9922109,19.7642305 43.2259759,19.5623404 C43.9241759,20.997584 44.6112578,22.4384328 45.2822234,23.8866194 C44.4572356,24.9354081 43.6440799,25.9934709 42.8425524,27.0601964 C43.576453,27.2520989 43.9423322,27.3544198 44.6710307,27.5718006 C45.2666172,26.728367 45.5656855,26.3108286 46.1654541,25.4844145 C46.5857001,26.4754184 46.9998261,27.4693779 47.4076279,28.4656813 C48.1441805,28.7274963 48.5108757,28.8650791 49.2402882,29.1535954 C48.5723826,27.5914699 47.8863208,26.0369879 47.1877127,24.4883149" id="Fill-38" fill="#0F4584"></path>
                        <path d="M17.4807047,24.9314335 C17.4615284,24.2896861 17.4519403,23.9687614 17.432764,23.3269121 C18.4309503,23.1184996 19.4411728,22.9392343 20.4501713,22.7913582 C20.4373191,22.2062745 20.430995,21.9136818 20.4181428,21.3287 C19.4052683,21.4770856 18.3911698,21.6570643 17.3891074,21.8662921 C17.3705431,21.2458446 17.361261,20.9356208 17.3426967,20.3152751 C18.4955173,20.0909642 19.6416057,19.8919277 20.8025863,19.7143949 C20.7903462,19.1292093 20.7842261,18.8366165 20.7720879,18.251431 C19.038063,18.5153861 17.3270905,18.8393682 15.616322,19.2276575 C15.7025132,21.7376777 15.7886024,24.2476978 15.8747937,26.7578199 C16.9079665,26.5089479 17.9556235,26.2914651 19.0024645,26.1086328 C19.2925567,25.469739 19.4383168,25.1511583 19.731367,24.5160353 C18.828552,24.6637075 18.3783176,24.7467668 17.4807047,24.9314335" id="Fill-39" fill="#0F4584"></path>
                        <path d="M31.7205169,17.7658146 C31.1301325,18.5555399 30.5466841,19.3510744 29.9707838,20.1513987 C29.3926395,19.3261056 28.8065391,18.5055006 28.2132986,17.6909084 C28.2053425,17.6909084 28.2013645,17.6910103 28.1934083,17.6911122 C27.6016979,18.8002335 27.0178415,19.9135333 26.4418392,21.0309096 C26.4505093,22.4524968 26.4590775,23.874084 26.4677476,25.2956713 C27.125861,25.2686643 27.4551218,25.2600016 28.1137452,25.2524601 C28.1110932,23.6918632 28.1084411,22.1313683 28.1057891,20.5708734 C28.7114738,21.3408277 29.3098143,22.1173043 29.9000968,22.8990805 C29.9038709,22.9052972 29.9057069,22.9084565 29.9094809,22.9147751 C29.9381434,22.9153866 29.9524236,22.9156923 29.981086,22.9163038 C30.5828946,22.1478783 31.1928634,21.3848542 31.8100742,20.6287601 C31.797426,22.1960832 31.7848798,23.7634063 31.7723337,25.3306275 C32.4346292,25.3666028 32.7656239,25.3895333 33.4268994,25.4451779 C33.4582138,22.9262913 33.4895283,20.4075066 33.5207407,17.88862 C32.8012224,17.8280835 32.4411573,17.8035224 31.7205169,17.7658146" id="Fill-40" fill="#0F4584"></path>
                        <path d="M22.5849599,25.5912195 C23.8687503,22.9358711 25.1877312,20.2994786 26.5444527,17.6805132 C25.7062047,17.7130235 25.2872847,17.737075 24.4505667,17.800567 C23.1109814,20.4684507 21.8096468,23.153252 20.5440126,25.8569072 C21.3588003,25.7355286 21.7671122,25.6823299 22.5849599,25.5912195" id="Fill-41" fill="#CB2432"></path>
                        <path d="M35.1337919,69.2062978 L35.4046058,69.2062978 C35.7141802,69.2062978 35.9757119,69.0963335 35.9757119,68.8140339 C35.9757119,68.6118382 35.8260758,68.4110692 35.4046058,68.4110692 C35.283836,68.4110692 35.1998888,68.4208528 35.1337919,68.4293116 L35.1337919,69.2062978 Z M35.1337919,70.4779707 L34.7611805,70.4779707 L34.7611805,68.1823759 C34.9560033,68.1539422 35.142972,68.1273428 35.423272,68.1273428 C35.7789511,68.1273428 36.0130445,68.2014337 36.1533985,68.3011048 C36.2941605,68.4017951 36.3687236,68.5559897 36.3687236,68.7754088 C36.3687236,69.078091 36.1641087,69.2617386 35.909921,69.3344027 L35.909921,69.3530529 C36.116984,69.3898435 36.256012,69.5709433 36.3026266,69.9105181 C36.3594415,70.2674181 36.4149302,70.4053066 36.4526708,70.4779707 L36.0596592,70.4779707 C36.0036603,70.4053066 35.9477635,70.1938367 35.9006389,69.8919699 C35.8442321,69.5993771 35.6959219,69.4899223 35.3957316,69.4899223 L35.1337919,69.4899223 L35.1337919,70.4779707 Z M35.5272115,67.5428706 C34.6008342,67.5428706 33.8445954,68.3215894 33.8445954,69.2803887 C33.8445954,70.2580421 34.6008342,71.0275886 35.5360856,71.0275886 C36.4718471,71.0347225 37.2191098,70.2580421 37.2191098,69.2887456 C37.2191098,68.3215894 36.4718471,67.5428706 35.5360856,67.5428706 L35.5272115,67.5428706 Z M35.5360856,67.2222517 C36.6876822,67.2222517 37.6028393,68.137636 37.6028393,69.2803887 C37.6028393,70.4406705 36.6876822,71.3467808 35.5272115,71.3467808 C34.376533,71.3467808 33.4423016,70.4406705 33.4423016,69.2803887 C33.4423016,68.137636 34.376533,67.2222517 35.5272115,67.2222517 L35.5360856,67.2222517 L35.5360856,67.2222517 Z" id="Fill-42" fill="#595A59"></path>
                    </g>
                </g>
            </g>
        </g>
    </g>
</svg>