<?xml version="1.0" encoding="UTF-8"?>
<svg width="167px" height="57px" viewBox="0 0 167 57" version="1.1" xmlns="http://www.w3.org/2000/svg" xmlns:xlink="http://www.w3.org/1999/xlink">
    <defs>
        <polygon id="path-1" points="2.09610776e-05 0.1492344 166.206638 0.1492344 166.206638 56.3129658 2.09610776e-05 56.3129658"></polygon>
        <path d="M2.401245,26.739153 C2.4020388,26.7375654 2.4044202,26.7359778 2.405214,26.7343902 C1.0740114,23.2805664 -0.1095444,17.3500866 1.5447348,11.728395 L1.615383,11.8093626 L1.6161768,11.5156566 C1.6161768,11.5156566 6.2845146,2.4179148 17.34453,0.5747112 C16.3514862,6.247206 12.915126,29.8127466 20.8467756,47.0826594 L19.48779,47.0771028 L19.4576256,47.0771028 C19.3972968,47.0191554 19.3361742,46.9604142 19.2742578,46.8992916 C18.511416,46.1539134 17.6080716,45.258507 16.6189968,44.2567314 C13.9581792,41.5800378 10.5091182,37.9539594 7.6419126,34.5112488 C5.23908,31.6400742 3.274425,28.941948 2.5306344,27.0709614 C2.4655428,26.9082324 2.4655428,26.913789 2.401245,26.739153 Z" id="path-3"></path>
        <path d="M3.8729502,0.5747112 C14.9329656,2.4179148 19.6013034,11.5156566 19.6013034,11.5156566 L19.6020972,11.8093626 L19.6735392,11.728395 C21.3270246,17.3500866 20.1434688,23.2805664 18.8122662,26.7343902 C18.81306,26.7359778 18.8154414,26.7375654 18.8162352,26.739153 C18.7527312,26.913789 18.7519374,26.9082324 18.6876396,27.0709614 C17.9430552,28.941948 15.9784002,31.6400742 13.5755676,34.5112488 C10.7091558,37.9539594 7.259301,41.5808316 4.5984834,44.2567314 C3.5308224,45.3386808 2.5607988,46.2991788 1.7614422,47.0771028 L1.7296902,47.0771028 L0.3714984,47.0826594 C8.3023542,29.8127466 4.8667878,6.247206 3.8729502,0.5747112" id="path-5"></path>
        <path d="M10.9790478,24.1942302 C7.5244302,32.807754 1.7281026,41.7530862 0.4977126,43.6121658 C3.0450168,41.134716 7.02513,37.1204694 10.490067,33.1840152 C11.0290572,32.5664388 11.557728,31.9480686 12.0673476,31.3360488 C14.3566668,28.5998202 16.2482922,26.0223516 17.0651124,24.1664472 C17.0849574,24.1204068 17.1048024,24.0743664 17.1230598,24.0299136 C17.150049,23.9616468 17.165925,23.9227506 17.1802134,23.8870296 C17.169894,23.9100498 17.1643374,23.9203692 17.1921204,23.845752 C17.1905328,23.8441644 17.2262538,23.778279 17.30484,23.5591902 C18.6352488,20.1053664 19.8195984,14.1748866 18.1653192,8.553195 L18.0930834,8.3404566 C18.0930834,8.3404566 15.6791376,3.6371916 10.212237,0.3079944 C11.3497524,4.421466 14.1439284,16.3022706 10.9790478,24.1942302" id="path-7"></path>
        <path d="M2.3552046,23.563953 C2.3559984,23.5623654 2.357586,23.5607778 2.3583798,23.5591902 C1.027971,20.1053664 -0.1563786,14.1748866 1.4979006,8.553195 L1.5701364,8.3404566 C1.5701364,8.3404566 3.9840822,3.6371916 9.4517766,0.3079944 C8.3134674,4.421466 5.5192914,16.3022706 8.684172,24.1942302 C12.1499028,32.8371246 17.9732196,41.8118274 19.1774142,43.6296294 C16.8309414,41.3474544 13.25646,37.7523342 9.9923544,34.113555 C9.1699776,33.188778 8.3618892,32.2552692 7.5958722,31.3360488 C5.1930396,28.4648742 3.2283846,25.766748 2.4838002,23.8957614 C2.4195024,23.7330324 2.4187086,23.738589 2.3552046,23.563953 Z" id="path-9"></path>
    </defs>
    <g id="Symbols" stroke="none" stroke-width="1" fill="none" fill-rule="evenodd">
        <g id="lux-header-mobile" transform="translate(-55.000000, -12.000000)">
            <g id="lux-header">
                <g id="Group-3">
                    <g id="COLOUR-CORRECTED-REMAX_Collection_Horizontal_rgb" transform="translate(55.000000, 12.000000)">
                        <g id="REMAX_Collection_Horizontal_rgb">
                            <polygon id="Fill-1" fill="#002E5C" points="50.4809172 56.1184848 163.386266 56.1184848 163.386266 55.1111526 50.4809172 55.1111526"></polygon>
                            <polygon id="Fill-2" fill="#002E5C" points="50.4809172 5.719329 92.3483106 5.719329 92.3483106 4.7119968 50.4809172 4.7119968"></polygon>
                            <polygon id="Fill-3" fill="#002E5C" points="121.518873 5.719329 163.386266 5.719329 163.386266 4.7119968 121.518873 4.7119968"></polygon>
                            <polyline id="Fill-4" fill="#002E5C" points="99.1678464 3.4784316 100.564141 3.4784316 100.564141 7.9705458 101.642121 7.9705458 101.642121 3.4784316 103.038415 3.4784316 103.038415 2.46078 99.1678464 2.46078 99.1678464 3.4784316"></polyline>
                            <polyline id="Fill-5" fill="#002E5C" points="107.863132 4.6921518 105.973888 4.6921518 105.973888 2.46078 104.896701 2.46078 104.896701 7.9705458 105.973888 7.9705458 105.973888 5.7090096 107.863132 5.7090096 107.863132 7.9705458 108.941112 7.9705458 108.941112 2.46078 107.863132 2.46078 107.863132 4.6921518"></polyline>
                            <polyline id="Fill-6" fill="#002E5C" points="112.187754 6.9767082 112.187754 5.6939274 114.381023 5.6939274 114.381023 4.699296 112.187754 4.699296 112.187754 3.4554114 114.662822 3.4554114 114.662822 2.46078 111.117712 2.46078 111.117712 7.9705458 114.699337 7.9705458 114.699337 6.9767082 112.187754 6.9767082"></polyline>
                            <path d="M62.3712474,19.9275552 L62.3712474,19.979946 C62.3712474,21.7961604 61.1019612,22.881285 58.9769586,22.881285 L55.9716318,22.881285 L55.9716318,17.0532054 L59.0285556,17.0532054 C61.1837226,17.0532054 62.3712474,18.0732384 62.3712474,19.9275552 Z M65.901276,19.8751644 L65.901276,19.7711766 C65.901276,18.0732384 65.3551416,16.63011 64.3224078,15.5957886 C63.1698102,14.443191 61.3821726,13.8089448 59.288922,13.8089448 L52.4685924,13.8089448 L52.4685924,32.4934092 L55.9716318,32.4934092 L55.9716318,26.072361 L58.6387998,26.072361 C58.6570572,26.072361 58.6761084,26.072361 58.6983348,26.0707734 L62.555409,32.4934092 L66.611727,32.4934092 L62.249796,25.3293642 C64.6057944,24.3910926 65.901276,22.4597772 65.901276,19.8751644 Z" id="Fill-7" fill="#002E5C"></path>
                            <path d="M135.076183,25.0380396 L130.571368,25.0380396 L132.823379,18.7074846 L135.076183,25.0380396 Z M134.502266,13.704957 L131.249273,13.704957 L124.390841,32.4934092 L127.95421,32.4934092 L129.461636,28.203714 L136.185916,28.203714 L137.693342,32.4934092 L141.359904,32.4934092 L134.560213,13.8660984 L134.502266,13.704957 Z" id="Fill-8" fill="#002E5C"></path>
                            <polyline id="Fill-9" fill="#002E5C" points="155.638778 22.9424076 161.139812 13.8089448 157.21209 13.8089448 153.613001 20.1085416 150.063921 13.8089448 146.0592 13.8089448 151.533245 22.968603 145.824235 32.4934092 149.75037 32.4934092 153.559022 25.8032628 157.297027 32.3679888 157.366881 32.4934092 161.398591 32.4934092 155.638778 22.9424076"></polyline>
                            <polyline id="Fill-10" fill="#002E5C" points="87.4148436 32.3084538 87.310062 32.5069038 91.199682 32.5069038 100.93167 14.0756616 101.036452 13.8780054 97.1444502 13.8780054 87.4148436 32.3084538"></polyline>
                            <polyline id="Fill-11" fill="#002E5C" points="111.024837 21.9215808 106.656556 14.1066198 106.438261 13.7121012 102.986818 20.2490442 102.957448 32.4934092 106.384282 32.4934092 106.384282 20.3498568 110.736688 27.9266778 110.80813 28.0473354 111.166133 28.0473354 115.616176 20.297466 115.616176 32.4934092 119.093814 32.4934092 119.093814 13.8089448 115.534415 13.8089448 111.024837 21.9215808"></polyline>
                            <polyline id="Fill-12" fill="#002E5C" points="72.8930664 32.4934092 81.618516 32.4934092 83.3180418 29.275344 76.371498 29.275344 76.371498 24.695118 83.8824336 24.695118 83.8824336 21.476259 76.371498 21.476259 76.371498 17.02701 84.8445192 17.02701 84.8445192 13.8089448 72.8930664 13.8089448 72.8930664 32.4934092"></polyline>
                            <path d="M52.4685924,42.9461676 L52.4685924,42.8548806 C52.4685924,40.0861062 54.1919322,38.193687 56.5550748,38.193687 C57.8346804,38.193687 58.6824588,38.6509158 59.4270432,39.3296148 L58.5133794,40.4909442 C57.9775644,39.9948192 57.3774516,39.6034758 56.5550748,39.6034758 C55.1182968,39.6034758 54.0355536,40.9092768 54.0355536,42.8548806 L54.0355536,42.9064776 C54.0355536,44.8909776 55.1182968,46.183284 56.5550748,46.183284 C57.4290486,46.183284 58.0037598,45.778446 58.578471,45.230724 L59.4659394,46.3007664 C58.669758,47.123937 57.7425996,47.5930728 56.4764886,47.5930728 C54.1395414,47.5930728 52.4685924,45.7395498 52.4685924,42.9461676" id="Fill-13" fill="#002E5C"></path>
                            <path d="M70.691859,42.9461676 L70.691859,42.8548806 C70.691859,40.896576 69.648012,39.5772804 68.1985332,39.5772804 C66.762549,39.5772804 65.730609,40.8703806 65.730609,42.841386 L65.730609,42.932673 C65.730609,44.8909776 66.7887444,46.2094794 68.2247286,46.2094794 C69.6607128,46.2094794 70.691859,44.917173 70.691859,42.9461676 Z M64.1644416,42.9715692 L64.1644416,42.841386 C64.1644416,40.1257962 65.8353906,38.1801924 68.2247286,38.1801924 C70.600572,38.1801924 72.2588202,40.1130954 72.2588202,42.8151906 L72.2588202,42.9461676 C72.2588202,45.6617574 70.5878712,47.6065674 68.1985332,47.6065674 C65.8226898,47.6065674 64.1644416,45.6736644 64.1644416,42.9715692 Z" id="Fill-14" fill="#002E5C"></path>
                            <polyline id="Fill-15" fill="#002E5C" points="77.8178016 38.324664 79.332372 38.324664 79.332372 46.0665954 83.2489812 46.0665954 83.2489812 47.4628896 77.8178016 47.4628896 77.8178016 38.324664"></polyline>
                            <polyline id="Fill-16" fill="#002E5C" points="88.5475962 38.324664 90.0621666 38.324664 90.0621666 46.0665954 93.9787758 46.0665954 93.9787758 47.4628896 88.5475962 47.4628896 88.5475962 38.324664"></polyline>
                            <polyline id="Fill-17" fill="#002E5C" points="99.2773908 38.324664 105.034822 38.324664 105.034822 39.6947628 100.778467 39.6947628 100.778467 42.1753878 104.551398 42.1753878 104.551398 43.5462804 100.778467 43.5462804 100.778467 46.091997 105.100708 46.091997 105.100708 47.4628896 99.2773908 47.4628896 99.2773908 38.324664"></polyline>
                            <path d="M110.229449,42.9461676 L110.229449,42.8548806 C110.229449,40.0861062 111.951995,38.193687 114.315932,38.193687 C115.594744,38.193687 116.44411,38.6509158 117.1879,39.3296148 L116.274236,40.4909442 C115.738421,39.9948192 115.138309,39.6034758 114.315932,39.6034758 C112.879154,39.6034758 111.795617,40.9092768 111.795617,42.8548806 L111.795617,42.9064776 C111.795617,44.8909776 112.879154,46.183284 114.315932,46.183284 C115.190699,46.183284 115.764617,45.778446 116.339328,45.230724 L117.226796,46.3007664 C116.430615,47.123937 115.503457,47.5930728 114.236552,47.5930728 C111.900398,47.5930728 110.229449,45.7395498 110.229449,42.9461676" id="Fill-18" fill="#002E5C"></path>
                            <polyline id="Fill-19" fill="#002E5C" points="124.366234 39.733659 121.964195 39.733659 121.964195 38.324664 128.283637 38.324664 128.283637 39.733659 125.880804 39.733659 125.880804 47.4628896 124.366234 47.4628896 124.366234 39.733659"></polyline>
                            <polygon id="Fill-20" fill="#002E5C" points="133.69894 47.4636834 135.213511 47.4636834 135.213511 38.324664 133.69894 38.324664"></polygon>
                            <path d="M147.367382,42.9461676 L147.367382,42.8548806 C147.367382,40.896576 146.321948,39.5772804 144.873263,39.5772804 C143.437279,39.5772804 142.406132,40.8703806 142.406132,42.841386 L142.406132,42.932673 C142.406132,44.8909776 143.463474,46.2094794 144.899458,46.2094794 C146.335442,46.2094794 147.367382,44.917173 147.367382,42.9461676 Z M140.839171,42.9715692 L140.839171,42.841386 C140.839171,40.1257962 142.510914,38.1801924 144.899458,38.1801924 C147.275302,38.1801924 148.93355,40.1130954 148.93355,42.8151906 L148.93355,42.9461676 C148.93355,45.6617574 147.262601,47.6065674 144.873263,47.6065674 C142.497419,47.6065674 140.839171,45.6736644 140.839171,42.9715692 Z" id="Fill-21" fill="#002E5C"></path>
                            <polyline id="Fill-22" fill="#002E5C" points="154.492531 38.324664 155.903114 38.324664 159.923711 44.421048 159.923711 38.324664 161.398591 38.324664 161.398591 47.4628896 160.119779 47.4628896 155.980906 41.1831378 155.980906 47.4628896 154.492531 47.4628896 154.492531 38.324664"></polyline>
                            <g id="Group-27">
                                <mask id="mask-2" fill="white">
                                    <use xlink:href="#path-1"></use>
                                </mask>
                                <g id="Clip-24"></g>
                                <path d="M164.287229,39.7741428 L164.497586,39.7741428 C164.738108,39.7741428 164.941321,39.6884124 164.941321,39.4693236 C164.941321,39.3121512 164.825426,39.1549788 164.497586,39.1549788 C164.403918,39.1549788 164.338826,39.1629168 164.287229,39.1692672 L164.287229,39.7741428 Z M164.287229,40.7640114 L163.997492,40.7640114 L163.997492,38.9779614 C164.149108,38.955735 164.294374,38.9343024 164.511875,38.9343024 C164.788911,38.9343024 164.970691,38.9922498 165.079442,39.0700422 C165.18978,39.1486284 165.246934,39.2684922 165.246934,39.4391592 C165.246934,39.6749178 165.088174,39.8178018 164.890517,39.8741616 L164.890517,39.88845 C165.051659,39.9170268 165.159616,40.0575294 165.19613,40.3218648 C165.239789,40.6004886 165.283448,40.7076516 165.312819,40.7640114 L165.006412,40.7640114 C164.963547,40.7076516 164.919888,40.543335 164.883373,40.3083702 C164.83892,40.0805496 164.724613,39.9948192 164.491236,39.9948192 L164.287229,39.9948192 L164.287229,40.7640114 Z M164.592842,38.4802488 C163.872866,38.4802488 163.28466,39.0859182 163.28466,39.8320902 C163.28466,40.5925506 163.872866,41.1918696 164.599987,41.1918696 C165.327901,41.1974262 165.908169,40.5925506 165.908169,39.8384406 C165.908169,39.0859182 165.327901,38.4802488 164.599987,38.4802488 L164.592842,38.4802488 Z M164.599987,38.2302018 C165.495393,38.2302018 166.206638,38.9430342 166.206638,39.8320902 C166.206638,40.7354346 165.495393,41.4395352 164.592842,41.4395352 C163.69823,41.4395352 162.971903,40.7354346 162.971903,39.8320902 C162.971903,38.9430342 163.69823,38.2302018 164.592842,38.2302018 L164.599987,38.2302018 Z" id="Fill-23" fill="#FFFFFF" mask="url(#mask-2)"></path>
                                <path d="M19.5330366,51.0127632 C19.3536378,51.0127632 19.1837646,50.9444964 19.055169,50.8198698 L16.7071086,48.5114994 C15.8529798,47.6581644 14.9980572,46.790541 14.1661548,45.9316494 L13.8176766,45.572058 L13.5049194,45.2473938 L13.1913684,44.9203482 L12.8762298,44.5901274 L12.2451588,43.9241292 L11.9276388,43.5867642 L11.6125002,43.2493992 L11.295774,42.9096528 L10.9790478,42.5683188 L10.6678782,42.23016 L10.3582962,41.8920012 C10.275741,41.8023018 10.0487142,41.5522548 10.0487142,41.5522548 C9.9653652,41.460174 9.751833,41.2236216 9.751833,41.2236216 C9.6629274,41.1259842 9.4811472,40.9235652 9.4763844,40.9180086 C5.3311608,36.2972988 2.7806814,32.8387122 1.8955944,30.636711 L1.8551106,30.5358984 C1.8241524,30.4596936 1.809864,30.4231788 1.7590608,30.2890266 C1.7558856,30.2787072 1.7519166,30.2683878 1.7487414,30.2580684 C1.7479476,30.2564808 1.7241336,30.1929768 1.7090514,30.1516992 C1.7011134,30.1294728 1.694763,30.1080402 1.6892064,30.0858138 C1.6876188,30.0802572 1.6852374,30.0739068 1.682856,30.0675564 C0.904932,28.0227276 0.3516534,25.6135446 0.1246266,23.286123 C-0.174636,20.222055 0.0658854,17.336592 0.8382528,14.7099078 C0.841428,14.7003822 0.8438094,14.6916504 0.8469846,14.6829186 C0.8469846,14.6829186 0.8882622,14.5598796 0.889056,14.5574982 C1.2613482,13.260429 1.829709,11.9379582 2.5782624,10.6273944 C4.0459986,8.1054918 5.651856,6.50916 6.7401558,5.6129598 C7.7641578,4.7715318 8.7937164,4.1730066 9.4962294,4.012659 C9.5248062,4.0055148 9.5517954,3.9920202 9.573228,3.9713814 C12.0768732,1.6892064 14.9766246,1.3486662 16.4816694,1.3486662 C16.7404482,1.3486662 16.9904952,1.3581918 17.22546,1.377243 C17.229429,1.3780368 17.2341918,1.3780368 17.2389546,1.3780368 C17.2746756,1.3780368 17.308809,1.3669236 17.3381796,1.3462848 C18.864657,0.2651292 21.0261744,0.1484406 21.8842722,0.1484406 C21.9850848,0.1484406 22.06764,0.1500282 22.1287626,0.1524096 C22.1303502,0.1524096 22.1367006,0.1524096 22.1382882,0.1524096 C22.1994108,0.1500282 22.281966,0.1484406 22.3827786,0.1484406 C23.2408764,0.1484406 25.4016,0.2651292 26.9280774,1.3462848 C26.957448,1.3669236 26.9923752,1.3780368 27.0273024,1.3780368 C27.0320652,1.3780368 27.036828,1.3780368 27.0415908,1.377243 C27.2765556,1.3581918 27.5266026,1.3486662 27.7853814,1.3486662 C29.2920138,1.3486662 32.1933528,1.6900002 34.6977918,3.9761442 C34.7192244,3.9959892 34.7454198,4.0094838 34.7732028,4.0158342 C35.498736,4.1880888 36.5013054,4.770738 37.5261012,5.6137536 C38.614401,6.50916 40.2202584,8.104698 41.6848194,10.6226316 C42.4500426,11.9609784 43.02396,13.2897996 43.389108,14.5686114 C43.3954584,14.5892502 43.4105406,14.6424348 43.4105406,14.6424348 C43.4113344,14.64561 43.4295918,14.701176 43.432767,14.7099078 C43.4510244,14.772618 43.468488,14.836122 43.4859516,14.899626 L43.524054,15.038541 C43.5375486,15.0853752 43.5502494,15.1306218 43.5621564,15.1766622 C43.5867642,15.2679492 43.6097844,15.3584424 43.6320108,15.4489356 L43.6486806,15.5124396 C43.6685256,15.5934072 43.6883706,15.6743748 43.7082156,15.7553424 C43.7193288,15.8037642 43.7296482,15.8513922 43.7407614,15.899814 L43.7526684,15.9569676 C43.7812452,16.0808004 43.8082344,16.2038394 43.833636,16.3276722 C43.8383988,16.35228 43.8558624,16.4419794 43.8558624,16.4419794 C43.8907896,16.6166154 43.9177788,16.761087 43.9415928,16.896033 L43.9463556,16.9222284 C44.1281358,17.9708382 44.2337112,19.0599318 44.262288,20.1617262 L44.262288,20.1736332 C44.266257,20.3522382 44.2686384,20.5205238 44.2694322,20.6792838 C44.2892772,25.1563158 43.0787322,28.7919198 42.5579994,30.1469364 C42.5365668,30.2056776 42.5191032,30.2525118 42.5048148,30.291408 C42.4548054,30.4247664 42.4397232,30.4604874 42.4095588,30.5351046 L42.3698688,30.6335358 C42.353199,30.6740196 42.337323,30.712122 42.321447,30.7494306 C42.321447,30.7494306 42.2785818,30.8518308 42.26985,30.870882 C42.2627058,30.8883456 42.2396856,30.938355 42.2317476,30.9550248 C42.2079336,31.0090032 42.186501,31.0566312 42.1634808,31.1058468 C42.1452234,31.144743 42.1277598,31.1812578 42.11109,31.2169788 C42.1063272,31.2257106 42.0531426,31.335255 42.0499674,31.3408116 C42.023772,31.3939962 41.995989,31.4487684 41.9666184,31.5043344 L41.9356602,31.5646632 C41.79357,31.8385242 41.630841,32.1282612 41.4514422,32.4275238 L41.4474732,32.434668 C40.24566,34.439013 38.1754296,37.1030058 35.2939356,40.3504416 C35.2915542,40.352823 35.2812348,40.3655238 35.2812348,40.3655238 C35.173278,40.4861814 35.066115,40.6076328 34.9581582,40.7282904 L34.9478388,40.7401974 C34.8430572,40.856886 34.7351004,40.9767498 34.6271436,41.0974074 L34.617618,41.1077268 C34.5080736,41.2291782 34.4009106,41.3474544 34.2929538,41.4673182 L34.2810468,41.480019 C34.1722962,41.5998828 34.0651332,41.718159 33.9579702,41.8356414 L33.9397128,41.8554864 C33.8365188,41.968206 33.7293558,42.0856884 33.621399,42.202377 L33.6079044,42.218253 C33.49836,42.3365292 33.3919908,42.4532178 33.2848278,42.5683188 L33.2649828,42.5905452 C33.1586136,42.7048524 33.0514506,42.821541 32.9434938,42.936642 L32.9315868,42.9501366 C32.8228362,43.0668252 32.7140856,43.1843076 32.605335,43.3002024 C32.605335,43.3002024 32.3743392,43.5462804 32.2663824,43.6613814 L31.9179042,44.0312922 C31.8091536,44.147187 31.5829206,44.385327 31.5829206,44.385327 C28.8419292,47.2715838 26.413695,49.6553652 25.2102942,50.8198698 C25.0809048,50.9444964 24.9110316,51.0127632 24.7316328,51.0127632 L19.5330366,51.0127632" id="Fill-25" fill="#FFFFFE" mask="url(#mask-2)"></path>
                                <path d="M20.7007164,56.3598 C20.4951222,56.3598 20.3149296,56.2224726 20.2593636,56.0248164 L19.5219234,53.3814624 C19.3004532,53.3441538 19.13058,53.1512604 19.13058,52.918677 L19.13058,52.5900438 C19.13058,52.331265 19.3417308,52.1217018 19.5997158,52.1217018 L24.7689414,52.1217018 C25.0277202,52.1217018 25.2380772,52.331265 25.2380772,52.5900438 L25.2380772,52.918677 C25.2380772,53.1544356 25.0634412,53.3505042 24.8364144,53.38305 L24.099768,56.0248164 C24.044202,56.2224726 23.8640094,56.3598 23.6584152,56.3598 L20.7007164,56.3598" id="Fill-26" fill="#FFFFFE" mask="url(#mask-2)"></path>
                            </g>
                            <path d="M27.723465,55.9803636 C26.7145452,55.9803636 25.9239204,55.1960892 25.9239204,54.1951074 C25.9239204,53.2131768 26.731215,52.4154078 27.723465,52.4154078 C28.7141274,52.4154078 29.5142778,53.2131768 29.5142778,54.1951074 C29.5142778,55.1960892 28.727622,55.9803636 27.723465,55.9803636" id="Fill-28" fill="#FFFFFE"></path>
                            <g id="Group-32" transform="translate(0.000000, 3.175200)" fill="#FFFFFE">
                                <path d="M27.7298154,49.4116686 C28.628397,49.4116686 29.342817,50.1268824 29.342817,51.0199074 C29.342817,51.9256332 28.628397,52.6337028 27.723465,52.6337028 C26.8248834,52.6337028 26.096175,51.9256332 26.096175,51.0199074 C26.096175,50.1268824 26.8248834,49.4116686 27.723465,49.4116686 L27.7298154,49.4116686" id="Fill-29"></path>
                                <path d="M2.401245,26.739153 C2.4655428,26.913789 2.4655428,26.9082324 2.5306344,27.0709614 C3.274425,28.941948 5.23908,31.6400742 7.6419126,34.5112488 C10.5091182,37.9539594 13.9581792,41.5800378 16.6189968,44.2567314 C17.6088654,45.2593008 18.5130036,46.1562948 19.2766392,46.901673 C19.2798144,46.9048482 19.2837834,46.9088172 19.2869586,46.9119924 C19.344906,46.9675584 19.4012658,47.0231244 19.4576256,47.0771028 L19.48779,47.0771028 L22.0573206,47.0874222 L22.0620834,47.0874222 L24.5014308,47.0953602 L24.6625722,47.096154 C28.838754,43.0866702 37.6443774,34.224687 40.8576798,28.9054332 C41.0307282,28.61649 41.1871068,28.33866 41.3260218,28.0711494 C41.3403102,28.0433664 41.3553924,28.0155834 41.3696808,27.9885942 C41.3919072,27.9441414 41.4133398,27.90207 41.4347724,27.858411 C41.4530298,27.8211024 41.4712872,27.7837938 41.4887508,27.7464852 C41.5070082,27.7107642 41.523678,27.6750432 41.5403478,27.6385284 C41.5625742,27.592488 41.583213,27.5472414 41.603058,27.5027886 C41.6157588,27.4750056 41.6284596,27.4480164 41.6395728,27.4202334 C41.6713248,27.3479976 41.702283,27.2757618 41.7308598,27.2051136 C41.7387978,27.1844748 41.745942,27.167805 41.7514986,27.1511352 C41.7753126,27.0939816 41.7888072,27.0614358 41.8038894,27.0225396 C41.83326,26.9352216 41.8523112,26.8669548 41.8499298,26.8629858 C43.226379,23.357565 44.468676,17.3000772 42.730254,11.5886862 C42.7334292,11.5926552 38.5556598,0.2651292 22.2208434,0.2651292 C7.6411188,-0.230202 1.6161768,11.5156566 1.6161768,11.5156566 L1.615383,11.8093626 L1.5447348,11.728395 C-0.1095444,17.3500866 1.0740114,23.2805664 2.405214,26.7343902 C2.4044202,26.7359778 2.4020388,26.7375654 2.401245,26.739153" id="Fill-31"></path>
                            </g>
                            <g id="Group-35" transform="translate(0.000000, 3.175200)">
                                <mask id="mask-4" fill="white">
                                    <use xlink:href="#path-3"></use>
                                </mask>
                                <g id="Clip-34"></g>
                                <polygon id="Fill-33" mask="url(#mask-4)" points="0 53.1377658 166.206638 53.1377658 166.206638 -3.0259656 0 -3.0259656"></polygon>
                            </g>
                            <g id="Group-38" transform="translate(23.020200, 3.175200)">
                                <mask id="mask-6" fill="white">
                                    <use xlink:href="#path-5"></use>
                                </mask>
                                <g id="Clip-37"></g>
                                <path d="M3.8729502,0.5747112 C14.9329656,2.4179148 19.6013034,11.5156566 19.6013034,11.5156566 L19.6020972,11.8093626 L19.6735392,11.728395 C21.3270246,17.3500866 20.1434688,23.2805664 18.8122662,26.7343902 C18.81306,26.7359778 18.8154414,26.7375654 18.8162352,26.739153 C18.7527312,26.913789 18.7519374,26.9082324 18.6876396,27.0709614 C17.9430552,28.941948 15.9784002,31.6400742 13.5755676,34.5112488 C10.7091558,37.9539594 7.259301,41.5808316 4.5984834,44.2567314 C3.5308224,45.3386808 2.5607988,46.2991788 1.7614422,47.0771028 L1.7296902,47.0771028 L0.3714984,47.0826594 C8.3023542,29.8127466 4.8667878,6.247206 3.8729502,0.5747112" id="Fill-36" mask="url(#mask-6)"></path>
                            </g>
                            <g id="Group-41" transform="translate(24.607800, 6.350400)">
                                <mask id="mask-8" fill="white">
                                    <use xlink:href="#path-7"></use>
                                </mask>
                                <g id="Clip-40"></g>
                                <path d="M10.9790478,24.1942302 C7.5244302,32.807754 1.7281026,41.7530862 0.4977126,43.6121658 C3.0450168,41.134716 7.02513,37.1204694 10.490067,33.1840152 C11.0290572,32.5664388 11.557728,31.9480686 12.0673476,31.3360488 C14.3566668,28.5998202 16.2482922,26.0223516 17.0651124,24.1664472 C17.0849574,24.1204068 17.1048024,24.0743664 17.1230598,24.0299136 C17.150049,23.9616468 17.165925,23.9227506 17.1802134,23.8870296 C17.169894,23.9100498 17.1643374,23.9203692 17.1921204,23.845752 C17.1905328,23.8441644 17.2262538,23.778279 17.30484,23.5591902 C18.6352488,20.1053664 19.8195984,14.1748866 18.1653192,8.553195 L18.0930834,8.3404566 C18.0930834,8.3404566 15.6791376,3.6371916 10.212237,0.3079944 C11.3497524,4.421466 14.1439284,16.3022706 10.9790478,24.1942302" id="Fill-39" mask="url(#mask-8)"></path>
                            </g>
                            <g id="Group-44" transform="translate(0.000000, 6.350400)">
                                <mask id="mask-10" fill="white">
                                    <use xlink:href="#path-9"></use>
                                </mask>
                                <g id="Clip-43"></g>
                                <polygon id="Fill-42" mask="url(#mask-10)" points="0 49.9625658 166.206638 49.9625658 166.206638 -6.2011656 0 -6.2011656"></polygon>
                            </g>
                            <path d="M22.1335254,0.8398404 C21.6262872,0.8239644 19.0202418,0.805707 17.4890016,2.0980134 C17.4890016,2.0980134 13.2270894,1.4034384 9.8494704,4.655637 C9.045351,4.6500804 5.766957,6.5147166 3.1759938,10.9687284 C2.472687,12.1991184 1.9146456,13.4715798 1.5447348,14.7654738 C2.0567358,14.0883624 4.0229784,11.3981742 8.1809028,11.7752292 C8.4706398,11.54979 11.0647782,8.7286248 16.4459484,9.708174 C17.1802134,8.9397756 19.8823086,8.1173988 22.1335254,8.0896158 C24.3847422,8.1173988 27.0860436,8.9397756 27.8203086,9.708174 C33.2014788,8.7286248 35.7956172,11.54979 36.0853542,11.7752292 C40.2440724,11.3981742 42.218253,14.085981 42.730254,14.7638862 C42.3603432,13.4691984 41.79357,12.1991184 41.0902632,10.9687284 C38.4993,6.5147166 35.220906,4.6500804 34.4175804,4.655637 C31.0391676,1.4034384 26.7780492,2.0980134 26.7780492,2.0980134 C25.246809,0.805707 22.6399698,0.8239644 22.1335254,0.8398404" id="Fill-45" fill="#DC1C2E"></path>
                            <path d="M17.4890016,2.0980134 C17.4890016,2.0980134 13.2270894,1.4034384 9.8494704,4.655637 C9.045351,4.6500804 5.766957,6.5147166 3.1759938,10.9687284 C2.472687,12.1991184 1.9146456,13.4715798 1.5447348,14.7654738 C2.0567358,14.0883624 4.0229784,11.3981742 8.1809028,11.7752292 C8.4706398,11.54979 11.0560464,8.7389442 16.4173716,9.7034112 C16.9309602,5.3835516 17.4890016,2.0980134 17.4890016,2.0980134" id="Fill-46" fill="#C61828"></path>
                            <path d="M8.1809028,11.7752292 C8.1832842,11.7736416 8.1864594,11.7712602 8.1888408,11.7688788 C8.9635896,7.7260554 9.8494704,4.65562462 9.8494704,4.65562462 C9.045351,4.6500804 5.766957,6.5147166 3.1759938,10.9687284 C2.472687,12.1991184 1.9146456,13.4715798 1.5447348,14.7654738 C2.0567358,14.0883624 4.0229784,11.3981742 8.1809028,11.7752292" id="Fill-47" fill="#A51220"></path>
                            <path d="M26.7780492,2.0980134 C26.7780492,2.0980134 31.0391676,1.4034384 34.4175804,4.655637 C35.220906,4.6500804 38.4993,6.5147166 41.0902632,10.9687284 C41.79357,12.1991184 42.3603432,13.4691984 42.730254,14.7638862 C42.218253,14.085981 40.2440724,11.3981742 36.0853542,11.7752292 C35.796411,11.54979 33.2110044,8.7389442 27.8488854,9.7034112 C27.3360906,5.3835516 26.7780492,2.0980134 26.7780492,2.0980134" id="Fill-48" fill="#C61828"></path>
                            <path d="M36.0853542,11.7752292 C36.0829728,11.7736416 36.0797976,11.7712602 36.0774162,11.7688788 C35.3026674,7.7260554 34.4175804,4.65562462 34.4175804,4.65562462 C35.220906,4.6500804 38.4993,6.5147166 41.0902632,10.9687284 C41.79357,12.1991184 42.3603432,13.4691984 42.730254,14.7638862 C42.218253,14.085981 40.2440724,11.3981742 36.0853542,11.7752292" id="Fill-49" fill="#A51220"></path>
                            <polyline id="Fill-50" fill="#414042" points="22.2041736 52.807545 19.8299178 52.807545 19.8592884 52.8821622 20.7007164 55.9009836 22.2041736 55.9009836 22.2041736 52.807545"></polyline>
                            <polyline id="Fill-51" fill="#636466" points="22.1541642 52.807545 24.5292138 52.807545 24.4998432 52.8821622 23.6584152 55.9009836 22.1541642 55.9009836 22.1541642 52.807545"></polyline>
                            <path d="M24.7689414,52.9297902 L19.5997158,52.9297902 C19.5941592,52.9297902 19.5893964,52.9250274 19.5893964,52.918677 L19.5893964,52.5900438 C19.5893964,52.5836934 19.5941592,52.5797244 19.5997158,52.5797244 L24.7689414,52.5797244 C24.7752918,52.5797244 24.7800546,52.5836934 24.7800546,52.5900438 L24.7800546,52.918677 C24.7800546,52.9250274 24.7752918,52.9297902 24.7689414,52.9297902" id="Fill-52" fill="#636466"></path>
                            <polyline id="Fill-53" fill="#414042" points="24.4625346 53.0163144 24.4871424 52.9297902 19.8704016 52.9297902 19.8997722 53.0163144 24.4625346 53.0163144"></polyline>
                            <path d="M36.411606,27.6702804 C36.348102,27.6702804 33.720624,24.9229386 28.4823378,25.4016 C28.1933946,25.226964 26.2501722,24.1997868 22.1327316,23.9783166 C18.3415428,24.0576966 16.0712748,25.226964 15.7831254,25.4016 C10.5440454,24.9229386 7.9157736,27.6702804 7.8530634,27.6702804 C4.7056464,27.5837562 2.5909632,29.791314 2.4044202,30.049299 C2.468718,30.2231412 2.468718,30.2183784 2.5346034,30.3803136 C4.5040212,35.2812348 14.8901004,45.8348058 19.5330366,50.3253324 L24.7316328,50.3253324 C29.374569,45.8348058 39.7606482,35.2812348 41.7308598,30.3803136 C41.7959514,30.2183784 41.7959514,30.2231412 41.861043,30.049299 C41.6729124,29.791314 39.5582292,27.5837562 36.411606,27.6702804" id="Fill-54" fill="#003DA5"></path>
                            <path d="M28.4823378,25.4016 C33.720624,24.9229386 36.348102,27.6702804 36.411606,27.6702804 C39.5582292,27.5837562 41.6729124,29.791314 41.861043,30.049299 C41.7959514,30.2231412 41.7959514,30.2183784 41.7308598,30.3803136 C39.7606482,35.2812348 29.374569,45.8348058 24.7316328,50.3253324 L23.3043804,50.3253324 C26.9153766,42.5707002 28.223559,33.526143 28.481544,25.4016 L28.4823378,25.4016" id="Fill-55" fill="#004185"></path>
                            <path d="M36.411606,27.6702804 C39.5582292,27.5837562 41.6729124,29.791314 41.861043,30.049299 C41.7959514,30.2231412 41.7959514,30.2183784 41.7308598,30.3803136 C39.7606482,35.2812348 29.374569,45.8348058 24.7316328,50.3253324 C24.7316328,50.3253324 31.605147,40.253598 35.5201686,30.5922582 C35.895636,29.6674812 36.1877544,28.6871382 36.411606,27.6702804" id="Fill-56" fill="#003471"></path>
                            <path d="M15.7831254,25.4016 C10.5440454,24.9229386 7.9157736,27.6702804 7.8530634,27.6702804 C4.7056464,27.5837562 2.5909632,29.791314 2.4044202,30.049299 C2.468718,30.2231412 2.468718,30.2183784 2.5346034,30.3803136 C4.5040212,35.2812348 14.8901004,45.8348058 19.5330366,50.3253324 L20.9610828,50.3253324 C17.3492928,42.5707002 16.0411104,33.526143 15.7831254,25.4016" id="Fill-57" fill="#004185"></path>
                            <path d="M7.8530634,27.6702804 C4.7056464,27.5837562 2.5909632,29.791314 2.4044202,30.049299 C2.468718,30.2231412 2.468718,30.2183784 2.5346034,30.3803136 C4.5040212,35.2812348 14.8901004,45.8348058 19.5330366,50.3253324 C19.5330366,50.3253324 12.6595224,40.253598 8.743707,30.5922582 C8.3690334,29.6674812 8.076915,28.6871382 7.8530634,27.6702804" id="Fill-58" fill="#003471"></path>
                            <path d="M9.3422322,17.8930458 C9.3422322,17.896221 9.3422322,17.8978086 9.3422322,17.9017776 C9.3660462,18.4328298 9.0247122,18.8575128 8.434125,19.0567566 C8.0800902,19.1758266 7.9038666,19.237743 7.5522132,19.3639572 C7.517286,18.6828768 7.5006162,18.3431304 7.4664828,17.66205 C7.8094044,17.5382172 7.981659,17.4778884 8.3277558,17.3611998 C8.9651772,17.14608 9.3176244,17.3381796 9.3422322,17.8930458 Z M10.644858,17.483445 C10.644858,17.4699504 10.6440642,17.4636 10.6440642,17.4501054 C10.6218378,16.8825384 10.4241816,16.459443 10.0717344,16.2324162 C9.6732468,15.975225 9.0898038,15.9529986 8.3936412,16.185582 C7.632387,16.4380104 6.8735142,16.7150466 6.1289298,17.0119278 C6.2360928,18.959913 6.342462,20.9078982 6.449625,22.8550896 C6.949719,22.6574334 7.2005598,22.5629712 7.7046228,22.381191 C7.6657266,21.6183492 7.6466754,21.2365314 7.608573,20.4736896 C7.8991038,20.368908 8.045163,20.317311 8.3372814,20.218086 C8.8095924,20.8324872 9.045351,21.1444506 9.5152806,21.7731402 C10.0987236,21.5905662 10.3924296,21.5048358 10.9806354,21.3444882 C10.529757,20.7388188 10.0741158,20.1371184 9.612918,19.539387 C10.2630402,19.0512 10.6813728,18.3113784 10.644858,17.483445 Z" id="Fill-59" fill="#003DA5"></path>
                            <path d="M30.6144846,18.185958 C30.1096278,18.0891144 29.8571994,18.0454554 29.3499612,17.9644878 C29.6222346,17.2834074 29.7587682,16.943661 30.0326292,16.2673434 C30.267594,17.0325666 30.3842826,17.4167658 30.6144846,18.185958 Z M29.4674436,14.4289026 C28.672056,16.2998892 27.8925444,18.1764324 27.128115,20.0601198 C27.6591672,20.1180672 27.9242964,20.150613 28.4521734,20.2244364 C28.640304,19.7410122 28.7347662,19.5004908 28.9236906,19.019448 C29.7492426,19.1432808 30.1612248,19.2155166 30.982014,19.3790394 C31.1479182,19.9227924 31.2296796,20.194272 31.3932024,20.7396126 C31.9313988,20.8523322 32.1997032,20.9142486 32.7347244,21.0444318 C32.0806332,18.9067284 31.410666,16.7753754 30.7216476,14.6487852 C30.2207598,14.5535292 29.969919,14.5098702 29.4674436,14.4289026 Z" id="Fill-60" fill="#003DA5"></path>
                            <path d="M36.8220006,19.2115476 C37.4324328,18.4629942 38.0500092,17.7207912 38.6771112,16.9849386 C38.1095442,16.7618808 37.82457,16.6547178 37.2514464,16.451505 C36.8069184,17.0492364 36.586242,17.3516742 36.1440954,17.9613126 C35.84007,17.2341918 35.5320756,16.5086586 35.2201122,15.7855068 C34.6263498,15.606108 34.3286748,15.522759 33.7301496,15.3647928 C34.2754902,16.4856384 34.8113052,17.610453 35.3352132,18.7424118 C34.6914414,19.5608196 34.0571952,20.3871654 33.4316808,21.2206554 C34.0040106,21.3706836 34.2897786,21.4500636 34.8581394,21.6199368 C35.3233062,20.9618766 35.5558896,20.634831 36.0242316,19.9894716 C36.352071,20.7642204 36.6751476,21.5405568 36.9934614,22.3184808 C37.5681726,22.5224874 37.8547344,22.6304442 38.423889,22.8550896 C37.9023624,21.6358128 37.3673412,20.4212988 36.8220006,19.2115476" id="Fill-61" fill="#003DA5"></path>
                            <path d="M13.6406592,19.5584382 C13.625577,19.0567566 13.6184328,18.8059158 13.6033506,18.305028 C14.3820684,18.142299 15.1703118,18.0017964 15.9577614,17.8866954 C15.9482358,17.4294666 15.9426792,17.2008522 15.9331536,16.7444172 C15.1425288,16.860312 14.3511102,17.0008146 13.5692172,17.1643374 C13.5549288,16.6793256 13.5477846,16.4372166 13.5334962,15.9529986 C14.4328716,15.7775688 15.3266904,15.621984 16.23321,15.4838628 C16.2236844,15.026634 16.2181278,14.7980196 16.209396,14.3407908 C14.855967,14.5471788 13.5207954,14.7996072 12.1856238,15.1036326 C12.2530968,17.0635248 12.3205698,19.0242108 12.387249,20.984103 C13.1937498,20.789622 14.0113638,20.6197488 14.828184,20.4776586 C15.054417,19.9783584 15.1687242,19.729899 15.3965448,19.233774 C14.6924442,19.348875 14.3407908,19.4139666 13.6406592,19.5584382" id="Fill-62" fill="#003DA5"></path>
                            <path d="M24.7522716,13.9613544 C24.2918676,14.578137 23.8370202,15.1996824 23.3869356,15.824403 C22.9360572,15.1798374 22.4788284,14.5392408 22.016043,13.903407 C22.0096926,13.903407 22.0065174,13.903407 22.000167,13.903407 C21.5389692,14.7694428 21.0825342,15.6386538 20.6332434,16.5118338 C20.6403876,17.62236 20.646738,18.7320924 20.6538822,19.8426186 C21.1674708,19.821186 21.424662,19.8148356 21.9374568,19.8084852 C21.9358692,18.5900022 21.9342816,17.3715192 21.9319002,16.1522424 C22.4042112,16.7539428 22.8709656,17.3596122 23.3321634,17.9708382 C23.3345448,17.975601 23.3361324,17.9779824 23.3393076,17.9827452 C23.361534,17.983539 23.3726472,17.983539 23.3948736,17.9843328 C23.8648032,17.38422 24.3402894,16.7880762 24.822126,16.197489 C24.8126004,17.4215286 24.802281,18.6455682 24.7927554,19.8696078 C25.3095192,19.8981846 25.568298,19.9156482 26.084268,19.9593072 C26.108082,17.9922708 26.1326898,16.0244406 26.1572976,14.0574042 C25.596081,14.01057 25.314282,13.990725 24.7522716,13.9613544" id="Fill-63" fill="#003DA5"></path>
                            <path d="M17.6239476,20.0728206 C18.6257232,17.999415 19.6552818,15.9402978 20.7134172,13.8946752 C20.059326,13.9200768 19.7322804,13.939128 19.078983,13.9883436 C18.0343422,16.0720686 17.019072,18.1692882 16.0315848,20.2807962 C16.6666248,20.186334 16.9857324,20.1442626 17.6239476,20.0728206" id="Fill-64" fill="#DC1C2E"></path>
                            <path d="M27.4154706,54.13716 L27.6274152,54.13716 C27.8687304,54.13716 28.072737,54.0506358 28.072737,53.8307532 C28.072737,53.672787 27.9560484,53.5156146 27.6274152,53.5156146 C27.532953,53.5156146 27.4678614,53.5235526 27.4154706,53.529903 L27.4154706,54.13716 Z M27.4154706,55.1302038 L27.1249398,55.1302038 L27.1249398,53.3370096 C27.2773494,53.3147832 27.4234086,53.2941444 27.6417036,53.2941444 C27.9195336,53.2941444 28.1021076,53.3520918 28.211652,53.4298842 C28.3211964,53.5092642 28.3799376,53.629128 28.3799376,53.8005888 C28.3799376,54.0371412 28.2203838,54.1800252 28.02114,54.2371788 L28.02114,54.2514672 C28.1830752,54.280044 28.2918258,54.4221342 28.3275468,54.6872634 C28.3719996,54.9650934 28.4156586,55.0730502 28.4450292,55.1302038 L28.1386224,55.1302038 C28.0949634,55.0730502 28.0513044,54.9079398 28.0139958,54.6721812 C27.9703368,54.4435668 27.854442,54.3586302 27.620271,54.3586302 L27.4154706,54.3586302 L27.4154706,55.1302038 Z M27.723465,52.8377094 C26.9995194,52.8377094 26.409726,53.4457602 26.409726,54.1951074 C26.409726,54.958743 26.9995194,55.5596496 27.7298154,55.5596496 C28.4601114,55.5644124 29.0435544,54.958743 29.0435544,54.2014578 C29.0435544,53.4457602 28.4601114,52.8377094 27.7298154,52.8377094 L27.723465,52.8377094 Z M27.7298154,52.5868686 C28.628397,52.5868686 29.342817,53.3020824 29.342817,54.1951074 C29.342817,55.1008332 28.628397,55.8089028 27.723465,55.8089028 C26.8248834,55.8089028 26.096175,55.1008332 26.096175,54.1951074 C26.096175,53.3020824 26.8248834,52.5868686 27.723465,52.5868686 L27.7298154,52.5868686 Z" id="Fill-65" fill="#414042"></path>
                        </g>
                    </g>
                </g>
            </g>
        </g>
    </g>
</svg>
