<?xml version="1.0" encoding="UTF-8"?>
<svg version="1.1" viewBox="0 0 100 30" xmlns="http://www.w3.org/2000/svg">
<polygon points="0 29.16 96.44 29.16 96.44 20.429 0 20.429" fill="#7D868C"/>
<path d="m3.0515 24.808v-0.013268c0-1.3398 1.0356-2.4369 2.5202-2.4369 0.91129 0 1.4568 0.29583 1.9056 0.72667l-0.67681 0.76078c-0.3728-0.32995-0.75233-0.53173-1.2358-0.53173-0.81469 0-1.4015 0.65974-1.4015 1.4676v0.013559c0 0.80759 0.57288 1.4809 1.4015 1.4809 0.55239 0 0.8908-0.21549 1.2703-0.55185l0.67681 0.66631c-0.49722 0.51832-1.0496 0.84156-1.9815 0.84156-1.4224 0-2.4787-1.0705-2.4787-2.4236" fill="#FFFFFE"/>
<path d="m16.499 24.808v-0.013268c0-0.80788-0.60772-1.4812-1.464-1.4812-0.85596 0-1.4496 0.65974-1.4496 1.4676v0.013559c0 0.80759 0.60743 1.4809 1.4635 1.4809 0.85626 0 1.4501-0.65974 1.4501-1.4676zm-4.0253 0v-0.013268c0-1.3398 1.084-2.4369 2.5752-2.4369 1.4915 0 2.5617 1.0836 2.5617 2.4233v0.013559c0 1.3393-1.0842 2.4369-2.5757 2.4369-1.4912 0-2.5613-1.084-2.5613-2.4236z" fill="#FFFFFE"/>
<polyline points="22.778 22.438 23.924 22.438 25.195 24.431 26.465 22.438 27.611 22.438 27.611 27.15 26.555 27.15 26.555 24.074 25.195 26.087 25.167 26.087 23.821 24.094 23.821 27.15 22.778 27.15 22.778 22.438" fill="#FFFFFE"/>
<polyline points="34.109 22.438 35.255 22.438 36.526 24.431 37.796 22.438 38.942 22.438 38.942 27.15 37.886 27.15 37.886 24.074 36.526 26.087 36.498 26.087 35.152 24.094 35.152 27.15 34.109 27.15 34.109 22.438" fill="#FFFFFE"/>
<polyline points="44.984 22.438 48.629 22.438 48.629 23.36 46.04 23.36 46.04 24.316 48.319 24.316 48.319 25.238 46.04 25.238 46.04 26.228 48.664 26.228 48.664 27.15 44.984 27.15 44.984 22.438" fill="#FFFFFE"/>
<path d="m56.652 24.727c0.518 0 0.81469-0.26973 0.81469-0.66674v-0.013559c0-0.44396-0.31777-0.67287-0.83547-0.67287h-1.0566v1.3532h1.0774zm-2.1405-2.2892h2.2094c0.61445 0 1.0909 0.16869 1.4087 0.47808 0.26917 0.26259 0.41392 0.63263 0.41392 1.077v0.013414c0 0.76078-0.42065 1.2387-1.0357 1.4609l1.1811 1.6831h-1.2428l-1.0357-1.508h-0.83577v1.508h-1.0631v-4.7125z" fill="#FFFFFE"/>
<path d="m63.61 24.808v-0.013268c0-1.3398 1.0353-2.4369 2.52-2.4369 0.91099 0 1.457 0.29583 1.9056 0.72667l-0.67681 0.76078c-0.3728-0.32995-0.75248-0.53173-1.2359-0.53173-0.81483 0-1.4013 0.65974-1.4013 1.4676v0.013559c0 0.80759 0.57318 1.4809 1.4013 1.4809 0.55254 0 0.89095-0.21549 1.2705-0.55185l0.67666 0.66631c-0.49692 0.51832-1.0495 0.84156-1.9817 0.84156-1.4221 0-2.4783-1.0705-2.4783-2.4236" fill="#FFFFFE"/>
<polygon points="73.72 27.15 74.784 27.15 74.784 22.438 73.72 22.438" fill="#FFFFFE"/>
<path d="m83.366 25.178l-0.64182-1.5281-0.64227 1.5281h1.2841zm-1.1181-2.7738h0.97993l2.0716 4.7462h-1.1115l-0.44189-1.057h-2.0436l-0.44189 1.057h-1.084l2.0714-4.7462z" fill="#FFFFFE"/>
<polyline points="89.916 22.438 90.979 22.438 90.979 26.208 93.389 26.208 93.389 27.15 89.916 27.15 89.916 22.438" fill="#FFFFFE"/>
<path d="m55.386 0.20456l-3.9782 5.5532-4.0298-5.5532-4.0902 7.469v9.6679h3.8337v-10.612l4.1428 5.259 0.18752 0.035138 4.191-5.3424v10.66h3.8597v-17.137h-4.1166zm-33.752 13.816v-3.6479h7.0525v-3.3209h-7.0525v-3.5263h8.019v-3.3209h-11.931v17.137h7.4016l1.7979-3.3209h-5.2874zm69.313-5.4418l5.2682-8.3742h-4.3821l-3.1147 5.4318-3.0633-5.4318h-4.4857l5.2152 8.4223-5.4508 8.7146h4.3812l3.3244-5.7492 3.2984 5.7492h4.486l-5.4767-8.7627zm-18.137 1.8238h-3.7869l1.9057-5.2457 1.8812 5.2457zm-3.6837-10.295l-6.61 17.234h3.9747l1.3321-3.6908h6.187l1.3583 3.6908h4.0787l-6.6099-17.234h-3.7108zm-59.564 5.8976v0.024203c0 1.5525-1.0849 2.4795-2.9022 2.4795h-2.7195v-4.9832h2.6411c1.95 0 2.9806 0.85745 2.9806 2.4795zm3.9643-0.17c0-1.6551-0.54043-3.0323-1.5631-3.9831-1.1592-1.0776-2.8937-1.6472-5.0163-1.6472h-6.9449v17.137h3.9381l1.4954e-4 -5.5847h2.2573l3.3697 5.5847h4.5101l-3.9152-6.351c1.5533-0.65829 3.3642-2.0676 3.3642-5.0582v-0.097249z" fill="#DC1C2E"/>
<polyline points="38.441 0.20456 29.162 17.341 33.945 17.341 43.226 0.20456 38.441 0.20456" fill="#004E9B"/>
<path d="m98.069 21.644h0.17003c0.1944 0 0.35859-0.06736 0.35859-0.24028 0-0.12378-0.09391-0.24684-0.35859-0.24684-0.075816 0-0.12845 0.0059778-0.17003 0.011227v0.47589zm0 0.77916h-0.23388v-1.4064c0.12232-0.017496 0.23971-0.03368 0.41557-0.03368 0.22326 0 0.37041 0.04549 0.45848 0.10658 0.088377 0.061528 0.13518 0.15601 0.13518 0.29043 0 0.18546-0.12845 0.29802-0.28801 0.34234v0.011518c0.12995 0.022599 0.21713 0.13355 0.24644 0.34161 0.03574 0.21855 0.070433 0.30297 0.094359 0.34759h-0.24689c-0.034992-0.044615-0.070283-0.17394-0.099742-0.35896-0.035441-0.17919-0.12845-0.24626-0.31702-0.24626h-0.16449v0.60522zm0.24704-1.7982c-0.58155 0-1.0565 0.47706-1.0565 1.0645 0 0.59895 0.47493 1.0705 1.062 1.0705 0.58754 0.0042282 1.0566-0.47152 1.0566-1.0654 0-0.59253-0.4691-1.0696-1.0566-1.0696h-0.005533zm0.005533-0.19639c0.72302 0 1.2975 0.56075 1.2975 1.2609 0 0.71092-0.57453 1.2658-1.3031 1.2658-0.72242 0-1.3089-0.55491-1.3089-1.2658 0-0.70013 0.58649-1.2609 1.3089-1.2609h0.005533z" fill="#778081"/>
</svg>
