<svg version="1.1" xmlns="http://www.w3.org/2000/svg" xmlns:xlink="http://www.w3.org/1999/xlink" x="0px" y="0px" viewBox="0 0 512 512" xml:space="preserve"><g><path d="M241.1,50.2c-2.7,0-5,2.2-5,5v146.3c0,8.7-7,15.7-15.7,15.7h-44.6c-8.7,0-15.7-7-15.7-15.7V55.2c0-2.7-2.2-5-5-5s-5,2.2-5,5v146.3c0,14.1,11.5,25.6,25.6,25.6h2.5v55.1l-11.5,137.6c-0.6,2.8-3.6,20.5,6,32.4c5,6.2,12.3,9.7,21.7,10.4c0.3,0.1,0.7,0.2,1.2,0.2h2.5c0.4,0,0.7-0.1,1.2-0.2c9.5-0.7,16.8-4.2,21.7-10.4c9.6-11.9,6.5-29.5,6-32.4l-11.5-137.6v-55.1h5c14.1,0,25.6-11.5,25.6-25.6V55.2C246.1,52.5,243.9,50.2,241.1,50.2z M205.6,283l11.6,138c0,0.2,0.1,0.4,0.1,0.7c0,0.2,3.2,15.5-4,24.4c-3.4,4.2-8.9,6.5-16.4,6.8c-7.4-0.2-13-2.5-16.4-6.8c-7.2-8.9-4-24.2-4-24.4c0.1-0.2,0.1-0.4,0.1-0.7l11.6-138c0-0.2,0-0.2,0-0.4v-55.4h17.4v55.4C205.6,282.7,205.6,282.8,205.6,283z"></path><path d="M183.3,201.5c2.7,0,5-2.2,5-5V55.2c0-2.7-2.2-5-5-5s-5,2.2-5,5v141.4C178.3,199.3,180.5,201.5,183.3,201.5z"></path><path d="M211.4,201.5c2.7,0,5-2.2,5-5V55.2c0-2.7-2.2-5-5-5c-2.7,0-5,2.2-5,5v141.4C206.4,199.3,208.6,201.5,211.4,201.5z"></path><path d="M283.5,51c-1.5-1-3.5-1.1-5-0.2c-1.6,0.9-2.6,2.6-2.6,4.4v376.1c0,0.3,0,7.8,3.6,15.3c3.5,7.4,10.7,16.1,26.2,16.1c23.4,0,30.3-19.3,30.6-29.6c0-0.4,0-0.8-0.1-1.2L311,317.4c-0.1-3.1,0-26,25.5-42.2c16.2-10.3,25.5-34.9,25.5-67.2C361.9,156.5,337.4,85.5,283.5,51z M331.1,266.8c-16.6,10.6-23.9,24-27,33.2c-3.5,10.3-3,18.1-3,18.4c0,0.2,0.1,0.5,0.1,0.7l25.1,114.4c-0.2,3.3-2.5,19.4-20.7,19.4c-8.2,0-13.8-3.3-17.1-10.1c-2.6-5.5-2.7-11.3-2.7-11.4V64.7c45.5,34.1,66.2,97,66.2,143.3C352,236.4,344.1,258.4,331.1,266.8z"></path></g></svg>
