<?xml version="1.0" encoding="UTF-8"?>
<svg width="22px" height="22px" viewBox="0 0 22 22" version="1.1" xmlns="http://www.w3.org/2000/svg" xmlns:xlink="http://www.w3.org/1999/xlink">
    <!-- Generator: Sketch 52.4 (67378) - http://www.bohemiancoding.com/sketch -->
    <title>icon / search / blue</title>
    <desc>Created with Sketch.</desc>
    <g id="icon-/-search-/-blue" stroke="none" stroke-width="1" fill="none" fill-rule="evenodd">
        <path d="M13.0589744,15.8863157 C11.1889744,15.8863157 9.49271795,15.1163157 8.25282051,13.8657894 C8.25112821,13.8657894 8.2505641,13.86 8.24887179,13.86 C8.24605128,13.86 8.24210256,13.8542106 8.23928205,13.8542106 C6.97569231,12.5747369 6.18989744,10.7973684 6.18989744,8.84052631 C6.18989744,4.95 9.27158974,1.78894737 13.0589744,1.78894737 C16.846359,1.78894737 19.9280512,4.95 19.9280512,8.84052631 C19.9280512,12.7252631 16.846359,15.8863157 13.0589744,15.8863157 Z M13.0589744,0.0521052631 C8.3385641,0.0521052631 4.49758974,3.99473684 4.49758974,8.84052631 C4.49758974,10.9710526 5.24276923,12.9278947 6.47758974,14.4505263 L0.638564102,20.4426316 C0.308,20.7842106 0.308,21.328421 0.638564102,21.67 C0.803846154,21.8378947 1.02046154,21.9247369 1.23707693,21.9247369 C1.45369231,21.9247369 1.66974359,21.8378947 1.83502565,21.67 L7.68420512,15.6663157 C9.15482051,16.8878947 11.0242564,17.6231579 13.0589744,17.6231579 C17.7799488,17.6231579 21.620359,13.6805263 21.620359,8.84052631 C21.620359,3.99473684 17.7799488,0.0521052631 13.0589744,0.0521052631 Z" id="6F" fill="#004E9B" fill-rule="nonzero" transform="translate(11.005500, 10.988421) scale(-1, 1) translate(-11.005500, -10.988421) "></path>
    </g>
</svg>