<svg xmlns="http://www.w3.org/2000/svg" viewBox="0 0 512 512"><g><path d="M436,454.6l-20-287c0-0.2-0.1-0.5-0.1-0.7c0-0.1,0-0.1,0-0.2c-0.1-0.2-0.1-0.5-0.2-0.7c0,0,0-0.1,0-0.1c-0.1-0.2-0.2-0.5-0.3-0.7c0,0,0-0.1-0.1-0.1c-0.3-0.5-0.6-0.9-1-1.3c0,0,0,0-0.1-0.1l-30-30c-1.1-1.1-2.7-1.8-4.2-1.8h-62.3v-22c0-30.9-25.1-56-56-56H252c-30.9,0-56,25.1-56,56v22h-69c-1.6,0-3.1,0.6-4.2,1.8l-30,30c0,0,0,0-0.1,0.1c-0.2,0.2-0.4,0.4-0.5,0.6c0,0,0,0,0,0c-0.2,0.2-0.3,0.4-0.4,0.7c0,0,0,0.1-0.1,0.1c-0.1,0.2-0.2,0.5-0.3,0.7c0,0,0,0.1,0,0.1c-0.1,0.2-0.1,0.4-0.2,0.7c0,0.1,0,0.1,0,0.2c0,0.2-0.1,0.5-0.1,0.7l-20,287c-0.1,1.7,0.5,3.3,1.6,4.5s2.7,1.9,4.4,1.9h353c1.7,0,3.3-0.7,4.4-1.9S436.1,456.2,436,454.6z M208,110c0-24.3,19.7-44,44-44h9.7c24.3,0,44,19.7,44,44v22H208V110z M129.5,144h248l18,18h-284L129.5,144z M83.4,449l19.2-275h301.8l19.2,275H83.4z"></path><path d="M311.7,188.5c-11.3,0-20.5,9.2-20.5,20.5c0,9.2,6.1,17,14.5,19.6V283c0,24.3-19.7,44-44,44H252c-24.3,0-44-19.7-44-44v-54.4c8.4-2.6,14.5-10.4,14.5-19.6c0-11.3-9.2-20.5-20.5-20.5s-20.5,9.2-20.5,20.5c0,9.2,6.1,17,14.5,19.6V283c0,30.9,25.1,56,56,56h9.7c30.9,0,56-25.1,56-56v-54.4c8.4-2.6,14.5-10.4,14.5-19.6C332.2,197.7,323,188.5,311.7,188.5z M193.5,209c0-4.7,3.8-8.5,8.5-8.5s8.5,3.8,8.5,8.5s-3.8,8.5-8.5,8.5S193.5,213.7,193.5,209z M311.7,217.5c-4.7,0-8.5-3.8-8.5-8.5s3.8-8.5,8.5-8.5c4.7,0,8.5,3.8,8.5,8.5S316.3,217.5,311.7,217.5z"></path></g></svg>
