<svg version="1.1" viewBox="0 0 83 72" xmlns="http://www.w3.org/2000/svg">
<defs>
<rect height="64.015" rx="4" width="74.013" x=".51024" y=".016633">
</rect>
<filter height="121.9%" width="118.9%" x="-6.8%" y="-7.8%">
<feOffset dx="2" dy="2" in="SourceAlpha" result="shadowOffsetOuter1">
</feOffset>
<feGaussianBlur in="shadowOffsetOuter1" result="shadowBlurOuter1" stdDeviation="2">
</feGaussianBlur>
<feColorMatrix in="shadowBlurOuter1" values="0 0 0 0 0 0 0 0 0 0 0 0 0 0 0 0 0 0 0.1 0">
</feColorMatrix>
</filter>
</defs>
<g fill="none" fill-rule="evenodd">
<g transform="translate(1.9365 2.2238)">
<use fill="black" filter="url(#b)">
</use>
<use fill="#FFFFFF" fill-rule="evenodd">
</use>
<g transform="translate(16.018 11.062)">
<path d="m40.955 23.284c0 9.17-7.4483 16.603-16.636 16.603-9.1878 0-16.636-7.4325-16.636-16.603 0-9.1692 7.4483-16.603 16.636-16.603 9.1878 0 16.636 7.4333 16.636 16.603zM37.995 21.314 37.995 21.314">
</path>
<path d="m37.995 21.314c0 9.17-7.4483 16.603-16.636 16.603-9.1878 0-16.636-7.4325-16.636-16.603 0-9.1692 7.4483-16.603 16.636-16.603 9.1878 0 16.636 7.4333 16.636 16.603z" stroke="#2E2F2E" stroke-width="1.5">
</path>
<path d="m37.995 21.314c0 9.17-7.4483 16.603-16.636 16.603-9.1878 0-16.636-7.4325-16.636-16.603 0-9.1692 7.4483-16.603 16.636-16.603 9.1878 0 16.636 7.4333 16.636 16.603z" stroke="#007DC3" stroke-width="2">
</path>
<path d="m42.733 20.962c0 11.423-9.5029 20.682-21.225 20.682-11.722 0-21.225-9.2587-21.225-20.682 0-11.422 9.5029-20.682 21.225-20.682 11.722 0 21.225 9.2597 21.225 20.682z" stroke="#007DC3" stroke-dasharray="3,3,3" stroke-width="1.5">
</path>
<path d="m37.995 21.314c0 5.3313-7.4483 9.6526-16.636 9.6526-9.1878 0-16.636-4.3213-16.636-9.6526 0-5.3306 7.4483-9.6526 16.636-9.6526 9.1878 0 16.636 4.3221 16.636 9.6526z" stroke="#007DC3" stroke-width="1.5">
</path>
<path d="m37.995 21.314c0 5.3313-7.4483 9.6526-16.636 9.6526-9.1878 0-16.636-4.3213-16.636-9.6526 0-5.3306 7.4483-9.6526 16.636-9.6526 9.1878 0 16.636 4.3221 16.636 9.6526z" stroke="#007DC3" stroke-width="1.5">
</path>
<path d="m21.359 4.7117c5.3414 0 9.6722 7.4333 9.6722 16.603 0 9.17-4.3308 16.603-9.6722 16.603s-9.6722-7.4325-9.6722-16.603c0-9.1692 4.3308-16.603 9.6722-16.603z" stroke="#007DC3" stroke-width="1.5">
</path>
<path d="m21.359 4.7117c5.3414 0 9.6722 7.4333 9.6722 16.603 0 9.17-4.3308 16.603-9.6722 16.603s-9.6722-7.4325-9.6722-16.603c0-9.1692 4.3308-16.603 9.6722-16.603z" stroke="#007DC3" stroke-width="1.5">
</path>
<text fill="#007DC3" font-family="Roboto-Medium, Roboto" font-size="7.5" font-weight="400" letter-spacing="-.375" line-spacing="4.5">
<tspan x="15.3295641" y="26.8059156">
360˚</tspan>
</text>
</g>
</g>
</g>
</svg>

