<svg version="1.1" xmlns="http://www.w3.org/2000/svg" xmlns:xlink="http://www.w3.org/1999/xlink" x="0px" y="0px" viewBox="0 0 512 512" xml:space="preserve"><g><path d="M351.9,106.2h-90.7v-45h64.7c27.3,0,43.5,10.5,49.4,32.1c0.6,2.3,2.6,3.7,4.9,3.7c0.4,0,0.9-0.1,1.3-0.2c2.7-0.8,4.3-3.5,3.5-6.2C378,64.7,357.5,51,325.9,51H186.4c-31.6,0-52.1,13.7-59.2,39.6c-0.8,2.7,0.8,5.5,3.5,6.2c2.7,0.8,5.5-0.8,6.2-3.5c5.9-21.6,22.1-32.1,49.4-32.1h64.7v45h-90.7c-26.1,0-47.2,21.2-47.2,47.2v225.2c0,7.4,6.1,13.5,13.5,13.5h40.6l-36.8,61.2c-1.4,2.4-0.7,5.5,1.8,6.9c0.8,0.5,1.7,0.8,2.6,0.8c1.7,0,3.4-0.8,4.4-2.4l12.6-21h206.1l12.6,21c0.9,1.6,2.6,2.4,4.4,2.4c0.9,0,1.8-0.3,2.6-0.8c2.4-1.4,3.2-4.6,1.8-6.9l-36.8-61.2h43.3c7.4,0,13.5-6.1,13.5-13.5V153.4C399.1,127.3,377.9,106.2,351.9,106.2z M351.7,427.4H157.8l21.3-35.3h151.4L351.7,427.4z M389,378.6c0,1.9-1.5,3.4-3.4,3.4H126.7c-1.9,0-3.4-1.5-3.4-3.4V153.4c0-20.5,16.6-37.1,37.1-37.1h191.4c20.5,0,37.1,16.6,37.1,37.1L389,378.6L389,378.6z"></path><path d="M162.5,263.8h187.4c5.1,0,9.3-4.1,9.3-9.3v-86.5c0-12.1-9.9-21.9-21.9-21.9H175.1c-12.1,0-21.9,9.9-21.9,21.9v86.5C153.2,259.6,157.3,263.8,162.5,263.8z M163.3,168.1c0-6.5,5.3-11.8,11.8-11.8h162.1c6.5,0,11.8,5.3,11.8,11.8v85.6H163.3V168.1z"></path><path d="M181.7,299.2c-16.5,0-29.9,13.4-29.9,29.9s13.4,29.9,29.9,29.9s29.9-13.4,29.9-29.9C211.6,312.6,198.2,299.2,181.7,299.2z M181.7,348.8c-10.9,0-19.7-8.9-19.7-19.7s8.9-19.7,19.7-19.7c10.9,0,19.7,8.9,19.7,19.7S192.6,348.8,181.7,348.8z"></path><path d="M336.1,299.2c-16.5,0-29.9,13.4-29.9,29.9s13.4,29.9,29.9,29.9s29.9-13.4,29.9-29.9C366,312.6,352.6,299.2,336.1,299.2z M336.1,348.8c-10.9,0-19.7-8.9-19.7-19.7s8.9-19.7,19.7-19.7s19.7,8.9,19.7,19.7S347.1,348.8,336.1,348.8z"></path></g></svg>
