<svg height="12px" version="1.1" viewBox="0 0 23 18" width="23px" xmlns="http://www.w3.org/2000/svg"><g fill="none" fill-rule="evenodd"><g fill="#004E9B" fill-rule="nonzero" transform="translate(-146 -317)"><g transform="translate(65 313)"><g transform="translate(81 4)"><path d="m22.11 2.1435c-0.81379 0.3606-1.687 0.60515-2.6044 0.71433 0.93677-0.56096 1.6538-1.4507 1.9937-2.5077-0.87871 0.51949-1.8486 0.8967-2.8821 1.1012-0.82759-0.88286-2.0048-1.4328-3.3104-1.4328-2.5049 0-4.5359 2.031-4.5359 4.5346 0 0.35507 0.040066 0.70186 0.11745 1.0335-3.7691-0.18931-7.1113-1.9951-9.3482-4.7391-0.39102 0.66873-0.61346 1.4479-0.61346 2.2797 0 1.5737 0.80136 2.9623 2.0172 3.7746-0.74334-0.024856-1.4425-0.22934-2.0545-0.56924v0.056649c0 2.1968 1.564 4.0302 3.6379 4.4475-0.37996 0.10224-0.78062 0.15889-1.1951 0.15889-0.29289 0-0.57614-0.029011-0.85385-0.084287 0.57751 1.803 2.2521 3.1142 4.2361 3.1502-1.5516 1.2159-3.508 1.9385-5.633 1.9385-0.36612 0-0.72675-0.02211-1.0818-0.062176 2.0075 1.2891 4.3909 2.0407 6.9524 2.0407 8.3437 0 12.905-6.911 12.905-12.905l-0.01521-0.58719c0.89114-0.6356 1.6621-1.4342 2.2686-2.3433z"></path></g></g></g></g></svg>
