<svg version="1.1" xmlns="http://www.w3.org/2000/svg" xmlns:xlink="http://www.w3.org/1999/xlink" x="0px" y="0px" viewBox="0 0 512 512" xml:space="preserve"><g><path d="M262.8,427c-0.3,0-0.5,0-0.8,0c-3.5-0.4-6.4-3-7.1-6.5l-54-286.2l-46.7,212.9c-0.8,3.4-3.7,6-7.2,6.3s-6.8-1.7-8.1-5L99.7,252l-19.8,41.7c-1.3,2.8-4.2,4.6-7.3,4.6H12.5c-4.4,0-8-3.6-8-8s3.6-8,8-8h55.1l25.5-53.6c1.4-2.9,4.3-4.7,7.5-4.6c3.2,0.1,6,2.1,7.2,5l36.2,89.4l49.6-226c0.8-3.7,4.2-6.3,8-6.3c3.8,0.1,7.1,2.8,7.8,6.6L265.6,391l66.3-161.8c1.2-3,4.2-5,7.4-5l0,0c3.2,0,6.2,2,7.4,4.9l40.8,97.9l31.4-38.6c1.5-1.9,3.8-3,6.2-3h74.3c4.4,0,8,3.6,8,8s-3.6,8-8,8h-70.5l-37.5,46.1c-1.8,2.2-4.6,3.3-7.4,2.9s-5.2-2.3-6.3-4.9l-38.5-92.3l-69,168.8C269,425,266,427,262.8,427z"></path></g></svg>
